<svg version="1.1" xmlns="http://www.w3.org/2000/svg" x="0" y="0" viewBox="0 0 496.1 496.1" xml:space="preserve"><rect y="0" width="496.1" height="496.1" fill="#1d1a3c"/><rect x="323.1" y="127.6" width="15.8" height="354.3" fill="none"/><text transform="rotate(-90 247.1 -83.6)" fill="#fff" font-family="Lora-Italic" font-size="10">Conflict</text><rect x="201.3" y="127.6" width="17" height="354.3" fill="none"/><text transform="rotate(-90 197.829 -10.98)" fill="#fff" font-family="Lora-Italic" font-size="10">Temperature</text><rect x="82.2" y="127.6" width="15.6" height="354.3" fill="none"/><text transform="rotate(-90 129.352 39.597)" fill="#fff" font-family="Lora-Italic" font-size="10">Economy</text><g fill="none" stroke="#fff" stroke-width=".5" stroke-miterlimit="10"><line x1="155.8" y1="496.1" x2="155.8" y2="494.1"/><line x1="155.8" y1="490.1" x2="155.8" y2="131.6" stroke-dasharray="4.005 4.005"/><line x1="155.8" y1="129.6" x2="155.8" y2="127.6"/></g><g fill="none" stroke="#fff" stroke-width=".5" stroke-miterlimit="10"><line x1="99.1" y1="127.6" x2="99.1" y2="129.6"/><line x1="99.1" y1="133.6" x2="99.1" y2="492.1" stroke-dasharray="4.005 4.005"/><line x1="99.1" y1="494.1" x2="99.1" y2="496.1"/></g><g fill="none" stroke="#fff" stroke-width=".5" stroke-miterlimit="10"><line x1="396.8" y1="496.1" x2="396.8" y2="494.1"/><line x1="396.8" y1="490.1" x2="396.8" y2="131.6" stroke-dasharray="4.005 4.005"/><line x1="396.8" y1="129.6" x2="396.8" y2="127.6"/></g><g fill="none" stroke="#fff" stroke-width=".5" stroke-miterlimit="10"><line x1="340.1" y1="127.6" x2="340.1" y2="129.6"/><line x1="340.1" y1="133.6" x2="340.1" y2="492.1" stroke-dasharray="4.005 4.005"/><line x1="340.1" y1="494.1" x2="340.1" y2="496.1"/></g><g fill="none" stroke="#fff" stroke-width=".5" stroke-miterlimit="10"><line x1="275" y1="496.1" x2="275" y2="494.1"/><line x1="275" y1="490.1" x2="275" y2="131.6" stroke-dasharray="4.005 4.005"/><line x1="275" y1="129.6" x2="275" y2="127.6"/></g><g fill="none" stroke="#fff" stroke-width=".5" stroke-miterlimit="10"><line x1="218.3" y1="127.6" x2="218.3" y2="129.6"/><line x1="218.3" y1="133.6" x2="218.3" y2="492.1" stroke-dasharray="4.005 4.005"/><line x1="218.3" y1="494.1" x2="218.3" y2="496.1"/></g><line x1="99.2" y1="127.6" x2="155.9" y2="127.6" fill="none" stroke="#fff" stroke-width=".5" stroke-miterlimit="10"/><line x1="218.3" y1="127.6" x2="275" y2="127.6" fill="none" stroke="#fff" stroke-width=".5" stroke-miterlimit="10"/><line x1="340.2" y1="127.6" x2="396.9" y2="127.6" fill="none" stroke="#fff" stroke-width=".5" stroke-miterlimit="10"/><rect x="99.2" y="430.9" width="56.7" height="8.5" fill="none"/><text transform="translate(111.91 437.411)" fill="#fff" font-family="Inter-Light" font-size="9">Fold up</text><rect x="218.3" y="430.9" width="56.7" height="8.5" fill="none"/><text transform="translate(230.965 437.411)" fill="#fff" font-family="Inter-Light" font-size="9">Fold up</text><rect x="340.2" y="430.9" width="56.7" height="8.5" fill="none"/><text transform="translate(352.855 437.411)" fill="#fff" font-family="Inter-Light" font-size="9">Fold up</text><line x1="127.6" y1="496.1" x2="127.6" y2="445.6" fill="none" stroke="#fff" stroke-width=".5" stroke-miterlimit="10"/><polygon points="129.6 447.2 129.2 447.6 127.6 445.8 125.9 447.6 125.5 447.2 127.6 445" fill="#fff"/><line x1="246.6" y1="496.1" x2="246.6" y2="445.6" fill="none" stroke="#fff" stroke-width=".5" stroke-miterlimit="10"/><polygon points="248.6 447.2 248.3 447.6 246.6 445.8 244.9 447.6 244.5 447.2 246.6 445" fill="#fff"/><g><line x1="368.6" y1="496.1" x2="368.6" y2="445.6" fill="none" stroke="#fff" stroke-width=".5" stroke-miterlimit="10"/><polygon points="370.6 447.2 370.2 447.6 368.6 445.8 366.9 447.6 366.5 447.2 368.6 445" fill="#fff"/></g></svg>