<?xml version="1.0" encoding="utf-8"?>
<!-- Generator: Adobe Illustrator 24.2.1, SVG Export Plug-In . SVG Version: 6.00 Build 0)  -->
<svg version="1.1" id="Layer_1" xmlns="http://www.w3.org/2000/svg" xmlns:xlink="http://www.w3.org/1999/xlink" x="0px" y="0px"
	 viewBox="0 0 496.1 496.1" style="enable-background:new 0 0 496.1 496.1;" xml:space="preserve">
<rect y="0" style="fill:#1D1A3C;" width="496.1" height="496.1"/>
<rect x="323.1" y="127.6" style="fill:none;" width="15.8" height="354.3"/>
<text transform="matrix(4.489659e-11 -1 1 4.489659e-11 330.6995 163.4989)" style="fill:#FFFFFF; font-family:'Lora-Italic'; font-size:10px;">Conflict</text>
<rect x="201.3" y="127.6" style="fill:none;" width="17" height="354.3"/>
<text transform="matrix(4.489659e-11 -1 1 4.489659e-11 208.8088 186.8485)" style="fill:#FFFFFF; font-family:'Lora-Italic'; font-size:10px;">Temperature</text>
<rect x="82.2" y="127.6" style="fill:none;" width="15.6" height="354.3"/>
<text transform="matrix(4.489659e-11 -1 1 4.489659e-11 89.7546 168.9486)" style="fill:#FFFFFF; font-family:'Lora-Italic'; font-size:10px;">Economy</text>
<g>
	<g>
		<line style="fill:none;stroke:#FFFFFF;stroke-width:0.5;stroke-miterlimit:10;" x1="155.8" y1="496.1" x2="155.8" y2="494.1"/>
		
			<line style="fill:none;stroke:#FFFFFF;stroke-width:0.5;stroke-miterlimit:10;stroke-dasharray:4.0055,4.0055;" x1="155.8" y1="490.1" x2="155.8" y2="131.6"/>
		<line style="fill:none;stroke:#FFFFFF;stroke-width:0.5;stroke-miterlimit:10;" x1="155.8" y1="129.6" x2="155.8" y2="127.6"/>
	</g>
</g>
<g>
	<g>
		<line style="fill:none;stroke:#FFFFFF;stroke-width:0.5;stroke-miterlimit:10;" x1="99.1" y1="127.6" x2="99.1" y2="129.6"/>
		
			<line style="fill:none;stroke:#FFFFFF;stroke-width:0.5;stroke-miterlimit:10;stroke-dasharray:4.0055,4.0055;" x1="99.1" y1="133.6" x2="99.1" y2="492.1"/>
		<line style="fill:none;stroke:#FFFFFF;stroke-width:0.5;stroke-miterlimit:10;" x1="99.1" y1="494.1" x2="99.1" y2="496.1"/>
	</g>
</g>
<g>
	<g>
		<line style="fill:none;stroke:#FFFFFF;stroke-width:0.5;stroke-miterlimit:10;" x1="396.8" y1="496.1" x2="396.8" y2="494.1"/>
		
			<line style="fill:none;stroke:#FFFFFF;stroke-width:0.5;stroke-miterlimit:10;stroke-dasharray:4.0055,4.0055;" x1="396.8" y1="490.1" x2="396.8" y2="131.6"/>
		<line style="fill:none;stroke:#FFFFFF;stroke-width:0.5;stroke-miterlimit:10;" x1="396.8" y1="129.6" x2="396.8" y2="127.6"/>
	</g>
</g>
<g>
	<g>
		<line style="fill:none;stroke:#FFFFFF;stroke-width:0.5;stroke-miterlimit:10;" x1="340.1" y1="127.6" x2="340.1" y2="129.6"/>
		
			<line style="fill:none;stroke:#FFFFFF;stroke-width:0.5;stroke-miterlimit:10;stroke-dasharray:4.0055,4.0055;" x1="340.1" y1="133.6" x2="340.1" y2="492.1"/>
		<line style="fill:none;stroke:#FFFFFF;stroke-width:0.5;stroke-miterlimit:10;" x1="340.1" y1="494.1" x2="340.1" y2="496.1"/>
	</g>
</g>
<g>
	<g>
		<line style="fill:none;stroke:#FFFFFF;stroke-width:0.5;stroke-miterlimit:10;" x1="275" y1="496.1" x2="275" y2="494.1"/>
		
			<line style="fill:none;stroke:#FFFFFF;stroke-width:0.5;stroke-miterlimit:10;stroke-dasharray:4.0055,4.0055;" x1="275" y1="490.1" x2="275" y2="131.6"/>
		<line style="fill:none;stroke:#FFFFFF;stroke-width:0.5;stroke-miterlimit:10;" x1="275" y1="129.6" x2="275" y2="127.6"/>
	</g>
</g>
<g>
	<g>
		<line style="fill:none;stroke:#FFFFFF;stroke-width:0.5;stroke-miterlimit:10;" x1="218.3" y1="127.6" x2="218.3" y2="129.6"/>
		
			<line style="fill:none;stroke:#FFFFFF;stroke-width:0.5;stroke-miterlimit:10;stroke-dasharray:4.0055,4.0055;" x1="218.3" y1="133.6" x2="218.3" y2="492.1"/>
		<line style="fill:none;stroke:#FFFFFF;stroke-width:0.5;stroke-miterlimit:10;" x1="218.3" y1="494.1" x2="218.3" y2="496.1"/>
	</g>
</g>
<line style="fill:none;stroke:#FFFFFF;stroke-width:0.5;stroke-miterlimit:10;" x1="99.2" y1="127.6" x2="155.9" y2="127.6"/>
<line style="fill:none;stroke:#FFFFFF;stroke-width:0.5;stroke-miterlimit:10;" x1="218.3" y1="127.6" x2="275" y2="127.6"/>
<line style="fill:none;stroke:#FFFFFF;stroke-width:0.5;stroke-miterlimit:10;" x1="340.2" y1="127.6" x2="396.9" y2="127.6"/>
<rect x="99.2" y="430.9" style="fill:none;" width="56.7" height="8.5"/>
<text transform="matrix(1 0 0 1 111.9104 437.4113)" style="fill:#FFFFFF; font-family:'Inter-Light'; font-size:9px;">Fold up</text>
<rect x="218.3" y="430.9" style="fill:none;" width="56.7" height="8.5"/>
<text transform="matrix(1 0 0 1 230.9655 437.4113)" style="fill:#FFFFFF; font-family:'Inter-Light'; font-size:9px;">Fold up</text>
<rect x="340.2" y="430.9" style="fill:none;" width="56.7" height="8.5"/>
<text transform="matrix(1 0 0 1 352.8553 437.4113)" style="fill:#FFFFFF; font-family:'Inter-Light'; font-size:9px;">Fold up</text>
<g>
	<g>
		<line style="fill:none;stroke:#FFFFFF;stroke-width:0.5;stroke-miterlimit:10;" x1="127.6" y1="496.1" x2="127.6" y2="445.6"/>
		<g>
			<polygon style="fill:#FFFFFF;" points="129.6,447.2 129.2,447.6 127.6,445.8 125.9,447.6 125.5,447.2 127.6,445 			"/>
		</g>
	</g>
</g>
<g>
	<g>
		<line style="fill:none;stroke:#FFFFFF;stroke-width:0.5;stroke-miterlimit:10;" x1="246.6" y1="496.1" x2="246.6" y2="445.6"/>
		<g>
			<polygon style="fill:#FFFFFF;" points="248.6,447.2 248.3,447.6 246.6,445.8 244.9,447.6 244.5,447.2 246.6,445 			"/>
		</g>
	</g>
</g>
<g>
	<g>
		<line style="fill:none;stroke:#FFFFFF;stroke-width:0.5;stroke-miterlimit:10;" x1="368.6" y1="496.1" x2="368.6" y2="445.6"/>
		<g>
			<polygon style="fill:#FFFFFF;" points="370.6,447.2 370.2,447.6 368.6,445.8 366.9,447.6 366.5,447.2 368.6,445 			"/>
		</g>
	</g>
</g>
</svg>
