<svg version="1.1" id="Layer_1" xmlns="http://www.w3.org/2000/svg" x="0" y="0" viewBox="0 0 40 48" xml:space="preserve"><style type="text/css">.st1,.st2{fill:none;stroke:#ff4f3c;stroke-width:1.5}.st2{stroke-linecap:round;stroke-linejoin:round}.st3{fill:#ff4f3c}</style><path d="M19.7 1.2l18.6 11.4-.2 24.1-18.8 9.5-18-12 .2-24.1 18.2-8.9z" fill="#000040"/><line class="st1" x1="1.5" y1="10.1" x2="19.6" y2="21.5"/><polyline class="st2" points="1.5 10.1 19.7 1.2 38.4 12.6"/><polyline class="st2" points="1.5 10.1 1.3 34.2 19.3 46.1"/><line class="st1" x1="19.6" y1="21.5" x2="38.4" y2="12.6"/><line class="st1" x1="19.6" y1="21.5" x2="19.3" y2="46.1"/><polyline class="st2" points="38.4 12.6 38.1 36.6 19.3 46.1"/><ellipse transform="matrix(.00897 -1 1 .00897 -11.677 39.653)" class="st3" cx="14.2" cy="25.7" rx="3.2" ry="2.1"/><ellipse transform="matrix(.00897 -1 1 .00897 -21.39 49.108)" class="st3" cx="14.1" cy="35.3" rx="3.2" ry="2.1"/><ellipse transform="matrix(.00897 -1 1 .00897 9.419 54.847)" class="st3" cx="32.4" cy="22.7" rx="3.2" ry="2.1"/><ellipse transform="matrix(.00897 -1 1 .00897 7.604 31.393)" class="st3" cx="19.6" cy="11.9" rx="2.1" ry="3.2"/><ellipse transform="matrix(.00897 -1 1 .00897 -7.704 61.007)" class="st3" cx="26.9" cy="34.4" rx="3.2" ry="2.1"/><ellipse transform="matrix(.00897 -1 1 .00897 -13.634 26.847)" class="st3" cx="6.7" cy="20.3" rx="3.2" ry="2.1"/><ellipse transform="rotate(-89.486 6.64 29.93) scale(1.00004)" class="st3" cx="6.6" cy="29.9" rx="3.2" ry="2.1"/></svg>