<svg width="66" height="66" viewBox="0 0 66 66" fill="none" xmlns="http://www.w3.org/2000/svg">
<rect x="8" width="50" height="50" rx="25" fill="#FF4F3C"/>
<path d="M18 35.1606V15H47V35.1606H18Z" stroke="white" stroke-width="2"/>
<path d="M32.5 15V35.5806" stroke="white" stroke-width="2"/>
<path d="M21.8384 20.4603H29.0884" stroke="white" stroke-width="2"/>
<path d="M35.9116 20.4603H43.1616" stroke="white" stroke-width="2"/>
<path d="M21.8384 25.0803H29.0884" stroke="white" stroke-width="2"/>
<path d="M35.9116 25.0803H43.1616" stroke="white" stroke-width="2"/>
<path d="M21.8384 30.1204H29.0884" stroke="white" stroke-width="2"/>
<path d="M35.9116 30.1204H43.1616" stroke="white" stroke-width="2"/>
<path d="M3.80905 63H4.79662V60.5231H6.13895C6.16132 60.5231 6.1805 60.5231 6.20287 60.5231L7.53241 63H8.65741L7.20642 60.3505C8.00862 60.0533 8.40812 59.3853 8.40812 58.5064C8.40812 57.3015 7.66025 56.4545 6.14214 56.4545H3.80905V63ZM4.79662 59.6729V57.3015H6.03667C7.01146 57.3015 7.41416 57.7649 7.41416 58.5064C7.41416 59.2447 7.01146 59.6729 6.04946 59.6729H4.79662ZM10.5098 63H14.6519V62.1499H11.4974V60.146H14.3994V59.299H11.4974V57.3047H14.6135V56.4545H10.5098V63ZM17.3856 63L17.9864 61.2678H20.5433L21.1409 63H22.1892L19.8337 56.4545H18.6928L16.3373 63H17.3856ZM18.2741 60.4368L19.2393 57.6435H19.2904L20.2556 60.4368H18.2741ZM26.1534 63C28.1477 63 29.3015 61.7631 29.3015 59.7177C29.3015 57.6818 28.1477 56.4545 26.2205 56.4545H24.0344V63H26.1534ZM25.022 62.1371V57.3175H26.1598C27.5916 57.3175 28.3299 58.174 28.3299 59.7177C28.3299 61.2678 27.5916 62.1371 26.0991 62.1371H25.022ZM34.7114 56.4545V63H35.651V58.2603H35.7117L37.6421 62.9904H38.422L40.3524 58.2635H40.4131V63H41.3527V56.4545H40.1542L38.0704 61.5426H37.9937L35.9099 56.4545H34.7114ZM49.3743 59.7273C49.3743 57.6339 48.1214 56.3651 46.4275 56.3651C44.7272 56.3651 43.4776 57.6339 43.4776 59.7273C43.4776 61.8175 44.7272 63.0895 46.4275 63.0895C48.1214 63.0895 49.3743 61.8207 49.3743 59.7273ZM48.3963 59.7273C48.3963 61.3221 47.5525 62.1882 46.4275 62.1882C45.2993 62.1882 44.4588 61.3221 44.4588 59.7273C44.4588 58.1325 45.2993 57.2663 46.4275 57.2663C47.5525 57.2663 48.3963 58.1325 48.3963 59.7273ZM51.5055 63H52.4931V60.5231H53.8354C53.8578 60.5231 53.877 60.5231 53.8993 60.5231L55.2289 63H56.3539L54.9029 60.3505C55.7051 60.0533 56.1046 59.3853 56.1046 58.5064C56.1046 57.3015 55.3567 56.4545 53.8386 56.4545H51.5055V63ZM52.4931 59.6729V57.3015H53.7332C54.7079 57.3015 55.1106 57.7649 55.1106 58.5064C55.1106 59.2447 54.7079 59.6729 53.7459 59.6729H52.4931ZM58.2063 63H62.3484V62.1499H59.1939V60.146H62.0959V59.299H59.1939V57.3047H62.31V56.4545H58.2063V63Z" fill="#FF4F3C"/>
</svg>
