<svg version="1.1" id="Layer_1" xmlns="http://www.w3.org/2000/svg" x="0" y="0" viewBox="0 0 75 34" xml:space="preserve"><style type="text/css">.st1{fill:#fff}</style><path d="M75 0H0v34h75V0z" fill="#000040"/><path class="st1" d="M11.4 13.4v.8c0 1.4-.6 2.1-1.9 2.1h-1c-1.3 0-1.9-.7-1.9-2.1V6c0-1.4.6-2.1 1.9-2.1h1c1.3 0 1.9.7 1.9 2.1v1.4H9.8V6.1c0-.5-.2-.7-.7-.7h-.4c-.4 0-.6.2-.6.7v8c0 .5.2.7.6.7h.4c.4 0 .6-.2.6-.7v-.7h1.7zM16.9 16.3H13V3.8h1.6v10.9h2.2l.1 1.6zM18.4 16.3V3.8H20v12.4h-1.6zM25 11.1l1.5-7.3h1.8v12.4h-1.6l.2-8.1-1.3 5.9h-1.2l-1.2-5.9.2 8.1h-1.6V3.8h1.8l1.4 7.3zM31.5 16.3h-1.6V6c0-1.4.6-2.1 1.9-2.1H33c1.3 0 1.9.7 1.9 2.1v10.3h-1.6v-4.6h-1.9v4.6zm1.8-6.1V6.1c0-.5-.2-.7-.7-.7h-.4c-.5 0-.7.2-.7.7v4.1h1.8zM38.8 5.4v10.9h-1.6V5.4h-1.6V3.8h4.7v1.5h-1.5zM41.3 16.3V3.8h4v1.5h-2.4v3.8H45v1.5h-2.1v4.1h2.4v1.5l-4 .1zM14 24.5L9.9 21v1.5s-2.4 0-4.2-2.1c-1-1.3-1.3-3-.9-4.7v-.2c0-.1-.1-.1-.1-.1h-.2c-.1 0-.1 0-.1.1-.8 1.1-1.4 2.9-1.3 4.5.2 2 .9 3.4 2.3 4.7 2 1.9 4.4 1.7 4.4 1.7v1.5l4.2-3.4zM15.2 30.3V18h1.6v12.3h-1.6zM21.7 23.9v-6h1.6v12.3h-1.6v-2.5L20 22.2v8.1h-1.6V18H20l1.7 5.9zM27.4 19.5v10.8h-1.6V19.5h-1.5V18H29v1.5h-1.6zM29.9 30.3V18h4v1.5h-2.4v3.7h2.1v1.5h-2.1v4.1h2.4v1.5h-4zM35 18h3.2c1.2 0 1.8.7 1.8 2.1v3c0 1.1-.3 1.8-1 2l1.1 5.1h-1.5l-1.1-5h-1v5H35V18zm1.6 5.9h1.1c.5 0 .7-.3.7-.9v-2.7c0-.6-.2-.9-.7-.9h-1.1v4.5zM42.9 30.3h-1.6V20.1c0-1.4.6-2.1 1.9-2.1h1.2c1.3 0 1.9.7 1.9 2.1v10.2h-1.6v-4.5h-1.8v4.5zm1.8-6v-4.1c0-.5-.2-.7-.7-.7h-.4c-.5 0-.7.2-.7.7v4.1h1.8zM52.6 27.4v.8c0 1.4-.6 2.1-1.9 2.1h-1c-1.3 0-1.9-.7-1.9-2.1v-8.1c0-1.4.6-2.1 1.9-2.1h1c1.3 0 1.9.7 1.9 2.1v1.4H51v-1.3c0-.5-.2-.7-.7-.7H50c-.4 0-.6.2-.6.7v7.9c0 .5.2.7.6.7h.4c.4 0 .6-.2.6-.7v-.7h1.6zM56.4 19.5v10.8h-1.6V19.5h-1.5V18H58v1.5h-1.6zM58.8 30.3V18h1.6v12.3h-1.6zM67.2 18l-1.9 12.3h-1.9l-2-12.3H63l1.3 9.4 1.3-9.4h1.6zM67.9 30.3h4v-1.5h-2.4v-4.1h2.1v-1.5h-2.1v-3.7h2.4V18h-4v12.3zM57.7 11.7c-.2-2-.9-3.4-2.3-4.7-2-1.9-4.4-1.7-4.4-1.7V3.8l-4.1 3.4 4.1 3.4V9.1s2.4 0 4.2 2.1c1 1.3 1.3 3 .9 4.7v.2c0 .1.1.1.1.1h.2c.1 0 .1 0 .1-.1.7-1.1 1.3-2.8 1.2-4.4z"/></svg>