<svg viewBox="0 0 30 30" fill="none" xmlns="http://www.w3.org/2000/svg"><path d="M13.958 1a.87.87 0 00-.483.18L2.346 9.734c-.004.005-.01.005-.01.01a.858.858 0 00-.323.836V22.43A2.58 2.58 0 004.583 25h18.84a2.58 2.58 0 002.564-2.57V10.585a.871.871 0 00-.263-.789l-.005-.004c-.014-.01-.028-.024-.042-.033a.122.122 0 00-.028-.024L14.516 1.18a.829.829 0 00-.558-.178zM14 2.938l9.741 7.494-6.844 5.337c-.051.042-.098.09-.14.14l-2.209-1.841a.86.86 0 00-1.092 0l-2.208 1.837a.83.83 0 00-.145-.14l-6.844-5.338L14 2.936zm10.27 9.255v9.975l-6.187-5.154 6.188-4.82zm-20.545.005l6.187 4.82-6.187 5.15v-9.97zm10.266 3.646l8.934 7.442H5.055l8.936-7.442z" fill="#fff"/></svg>