<svg xmlns="http://www.w3.org/2000/svg" width="419" height="751.76"><path fill="none" stroke="#FF4F3C" stroke-width="2" stroke-linecap="round" d="M321.12 138.25v25.2M312.88 142.19l18.36 18.37M312.09 160.12l17.3-17.31M307.76 150.85h26.57"/><path fill="none" stroke="#74FF57" stroke-width="2" stroke-linecap="round" d="M36.84 725.56v25.2M28.61 729.51l18.36 18.37M27.81 747.44l17.3-17.31M23.48 738.16h26.57"/><path fill="none" stroke="#FFF" stroke-width="2" stroke-linecap="round" d="M33.14 571.01v28.91M24.9 577.47l15.94 17.09M24.72 593.96l16.69-15.46M17.3 586.08h30.9"/><path fill="none" stroke="#FF4F3C" stroke-width="3" stroke-linecap="round" d="M27.78 110.36v38.34M15.26 116.38l27.91 27.94M14.08 143.63l26.28-26.31M7.51 129.53h40.35M392.39 592.57v38.35M379.87 598.59l27.92 27.95M378.69 625.84l26.28-26.31M372.12 611.75h40.35"/><path fill="none" stroke="#FFF" stroke-width="3" stroke-linecap="round" d="M206.87 1.5v48.93M192.96 12.54l27.02 28.96M192.91 40.25l28.03-25.97M180.45 27h51.91M210.58 672.89v48.94M196.66 683.93l27.03 28.97M196.62 711.65l28.03-25.97M184.16 698.4h51.91"/><circle fill="#FFF" cx="104.44" cy="83.46" r="4.33"/><circle fill="#FFF" cx="414.67" cy="445.74" r="4.33"/><circle fill="#FFF" cx="345.46" cy="45.13" r="4.33"/><circle fill="#FFF" cx="4.33" cy="16.69" r="4.33"/><circle fill="#74FF57" cx="305.29" cy="625.65" r="6.18"/><circle fill="#FFF" cx="334.33" cy="742.49" r="4.33"/></svg>