<svg xmlns="http://www.w3.org/2000/svg" viewBox="0 0 419 751.76"><path fill="none" stroke="#FF4F3C" stroke-width="2" stroke-linecap="round" d="M321.12 138.25v25.2m-8.24-21.26l18.36 18.37m-19.15-.44l17.3-17.31m-21.63 8.04h26.57"/><path fill="none" stroke="#74FF57" stroke-width="2" stroke-linecap="round" d="M36.84 725.56v25.2m-8.23-21.25l18.36 18.37m-19.16-.44l17.3-17.31m-21.63 8.03h26.57"/><path fill="none" stroke="#FFF" stroke-width="2" stroke-linecap="round" d="M33.14 571.01v28.91m-8.24-22.45l15.94 17.09m-16.12-.6l16.69-15.46m-24.11 7.58h30.9"/><path fill="none" stroke="#FF4F3C" stroke-width="3" stroke-linecap="round" d="M27.78 110.36v38.34m-12.52-32.32l27.91 27.94m-29.09-.69l26.28-26.31M7.51 129.53h40.35m344.53 463.04v38.35m-12.52-32.33l27.92 27.95m-29.1-.7l26.28-26.31m-32.85 12.22h40.35"/><path fill="none" stroke="#FFF" stroke-width="3" stroke-linecap="round" d="M206.87 1.5v48.93m-13.91-37.89l27.02 28.96m-27.07-1.25l28.03-25.97M180.45 27h51.91m-21.78 645.89v48.94m-13.92-37.9l27.03 28.97m-27.07-1.25l28.03-25.97m-40.49 12.72h51.91"/><circle fill="#FFF" cx="104.44" cy="83.46" r="4.33"/><circle fill="#FFF" cx="414.67" cy="445.74" r="4.33"/><circle fill="#FFF" cx="345.46" cy="45.13" r="4.33"/><circle fill="#FFF" cx="4.33" cy="16.69" r="4.33"/><circle fill="#74FF57" cx="305.29" cy="625.65" r="6.18"/><circle fill="#FFF" cx="334.33" cy="742.49" r="4.33"/></svg>