<?xml version="1.0" encoding="utf-8"?>
<!-- Generator: Adobe Illustrator 23.0.4, SVG Export Plug-In . SVG Version: 6.00 Build 0)  -->
<svg version="1.1" id="Layer_1" xmlns="http://www.w3.org/2000/svg" xmlns:xlink="http://www.w3.org/1999/xlink" x="0px" y="0px"
	 viewBox="0 0 1190.16 526.21" style="enable-background:new 0 0 1190.16 526.21;" xml:space="preserve">
<style type="text/css">
	.st0{fill:#004992;}
	.st1{fill:#FFFFFF;}
	.st2{fill:#FCB412;}
</style>
<rect x="-0.9" y="0" class="st0" width="1190.16" height="526.21"/>
<path class="st1" d="M179.82,206.77v12.32c0,21.78-10.26,32.67-30.8,32.67h-16.59c-20.53,0-30.78-10.89-30.78-32.67V92.19
	c0-21.79,10.24-32.69,30.78-32.69h16.59c20.53,0,30.8,10.9,30.8,32.69v21.69h-25.7V94.07c0-7.49-3.83-11.25-11.52-11.25h-5.08
	c-6.77,0-10.18,3.76-10.18,11.25v123.15c0,7.5,3.4,11.25,10.18,11.25h6.42c6.8,0,10.18-3.74,10.18-11.25v-10.44h25.7V206.77z"/>
<path class="st1" d="M266.63,251.77h-61.05V59.51h25.71v168.95h35.33v23.31H266.63z"/>
<path class="st1" d="M290.57,251.77V59.51h25.69v192.26H290.57z"/>
<path class="st1" d="M395.69,172.51l23.84-113h28.39v192.26H422.2l2.67-125.85l-19.26,91.05h-19.82l-19.29-91.05l2.69,125.85h-25.7
	V59.51h28.38L395.69,172.51z"/>
<path class="st1" d="M498.55,251.77h-25.71V92.45c0-21.95,10.27-32.95,30.78-32.95h19.31c20.5,0,30.78,11,30.78,32.95v159.31H528
	v-70.42h-29.45V251.77z M528,158.05V94.07c0-7.49-3.74-11.25-11.24-11.25h-6.97c-7.49,0-11.24,3.76-11.24,11.25v63.98H528z"/>
<path class="st1" d="M615.26,82.82v168.95h-25.69V82.82h-24.64V59.51h74.97v23.31H615.26z"/>
<path class="st1" d="M653.77,251.77V59.51h63.73v23.31h-38.03v58.38h33.73v23.28h-33.73v63.98h38.03v23.3h-63.73V251.77z"/>
<g>
	<path class="st1" d="M85.15,381.69c-21.37-19.04-33.23-40.73-36.2-72.07c-2.39-25.22,6.72-51.94,19.04-69.51
		c2.41-3.44,7.79-0.94,6.79,3.14c-6.32,25.58-2.02,52.59,14.53,72.6c27.61,33.38,66.28,32.89,66.28,32.89
		c13.88,1.45,36.01,25,33.26,37.22l-1.11,4.94c-2.67,11.85-17.99,16.47-32.15,17.34C155.59,408.24,117.33,410.36,85.15,381.69z"/>
	<g>
		<polygon class="st1" points="155.59,431.87 155.59,325.12 221.13,378.49 		"/>
	</g>
</g>
<path class="st2" d="M241.06,469.16V278.11h25.57v191.05H241.06z"/>
<path class="st2" d="M343.53,370.44V278.1h25.54v191.06h-25.54v-38.05l-27.42-87v125.05h-25.54V278.11h25.54L343.53,370.44z"/>
<path class="st2" d="M433.72,301.26v167.9h-25.54v-167.9h-24.49v-23.15h74.53v23.15H433.72z"/>
<path class="st2" d="M472.84,469.16V278.11h63.32v23.15h-37.77v58.01h33.52v23.14h-33.52v63.58h37.77v23.16h-63.32V469.16z"/>
<path class="st2" d="M554.52,278.11h50.02c19.52,0,29.3,10.92,29.3,32.75v47.1c0,16.65-5.08,27.21-15.18,31.64l17.83,79.56h-24.21
	l-16.75-77.17h-15.44v77.17h-25.55V278.11H554.52z M580.07,370.18h16.76c7.64,0,11.45-4.62,11.45-13.85V315.1
	c0-9.23-3.81-13.84-11.45-13.84h-16.76V370.18z"/>
<path class="st2" d="M679.32,469.16h-25.55v-158.3c0-21.83,10.21-32.75,30.6-32.75h19.15c20.41,0,30.61,10.92,30.61,32.75v158.3
	h-25.55v-69.98h-29.27v69.98H679.32z M708.58,376.04v-63.59c0-7.46-3.71-11.19-11.17-11.19h-6.92c-7.45,0-11.18,3.73-11.18,11.19
	v63.59H708.58z"/>
<path class="st2" d="M833.12,424.46v12.22c0,21.64-10.2,32.47-30.6,32.47h-16.5c-20.39,0-30.6-10.83-30.6-32.47V310.59
	c0-21.66,10.21-32.48,30.6-32.48h16.5c20.41,0,30.6,10.83,30.6,32.48v21.54h-25.56v-19.68c0-7.46-3.82-11.19-11.44-11.19h-5.05
	c-6.73,0-10.11,3.73-10.11,11.19v122.37c0,7.47,3.39,11.18,10.11,11.18h6.4c6.73,0,10.1-3.71,10.1-11.18v-10.36H833.12z"/>
<path class="st2" d="M893.79,301.26v167.9h-25.56v-167.9h-24.47v-23.15h74.52v23.15H893.79z"/>
<path class="st2" d="M932.9,469.16V278.11h25.53v191.05H932.9z"/>
<path class="st2" d="M1065.15,278.11l-30.88,191.05h-30.34l-30.86-191.05h25.28l20.76,145.79l20.75-145.79L1065.15,278.11
	L1065.15,278.11z"/>
<polygon class="st2" points="1077.1,469.16 1140.43,469.16 1140.43,446 1102.66,446 1102.66,382.41 1136.2,382.41 1136.2,359.27 
	1102.66,359.27 1102.66,301.26 1140.43,301.26 1140.43,278.11 1077.1,278.11 "/>
<path class="st2" d="M877.95,108.54c21.37,19.04,33.23,40.73,36.2,72.07c2.39,25.22-6.72,51.94-19.04,69.51
	c-2.41,3.44-7.79,0.94-6.79-3.14c6.32-25.58,2.02-52.59-14.53-72.6c-27.61-33.38-66.28-32.89-66.28-32.89
	c-13.88-1.45-36.01-25-33.26-37.22l1.11-4.94c2.67-11.85,17.99-16.47,32.15-17.34C807.51,81.99,845.76,79.87,877.95,108.54z"/>
<g>
	<polygon class="st2" points="807.51,58.36 807.51,165.11 741.97,111.74 	"/>
</g>
</svg>
