<svg width="30" height="30" viewBox="0 0 30 30" fill="none" xmlns="http://www.w3.org/2000/svg">
<path d="M13.9578 1.00094C13.7844 1.01034 13.6156 1.07142 13.475 1.17948L2.34632 9.73513C2.34163 9.73983 2.33695 9.73983 2.33695 9.74453C2.07912 9.94186 1.95724 10.2613 2.01349 10.5808V22.43C2.01349 23.8395 3.17136 25 4.58237 25H23.4223C24.8287 25 25.9865 23.8395 25.9865 22.43V10.5855C26.0381 10.2942 25.9397 9.99824 25.724 9.79621C25.724 9.79621 25.724 9.79621 25.7193 9.79151C25.7053 9.78212 25.6912 9.76802 25.6771 9.75862C25.6678 9.74923 25.6584 9.73983 25.649 9.73513L14.5157 1.17948C14.3563 1.05262 14.1594 0.991544 13.9578 1.00094ZM14 2.93665L23.7411 10.4305L16.897 15.7678C16.8455 15.8101 16.7986 15.8571 16.7564 15.9087L14.5485 14.067C14.3938 13.9401 14.1969 13.8697 14 13.8697C13.8031 13.8697 13.6109 13.9401 13.4562 14.067L11.2483 15.904C11.2061 15.8524 11.1593 15.8054 11.103 15.7631L4.25892 10.4258L14 2.93665ZM24.2708 12.1924V22.1669L18.083 17.0128L24.2708 12.1924ZM3.72451 12.1971L9.91232 17.0175L3.72451 22.1669V12.1971ZM13.9906 15.843L22.9254 23.2851H5.05583L13.9906 15.843Z" fill="white"/>
</svg>
