<?xml version="1.0" encoding="utf-8"?>
<!-- Generator: Adobe Illustrator 25.2.3, SVG Export Plug-In . SVG Version: 6.00 Build 0)  -->
<svg version="1.1" id="Layer_1" xmlns="http://www.w3.org/2000/svg" xmlns:xlink="http://www.w3.org/1999/xlink" x="0px" y="0px"
	 viewBox="0 0 40 48" style="enable-background:new 0 0 40 48;" xml:space="preserve">
<style type="text/css">
	.st0{fill:#000040;}
	.st1{fill:none;stroke:#FF4F3C;stroke-width:1.5;}
	.st2{fill:none;stroke:#FF4F3C;stroke-width:1.5;stroke-linecap:round;stroke-linejoin:round;}
	.st3{fill:#FF4F3C;}
</style>
<path class="st0" d="M19.7,1.2l18.6,11.4l-0.2,24.1l-18.8,9.5L1.3,34.2l0.2-24.1L19.7,1.2z"/>
<line class="st1" x1="1.5" y1="10.1" x2="19.6" y2="21.5"/>
<polyline class="st2" points="1.5,10.1 19.7,1.2 38.4,12.6 "/>
<polyline class="st2" points="1.5,10.1 1.3,34.2 19.3,46.1 "/>
<line class="st1" x1="19.6" y1="21.5" x2="38.4" y2="12.6"/>
<line class="st1" x1="19.6" y1="21.5" x2="19.3" y2="46.1"/>
<polyline class="st2" points="38.4,12.6 38.1,36.6 19.3,46.1 "/>
<ellipse transform="matrix(8.971832e-03 -1 1 8.971832e-03 -11.6769 39.6533)" class="st3" cx="14.2" cy="25.7" rx="3.2" ry="2.1"/>
<ellipse transform="matrix(8.971965e-03 -1 1 8.971965e-03 -21.3891 49.1075)" class="st3" cx="14.1" cy="35.3" rx="3.2" ry="2.1"/>
<ellipse transform="matrix(8.971832e-03 -1 1 8.971832e-03 9.4188 54.8471)" class="st3" cx="32.4" cy="22.7" rx="3.2" ry="2.1"/>
<ellipse transform="matrix(8.972602e-03 -1 1 8.972602e-03 7.6045 31.3926)" class="st3" cx="19.6" cy="11.9" rx="2.1" ry="3.2"/>
<ellipse transform="matrix(8.971832e-03 -1 1 8.971832e-03 -7.7043 61.0069)" class="st3" cx="26.9" cy="34.4" rx="3.2" ry="2.1"/>
<ellipse transform="matrix(8.971832e-03 -1 1 8.971832e-03 -13.6344 26.8469)" class="st3" cx="6.7" cy="20.3" rx="3.2" ry="2.1"/>
<ellipse transform="matrix(8.971899e-03 -1 1 8.971899e-03 -23.3466 36.3012)" class="st3" cx="6.6" cy="29.9" rx="3.2" ry="2.1"/>
</svg>
