<?xml version="1.0" encoding="UTF-8" standalone="no"?>
<svg
   xmlns:dc="http://purl.org/dc/elements/1.1/"
   xmlns:cc="http://creativecommons.org/ns#"
   xmlns:rdf="http://www.w3.org/1999/02/22-rdf-syntax-ns#"
   xmlns:svg="http://www.w3.org/2000/svg"
   xmlns="http://www.w3.org/2000/svg"
   viewBox="0 0 903.69336 96.053329"
   height="96.053329"
   width="903.69336"
   xml:space="preserve"
   id="svg2"
   version="1.1"><metadata
     id="metadata8"><rdf:RDF><cc:Work
         rdf:about=""><dc:format>image/svg+xml</dc:format><dc:type
           rdf:resource="http://purl.org/dc/dcmitype/StillImage" /></cc:Work></rdf:RDF></metadata><defs
     id="defs6"><clipPath
       id="clipPath20"
       clipPathUnits="userSpaceOnUse"><path
         id="path18"
         d="M 0,0 H 6777.67 V 720 H 0 Z" /></clipPath></defs><g
     transform="matrix(1.3333333,0,0,-1.3333333,0,96.053333)"
     id="g10"><g
       transform="scale(0.1)"
       id="g12"><g
         id="g14"><g
           clip-path="url(#clipPath20)"
           id="g16"><path
             id="path22"
             style="fill:#244ba6;fill-opacity:1;fill-rule:nonzero;stroke:none"
             d="m 1048.2,632.578 c 0,44.531 -0.84,51.668 -25.62,53.77 l -10.51,0.84 c -2.51,1.679 -1.68,9.238 0.84,10.496 21.01,-0.84 35.29,-1.258 52.93,-1.258 16.81,0 31.09,0.418 52.09,1.258 2.52,-1.258 3.36,-8.817 0.84,-10.496 l -10.5,-0.84 c -24.78,-2.102 -25.62,-9.239 -25.62,-53.77 V 483.027 c 0,-44.519 0.84,-50.41 25.62,-53.347 l 10.5,-1.262 c 2.52,-1.68 1.68,-9.238 -0.84,-10.496 -21,0.84 -35.28,1.258 -52.09,1.258 -17.64,0 -31.92,-0.418 -52.93,-1.258 -2.52,1.258 -3.35,7.976 -0.84,10.496 l 10.51,1.262 c 24.78,2.937 25.62,8.828 25.62,53.347 v 149.551" /><path
             id="path24"
             style="fill:#244ba6;fill-opacity:1;fill-rule:nonzero;stroke:none"
             d="m 1376.12,480.371 c 0,-10.801 0,-53.633 1.08,-62.988 -0.72,-2.16 -2.88,-3.965 -6.84,-3.965 -4.32,6.121 -14.76,18.719 -46.07,54.355 l -83.51,95.032 c -9.72,11.16 -34.2,40.672 -41.76,48.59 h -0.71 c -1.45,-4.317 -1.81,-12.594 -1.81,-23.399 v -78.465 c 0,-16.926 0.73,-63.711 6.48,-74.511 2.52,-3.965 9.36,-6.125 18.36,-6.844 l 11.16,-1.078 c 2.16,-2.879 1.8,-7.196 -0.72,-9 -16.2,0.718 -28.8,1.082 -42.11,1.082 -15.12,0 -24.84,-0.364 -37.44,-1.082 -2.52,1.804 -2.88,6.843 -0.72,9 l 9.72,1.078 c 8.28,0.719 14.04,3.238 15.83,7.207 5.04,12.957 4.69,56.863 4.69,74.148 v 104.024 c 0,10.078 -0.36,17.636 -7.92,25.918 -5.04,5.039 -13.68,7.558 -22.32,8.64 l -6.12,0.715 c -2.16,2.156 -2.16,7.559 0.72,9.004 15.12,-1.086 34.2,-1.086 40.68,-1.086 5.75,0 11.88,0.363 16.55,1.086 7.2,-18.359 50.04,-65.879 61.56,-79.191 l 34.91,-39.239 c 24.48,-28.074 42.47,-47.871 59.39,-65.156 h 0.73 c 1.43,1.809 1.43,7.57 1.43,15.129 v 77.02 c 0,16.925 -0.35,63.722 -7.2,74.511 -2.15,3.242 -7.92,5.403 -22.31,7.207 l -6.12,0.715 c -2.52,2.156 -2.16,7.918 0.72,9.004 16.56,-0.723 28.79,-1.086 42.47,-1.086 15.48,0 24.84,0.363 37.08,1.086 2.88,-1.809 2.88,-6.848 0.72,-9.004 l -5.04,-0.715 c -11.52,-1.804 -18.72,-4.687 -20.16,-7.558 -6.12,-12.957 -5.4,-57.594 -5.4,-74.16 v -86.024" /><path
             id="path26"
             style="fill:#244ba6;fill-opacity:1;fill-rule:nonzero;stroke:none"
             d="m 1498.9,413.418 c -30.24,0 -49.32,9.363 -56.16,13.32 -4.31,7.918 -9,33.477 -9.71,50.391 1.8,2.519 7.19,3.242 8.63,1.086 5.4,-18.363 20.16,-53.637 61.92,-53.637 30.23,0 44.99,19.797 44.99,41.399 0,15.839 -3.24,33.476 -29.51,50.39 l -34.2,22.313 c -18,11.886 -38.87,32.406 -38.87,61.918 0,34.195 26.63,61.91 73.42,61.91 11.17,0 24.12,-1.797 33.48,-4.676 4.68,-1.086 9.72,-2.16 12.6,-2.16 3.24,-8.641 6.48,-28.797 6.48,-43.914 -1.44,-2.16 -7.2,-3.242 -9,-1.082 -4.68,17.273 -14.4,40.672 -48.95,40.672 -35.28,0 -42.84,-23.399 -42.84,-39.953 0,-20.879 17.28,-35.633 30.6,-44.278 l 28.8,-17.996 c 22.67,-14.031 44.99,-34.91 44.99,-69.109 0,-39.59 -29.88,-66.594 -76.67,-66.594" /><path
             id="path28"
             style="fill:#244ba6;fill-opacity:1;fill-rule:nonzero;stroke:none"
             d="m 1726.77,473.176 c 0,-37.793 0.72,-42.832 21.6,-45 l 11.52,-1.078 c 2.16,-1.446 1.44,-7.918 -0.73,-9 -20.51,0.718 -32.75,1.082 -47.15,1.082 -14.39,0 -27,-0.364 -50.03,-1.082 -2.16,1.082 -2.88,7.207 0,9 l 12.96,1.078 c 20.51,1.804 22.32,7.207 22.32,45 V 634.07 c 0,11.164 0,11.524 -10.81,11.524 h -19.79 c -15.48,0 -35.28,-0.723 -44.28,-9.004 -8.64,-7.918 -12.23,-15.84 -16.19,-24.832 -2.88,-2.16 -7.92,-0.363 -9.36,2.519 5.76,16.192 11.16,39.227 13.68,53.633 1.08,0.723 5.75,1.074 6.83,0 2.17,-11.523 14.04,-11.164 30.6,-11.164 h 145.78 c 19.44,0 22.68,0.723 28.08,10.078 1.8,0.723 5.76,0.364 6.48,-1.074 -3.96,-14.766 -6.48,-43.914 -5.4,-54.715 -1.44,-2.883 -7.56,-2.883 -9.36,-0.722 -1.08,9.003 -3.6,22.324 -9,26.277 -8.28,6.125 -21.96,9.004 -41.75,9.004 h -25.56 c -10.8,0 -10.44,-0.36 -10.44,-12.246 V 473.176" /><path
             id="path30"
             style="fill:#244ba6;fill-opacity:1;fill-rule:nonzero;stroke:none"
             d="m 1877.98,602.039 c 0,38.156 -0.72,44.27 -21.96,46.074 l -9,0.715 c -2.16,1.445 -1.44,7.918 0.72,9.004 18,-0.723 30.24,-1.086 45.36,-1.086 14.39,0 26.63,0.363 44.63,1.086 2.16,-1.086 2.88,-7.559 0.72,-9.004 l -9,-0.715 c -21.24,-1.804 -21.96,-7.918 -21.96,-46.074 V 473.895 c 0,-38.153 0.72,-43.192 21.96,-45.719 l 9,-1.078 c 2.16,-1.446 1.44,-7.918 -0.72,-9 -18,0.718 -30.24,1.082 -44.63,1.082 -15.12,0 -27.36,-0.364 -45.36,-1.082 -2.16,1.082 -2.88,6.843 -0.72,9 l 9,1.078 c 21.24,2.527 21.96,7.566 21.96,45.719 v 128.144" /><path
             id="path32"
             style="fill:#244ba6;fill-opacity:1;fill-rule:nonzero;stroke:none"
             d="m 2086.04,473.176 c 0,-37.793 0.73,-42.832 21.6,-45 l 11.52,-1.078 c 2.16,-1.446 1.44,-7.918 -0.72,-9 -20.52,0.718 -32.75,1.082 -47.15,1.082 -14.4,0 -27,-0.364 -50.04,-1.082 -2.15,1.082 -2.88,7.207 0,9 l 12.96,1.078 c 20.52,1.804 22.32,7.207 22.32,45 V 634.07 c 0,11.164 0,11.524 -10.8,11.524 h -19.8 c -15.48,0 -35.27,-0.723 -44.27,-9.004 -8.64,-7.918 -12.24,-15.84 -16.2,-24.832 -2.88,-2.16 -7.92,-0.363 -9.36,2.519 5.76,16.192 11.16,39.227 13.68,53.633 1.08,0.723 5.76,1.074 6.84,0 2.16,-11.523 14.04,-11.164 30.6,-11.164 H 2153 c 19.44,0 22.67,0.723 28.07,10.078 1.81,0.723 5.77,0.364 6.48,-1.074 -3.96,-14.766 -6.48,-43.914 -5.4,-54.715 -1.44,-2.883 -7.56,-2.883 -9.35,-0.722 -1.09,9.003 -3.61,22.324 -9,26.277 -8.28,6.125 -21.96,9.004 -41.76,9.004 h -25.56 c -10.79,0 -10.44,-0.36 -10.44,-12.246 V 473.176" /><path
             id="path34"
             style="fill:#244ba6;fill-opacity:1;fill-rule:nonzero;stroke:none"
             d="m 2408.95,566.395 c 0,22.328 -0.72,63.722 -6.84,74.511 -2.52,4.328 -9,6.848 -17.99,7.559 l -9,0.723 c -2.17,2.519 -1.44,7.199 0.71,8.644 13.68,-0.723 27,-1.086 41.04,-1.086 15.12,0 24.84,0.363 37.8,1.086 2.87,-1.809 2.52,-6.484 0.72,-8.644 l -8.64,-0.723 c -9,-0.711 -16.2,-3.953 -18,-8.633 -5.4,-11.883 -5.04,-53.269 -5.04,-73.437 v -40.672 c 0,-31.309 -5.04,-64.422 -25.2,-86.028 -15.47,-16.914 -42.11,-26.277 -68.75,-26.277 -24.83,0 -49.67,4.68 -67.31,19.805 -19.08,15.832 -28.08,42.109 -28.08,84.941 v 84.949 c 0,37.442 -0.72,43.555 -21.59,45.352 l -9,0.723 c -2.16,1.445 -1.44,7.558 0.72,8.644 17.99,-0.723 30.23,-1.086 44.63,-1.086 14.76,0 26.64,0.363 44.28,1.086 2.16,-1.086 2.87,-7.199 0.72,-8.644 l -8.64,-0.723 c -20.88,-1.797 -21.6,-7.91 -21.6,-45.352 v -77.742 c 0,-57.961 18,-96.113 73.07,-96.113 52.19,0 71.99,41.035 71.99,95.754 v 41.383" /><path
             id="path36"
             style="fill:#244ba6;fill-opacity:1;fill-rule:nonzero;stroke:none"
             d="m 2592.2,473.176 c 0,-37.793 0.71,-42.832 21.59,-45 l 11.52,-1.078 c 2.16,-1.446 1.44,-7.918 -0.72,-9 -20.51,0.718 -32.75,1.082 -47.15,1.082 -14.4,0 -27,-0.364 -50.03,-1.082 -2.17,1.082 -2.88,7.207 0,9 l 12.96,1.078 c 20.51,1.804 22.31,7.207 22.31,45 V 634.07 c 0,11.164 0,11.524 -10.8,11.524 h -19.8 c -15.47,0 -35.27,-0.723 -44.27,-9.004 -8.64,-7.918 -12.24,-15.84 -16.2,-24.832 -2.88,-2.16 -7.92,-0.363 -9.35,2.519 5.75,16.192 11.15,39.227 13.67,53.633 1.08,0.723 5.76,1.074 6.84,0 2.16,-11.523 14.04,-11.164 30.6,-11.164 h 145.78 c 19.44,0 22.68,0.723 28.08,10.078 1.79,0.723 5.75,0.364 6.48,-1.074 -3.96,-14.766 -6.48,-43.914 -5.4,-54.715 -1.45,-2.883 -7.56,-2.883 -9.37,-0.722 -1.07,9.003 -3.59,22.324 -8.99,26.277 -8.28,6.125 -21.96,9.004 -41.76,9.004 h -25.55 c -10.8,0 -10.44,-0.36 -10.44,-12.246 V 473.176" /><path
             id="path38"
             style="fill:#244ba6;fill-opacity:1;fill-rule:nonzero;stroke:none"
             d="m 2743.4,602.754 c 0,37.441 -0.72,42.84 -21.96,45.359 l -5.75,0.715 c -2.16,1.445 -1.44,7.918 0.72,9.004 15.48,-0.723 27.72,-1.086 42.47,-1.086 h 67.68 c 23.03,0 44.26,0 48.59,1.086 2.16,-6.125 4.32,-32.043 5.75,-47.883 -1.43,-2.156 -7.19,-2.871 -8.99,-0.711 -5.4,16.914 -8.64,29.512 -27.35,34.188 -7.56,1.808 -19.09,2.168 -34.93,2.168 h -25.91 c -10.8,0 -10.8,-0.723 -10.8,-14.403 v -71.992 c 0,-10.078 1.08,-10.078 11.88,-10.078 h 20.88 c 15.12,0 26.28,0.723 30.59,2.156 4.32,1.446 6.84,3.606 8.64,12.602 l 2.88,14.762 c 1.8,2.16 7.92,2.16 9.36,-0.36 0,-8.644 -1.44,-22.676 -1.44,-36.355 0,-12.961 1.44,-26.645 1.44,-34.555 -1.44,-2.519 -7.56,-2.519 -9.36,-0.359 l -3.23,14.035 c -1.45,6.48 -3.97,11.883 -11.17,13.68 -5.04,1.433 -13.68,1.796 -27.71,1.796 h -20.88 c -10.8,0 -11.88,-0.363 -11.88,-9.718 v -50.75 c 0,-19.082 1.08,-31.321 6.84,-37.442 4.32,-4.316 11.88,-8.269 43.55,-8.269 27.72,0 38.16,1.433 46.08,5.398 6.47,3.594 16.2,16.192 25.56,34.91 2.52,1.797 7.55,0.727 8.99,-2.515 -2.52,-12.602 -11.51,-40.317 -16.19,-50.039 -32.4,0.718 -64.44,1.082 -96.48,1.082 h -32.39 c -15.48,0 -27.71,-0.364 -48.95,-1.082 -2.16,1.082 -2.88,6.843 -0.72,9 l 11.88,1.078 c 20.52,1.804 22.31,7.207 22.31,45 v 129.578" /><path
             id="path40"
             style="fill:#244ba6;fill-opacity:1;fill-rule:nonzero;stroke:none"
             d="m 3074.75,547.684 c -2.16,-6.121 -5.04,-17.633 -8.29,-28.438 -11.52,-39.949 -21.96,-79.91 -33.83,-119.5 -10.08,-32.402 -20.88,-52.191 -28.44,-59.027 -4.32,-4.328 -19.8,-18.36 -41.04,-18.36 -16.55,0 -23.39,12.235 -23.39,18.36 0,7.918 4.32,11.144 6.84,12.953 5.04,4.316 7.56,1.433 10.44,-3.242 5.04,-8.278 14.39,-13.317 21.59,-13.317 6.49,0 15.12,5.403 22.68,29.867 18.36,60.118 30.24,122.032 47.52,180.704 h -29.89 c -3.59,3.246 -2.15,10.078 2.53,13.324 h 30.95 c 9.37,32.39 18.72,60.465 39.96,85.66 18,21.242 39.23,29.875 60.47,29.875 15.12,0 29.52,-9.355 29.52,-23.75 0,-11.164 -9.72,-22.324 -15.48,-22.324 -3.24,0 -4.67,3.242 -5.04,5.761 -1.08,21.602 -12.59,28.075 -21.96,28.075 -10.44,0 -19.43,-7.196 -28.07,-19.434 -16.92,-24.121 -24.12,-53.269 -33.84,-83.863 h 45 c 2.52,-3.969 1.79,-9.367 -3.61,-13.324 h -44.62" /><path
             id="path42"
             style="fill:#244ba6;fill-opacity:1;fill-rule:nonzero;stroke:none"
             d="m 3162.94,537.969 c -20.88,-28.078 -34.91,-70.918 -36,-89.992 -0.72,-12.594 4.32,-23.036 14.76,-23.036 7.92,0 16.92,3.235 28.44,18.711 15.84,21.239 32.75,68.758 33.47,87.832 0.36,11.161 -1.79,23.758 -14.39,23.758 -7.21,0 -15.84,-3.238 -26.28,-17.273 z m 65.51,-17.285 c -1.08,-19.797 -11.52,-54.344 -38.16,-81.711 -22.31,-23.035 -41.75,-24.832 -51.47,-24.832 -23.04,0 -38.16,16.914 -36,47.871 1.45,22.324 14.77,57.234 39.24,80.633 18.72,18 34.91,23.402 49.68,23.402 25.55,0 38.15,-19.082 36.71,-45.363" /><path
             id="path44"
             style="fill:#244ba6;fill-opacity:1;fill-rule:nonzero;stroke:none"
             d="m 3308.38,531.848 -15.48,-45.356 h 1.8 c 10.8,20.156 28.43,48.957 37.79,60.832 8.28,10.801 17.28,18.723 26.28,18.723 12.6,0 14.39,-12.246 14.39,-17.641 0,-5.398 -3.23,-15.84 -7.56,-21.601 -4.31,-5.399 -10.07,-5.758 -11.51,1.797 -1.8,9.367 -3.96,14.043 -7.56,14.043 -3.24,0 -7.19,-3.602 -12.6,-10.797 -21.96,-28.078 -42.11,-71.996 -61.19,-113.391 -1.44,-2.883 -3.24,-4.316 -6.12,-4.316 -3.95,0 -14.39,1.433 -11.87,9.355 4.67,14.402 27.35,78.113 37.07,113.391 1.08,3.953 0.36,7.554 -2.89,7.554 -9.35,0 -19.07,-10.078 -25.55,-18.718 -3.6,-0.711 -6.11,1.445 -5.76,5.761 11.52,19.446 25.2,34.563 42.48,34.563 18,0 11.51,-24.484 8.28,-34.199" /><path
             id="path46"
             style="fill:#244ba6;fill-opacity:1;fill-rule:nonzero;stroke:none"
             d="m 3501.83,667.441 c 30.66,23.946 69.74,35.711 113.42,35.711 22.68,0 54.61,-4.629 74.35,-10.086 5.04,-1.261 7.98,-2.101 11.76,-1.679 0.42,-9.66 2.52,-36.125 5.89,-61.75 -2.11,-2.938 -8.41,-3.36 -11.35,-0.84 -6.3,28.566 -25.2,61.328 -86.11,61.328 -64.27,0 -118.88,-40.742 -118.88,-127.703 0,-88.211 55.87,-136.945 124.76,-136.945 54.19,0 78.13,35.293 87.79,60.07 2.95,2.109 9.25,1.269 10.93,-1.68 -2.94,-21.836 -13.87,-49.562 -20.17,-57.551 -5.04,-0.839 -10.08,-2.515 -14.69,-4.199 -9.25,-3.355 -39.5,-9.656 -66.38,-9.656 -37.8,0 -73.94,7.559 -104.6,28.144 -33.6,23.106 -59.65,61.329 -59.65,115.516 0,46.633 21.01,86.535 52.93,111.32" /><path
             id="path48"
             style="fill:#244ba6;fill-opacity:1;fill-rule:nonzero;stroke:none"
             d="m 3797.96,534.727 c -2.87,-8.282 -2.52,-8.641 7.56,-8.641 h 44.28 c 10.44,0 11.16,1.441 7.92,11.16 l -19.43,58.672 c -2.89,8.641 -6.13,18.359 -8.29,22.676 h -0.72 c -1.07,-1.797 -4.68,-10.442 -8.63,-21.242 z m 71.28,-32.043 c -2.52,7.921 -3.96,9.004 -14.76,9.004 h -54.35 c -9,0 -11.16,-1.083 -13.68,-8.641 l -12.6,-37.793 c -5.4,-16.199 -7.92,-25.918 -7.92,-29.871 0,-4.328 1.8,-6.488 10.44,-7.207 l 11.88,-1.078 c 2.52,-1.793 2.52,-7.559 -0.73,-9 -9.35,0.718 -20.5,0.718 -37.43,1.082 -11.87,0 -24.83,-0.723 -34.55,-1.082 -2.17,1.441 -2.88,7.207 -0.72,9 l 11.87,1.078 c 8.65,0.719 16.57,4.683 21.61,17.644 6.47,16.551 16.55,39.95 31.67,80.266 l 36.71,97.184 c 5.04,12.96 7.2,19.804 6.13,25.558 8.63,2.52 14.75,9.004 18.71,13.68 2.17,0 4.69,-0.723 5.4,-3.242 4.68,-15.84 10.44,-32.391 15.84,-48.231 l 49.31,-144.695 c 10.44,-30.957 15.12,-36.36 30.6,-38.164 l 9.72,-1.078 c 2.52,-1.793 1.79,-7.559 0,-9 -14.76,0.718 -27.36,1.082 -43.56,1.082 -17.27,0 -30.95,-0.723 -41.39,-1.082 -2.88,1.441 -3.24,7.207 -0.72,9 l 10.43,1.078 c 7.57,0.719 12.61,2.879 12.61,6.48 0,3.957 -1.81,10.442 -4.69,19.074 l -15.83,48.954" /><path
             id="path50"
             style="fill:#244ba6;fill-opacity:1;fill-rule:nonzero;stroke:none"
             d="m 4022.6,550.93 c 0,-6.489 0,-10.442 1.09,-11.887 1.07,-1.074 6.47,-1.797 24.83,-1.797 12.96,0 26.64,1.434 37.07,9.356 9.73,7.558 18,20.156 18,44.636 0,28.442 -17.64,55.43 -57.59,55.43 -22.31,0 -23.4,-1.434 -23.4,-11.512 z m -29.51,51.461 c 0,34.199 -1.08,40.324 -15.84,42.121 l -11.52,1.433 c -2.52,1.809 -2.52,7.559 0.36,9.004 20.15,1.797 45,2.883 80.27,2.883 22.32,0 43.56,-1.809 60.11,-10.801 17.28,-9.004 29.88,-25.195 29.88,-50.39 0,-34.2 -27,-52.918 -45,-60.118 -1.79,-2.16 0,-5.761 1.8,-8.632 28.8,-46.438 47.88,-75.235 72.35,-95.754 6.13,-5.399 15.12,-9.356 24.84,-10.078 1.8,-0.719 2.16,-3.602 0.36,-5.039 -3.23,-1.082 -9,-1.797 -15.83,-1.797 -30.61,0 -48.96,8.996 -74.51,45.351 -9.37,13.321 -24.13,38.156 -35.29,54.356 -5.39,7.922 -11.15,11.515 -25.55,11.515 -16.2,0 -16.92,-0.359 -16.92,-7.922 v -45.347 c 0,-37.793 0.72,-42.121 21.6,-45 l 7.56,-1.078 c 2.16,-1.793 1.44,-7.918 -0.72,-9 -16.2,0.718 -28.44,1.082 -42.83,1.082 -15.12,0 -28.08,-0.364 -45,-1.082 -2.16,1.082 -2.88,6.48 -0.73,9 l 9.01,1.078 c 20.88,2.527 21.6,7.207 21.6,45 v 129.215" /><path
             id="path52"
             style="fill:#244ba6;fill-opacity:1;fill-rule:nonzero;stroke:none"
             d="m 4254.8,478.574 c 0,-12.961 0.72,-31.316 7.56,-39.238 6.83,-8.281 17.63,-10.078 28.44,-10.078 32.03,0 56.51,14.394 56.51,50.39 0,28.438 -14.41,61.551 -71.63,61.551 -19.45,0 -20.88,-2.156 -20.88,-9.351 z m 0,83.504 c 0,-10.074 0.36,-10.801 18.72,-10.074 36.71,1.441 56.5,12.234 56.5,46.07 0,35.274 -26.27,48.594 -53.63,48.594 -7.91,0 -13.31,-0.723 -16.55,-2.156 -3.61,-1.086 -5.04,-2.883 -5.04,-9.356 z m -29.52,47.871 c 0,26.641 -1.44,33.125 -17.64,34.922 l -11.51,1.074 c -2.88,2.168 -2.52,7.559 0.36,9.004 19.43,1.797 43.91,2.883 77.38,2.883 22.69,0 44.28,-1.809 60.48,-10.078 15.48,-7.559 27.35,-21.965 27.35,-45 0,-25.918 -15.11,-39.231 -36.72,-49.309 0,-3.601 2.89,-4.683 6.85,-5.398 19.43,-3.606 48.23,-21.602 48.23,-60.117 0,-41.758 -30.95,-69.832 -95.75,-69.832 -10.44,0 -28.08,1.082 -43.19,1.082 -15.84,0 -28.08,-0.723 -41.4,-1.082 -2.16,1.082 -2.87,6.843 -0.71,9 l 6.47,1.078 c 19.08,2.879 19.8,7.207 19.8,45 v 136.773" /><path
             id="path54"
             style="fill:#244ba6;fill-opacity:1;fill-rule:nonzero;stroke:none"
             d="m 4630.62,527.891 c 0,59.382 -26.28,123.457 -95.03,123.457 -37.44,0 -86.03,-25.559 -86.03,-104.383 0,-53.274 25.91,-122.387 96.83,-122.387 43.19,0 84.23,32.395 84.23,103.313 z m -217.05,7.558 c 0,71.981 53.98,127.059 128.13,127.059 83.16,0 124.92,-60.117 124.92,-123.465 0,-72.703 -55.44,-125.625 -124.92,-125.625 -79.9,0 -128.13,57.234 -128.13,122.031" /><path
             id="path56"
             style="fill:#244ba6;fill-opacity:1;fill-rule:nonzero;stroke:none"
             d="m 4922.93,480.371 c 0,-10.801 0,-53.633 1.09,-62.988 -0.72,-2.16 -2.88,-3.965 -6.85,-3.965 -4.31,6.121 -14.75,18.719 -46.07,54.355 l -83.51,95.032 c -9.71,11.16 -34.2,40.672 -41.76,48.59 h -0.71 c -1.44,-4.317 -1.81,-12.594 -1.81,-23.399 v -78.465 c 0,-16.926 0.73,-63.711 6.49,-74.511 2.52,-3.965 9.35,-6.125 18.36,-6.844 l 11.15,-1.078 c 2.16,-2.879 1.81,-7.196 -0.71,-9 -16.2,0.718 -28.8,1.082 -42.12,1.082 -15.12,0 -24.84,-0.364 -37.43,-1.082 -2.52,1.804 -2.88,6.843 -0.73,9 l 9.72,1.078 c 8.28,0.719 14.04,3.238 15.84,7.207 5.04,12.957 4.68,56.863 4.68,74.148 v 104.024 c 0,10.078 -0.36,17.636 -7.92,25.918 -5.04,5.039 -13.67,7.558 -22.32,8.64 l -6.12,0.715 c -2.16,2.156 -2.16,7.559 0.72,9.004 15.12,-1.086 34.2,-1.086 40.68,-1.086 5.76,0 11.87,0.363 16.56,1.086 7.2,-18.359 50.03,-65.879 61.55,-79.191 l 34.92,-39.239 c 24.47,-28.074 42.47,-47.871 59.39,-65.156 h 0.72 c 1.44,1.809 1.44,7.57 1.44,15.129 v 77.02 c 0,16.925 -0.36,63.722 -7.2,74.511 -2.16,3.242 -7.92,5.403 -22.32,7.207 l -6.12,0.715 c -2.52,2.156 -2.15,7.918 0.73,9.004 16.55,-0.723 28.79,-1.086 42.47,-1.086 15.48,0 24.83,0.363 37.08,1.086 2.87,-1.809 2.87,-6.848 0.71,-9.004 l -5.04,-0.715 c -11.51,-1.804 -18.72,-4.687 -20.16,-7.558 -6.12,-12.957 -5.4,-57.594 -5.4,-74.16 v -86.024" /><path
             id="path58"
             style="fill:#244ba6;fill-opacity:1;fill-rule:nonzero;stroke:none"
             d="m 5113.56,560.723 c 0,-7.571 0,-12.188 1.26,-13.868 1.26,-1.257 7.56,-2.097 28.98,-2.097 15.13,0 31.09,1.676 43.27,10.926 11.34,8.82 21.01,23.515 21.01,52.078 0,33.195 -20.59,64.699 -67.22,64.699 -26.04,0 -27.3,-1.68 -27.3,-13.449 z m -34.44,60.066 c 0,39.902 -1.26,47.051 -18.49,49.152 l -13.44,1.68 c -2.95,2.098 -2.95,8.817 0.42,10.496 23.52,2.102 52.51,3.36 93.67,3.36 26.05,0 50.83,-2.098 70.16,-12.598 20.16,-10.496 34.86,-29.402 34.86,-58.809 0,-39.91 -31.5,-61.757 -52.51,-70.156 -2.1,-2.519 0,-6.719 2.1,-10.074 33.61,-54.192 55.87,-87.805 84.44,-111.742 7.14,-6.309 17.64,-10.926 28.98,-11.766 2.1,-0.84 2.52,-4.199 0.42,-5.879 -3.78,-1.262 -10.5,-2.101 -18.48,-2.101 -35.71,0 -57.12,10.5 -86.96,52.929 -10.92,15.539 -28.14,44.524 -41.16,63.43 -6.3,9.238 -13.03,13.445 -29.82,13.445 -18.91,0 -19.75,-0.418 -19.75,-9.246 v -52.93 c 0,-44.101 0.84,-49.14 25.2,-52.507 l 8.82,-1.262 c 2.52,-2.102 1.68,-9.238 -0.84,-10.496 -18.89,0.84 -33.18,1.258 -49.99,1.258 -17.63,0 -32.76,-0.418 -52.51,-1.258 -2.52,1.258 -3.36,7.555 -0.84,10.496 l 10.51,1.262 c 24.37,2.937 25.21,8.406 25.21,52.507 v 150.809" /><path
             id="path60"
             style="fill:#244ba6;fill-opacity:1;fill-rule:nonzero;stroke:none"
             d="m 5342.31,590.547 c 0,37.441 -0.71,42.84 -21.95,45.359 l -5.77,0.715 c -2.15,1.445 -1.43,7.918 0.73,9.004 15.48,-0.723 27.71,-1.086 42.47,-1.086 h 67.67 c 23.04,0 44.28,0 48.6,1.086 2.16,-6.125 4.31,-32.039 5.76,-47.883 -1.45,-2.156 -7.2,-2.871 -9.01,-0.711 -5.4,16.914 -8.63,29.512 -27.35,34.188 -7.56,1.808 -19.08,2.168 -34.91,2.168 h -25.92 c -10.8,0 -10.8,-0.723 -10.8,-14.403 v -71.992 c 0,-10.078 1.07,-10.078 11.88,-10.078 h 20.87 c 15.12,0 26.28,0.723 30.6,2.156 4.32,1.446 6.84,3.606 8.64,12.602 l 2.88,14.762 c 1.8,2.16 7.92,2.16 9.36,-0.36 0,-8.644 -1.44,-22.676 -1.44,-36.355 0,-12.961 1.44,-26.645 1.44,-34.555 -1.44,-2.519 -7.56,-2.519 -9.36,-0.359 l -3.24,14.035 c -1.44,6.48 -3.96,11.883 -11.16,13.68 -5.04,1.433 -13.67,1.796 -27.72,1.796 h -20.87 c -10.81,0 -11.88,-0.363 -11.88,-9.718 v -50.75 c 0,-19.082 1.07,-31.321 6.84,-37.442 4.32,-4.316 11.88,-8.269 43.55,-8.269 27.72,0 38.16,1.433 46.08,5.398 6.48,3.594 16.2,16.192 25.55,34.91 2.52,1.797 7.56,0.727 9.01,-2.515 -2.52,-12.602 -11.53,-40.317 -16.21,-50.043 -32.39,0.722 -64.43,1.086 -96.46,1.086 h -32.4 c -15.48,0 -27.72,-0.364 -48.95,-1.086 -2.17,1.086 -2.88,6.847 -0.72,9.004 l 11.87,1.078 c 20.52,1.804 22.32,7.207 22.32,45 v 129.578" /><path
             id="path62"
             style="fill:#244ba6;fill-opacity:1;fill-rule:nonzero;stroke:none"
             d="m 5646.5,503.074 c 8.28,-16.914 16.2,-33.465 24.84,-49.304 h 0.72 c 9.72,16.914 18.72,35.632 27.71,53.992 l 33.84,68.75 c 16.56,32.754 26.64,52.551 27.36,69.113 12.24,-1.086 19.8,-1.086 26.99,-1.086 9.01,0 20.88,0.363 32.04,1.086 2.16,-1.445 2.16,-7.559 0.36,-9.004 l -7.56,-0.715 c -22.68,-2.519 -25.56,-9.004 -25.2,-34.195 0.72,-38.156 1.09,-104.746 3.97,-156.582 1.07,-18 0.71,-27.356 17.63,-29.16 l 11.52,-1.078 c 2.16,-2.157 1.8,-7.555 -0.72,-9.004 -14.76,0.722 -29.52,1.086 -42.48,1.086 -12.59,0 -28.8,-0.364 -43.55,-1.086 -2.52,1.808 -2.88,6.847 -0.72,9.004 l 10.44,1.078 c 17.63,1.804 17.63,7.566 17.63,30.601 l -1.07,150.102 h -0.72 c -2.52,-3.969 -16.21,-32.758 -23.4,-46.801 l -32.03,-62.984 c -16.21,-31.684 -32.41,-65.52 -38.88,-82.074 -0.72,-1.083 -2.16,-1.446 -3.6,-1.446 -0.72,0 -2.52,0.363 -3.24,1.446 -6.12,19.074 -23.4,54.359 -31.68,71.992 l -32.39,69.472 c -7.56,16.555 -15.12,35.278 -23.04,51.828 h -0.72 c -1.43,-22.316 -2.52,-43.195 -3.6,-64.074 -1.08,-21.953 -2.52,-53.992 -2.52,-84.59 0,-26.628 2.17,-32.39 16.2,-33.472 l 13.68,-1.078 c 2.52,-2.157 2.16,-7.918 -0.36,-9.004 -12.24,0.722 -26.28,1.086 -39.96,1.086 -11.52,0 -24.47,-0.364 -36.71,-1.086 -2.16,1.808 -2.88,7.211 -0.72,9.004 l 7.92,1.078 c 15.11,1.804 20.15,4.324 22.31,29.519 2.16,23.758 3.97,43.555 6.12,79.192 1.8,29.871 3.25,60.465 3.96,80.269 0.72,22.676 -2.16,27.356 -24.11,30.957 l -5.76,0.715 c -1.8,2.156 -1.44,7.559 1.43,9.004 10.8,-0.723 19.45,-1.086 28.44,-1.086 8.28,0 18,0 29.88,1.086 -1.44,-14.043 7.56,-36.359 18.71,-59.395 l 41.04,-83.156" /><path
             id="path64"
             style="fill:#244ba6;fill-opacity:1;fill-rule:nonzero;stroke:none"
             d="m 6068.4,515.684 c 0,59.382 -26.28,123.457 -95.03,123.457 -37.43,0 -86.02,-25.555 -86.02,-104.383 0,-53.274 25.92,-122.387 96.82,-122.387 43.2,0 84.23,32.395 84.23,103.313 z m -217.05,7.558 c 0,71.981 54,127.059 128.15,127.059 83.14,0 124.9,-60.117 124.9,-123.465 0,-72.703 -55.43,-125.625 -124.9,-125.625 -79.92,0 -128.15,57.234 -128.15,122.031" /><path
             id="path66"
             style="fill:#244ba6;fill-opacity:1;fill-rule:nonzero;stroke:none"
             d="m 6146.98,606.387 c -8.28,20.156 -13.67,27.715 -29.15,29.519 l -6.49,0.715 c -2.52,2.156 -2.16,7.195 0.72,9.004 10.44,-0.723 21.96,-1.086 37.44,-1.086 15.84,0 28.43,0.363 43.55,1.086 2.52,-1.445 3.24,-6.848 0.72,-9.004 l -5.4,-0.715 c -13.68,-1.804 -16.55,-3.965 -16.91,-6.843 0.71,-3.594 6.84,-23.04 18,-50.391 16.55,-41.758 33.11,-83.156 51.11,-124.192 11.15,23.762 26.63,60.84 34.55,79.915 10.8,24.484 27.35,65.156 33.48,80.632 2.88,7.559 3.24,11.516 3.24,14.036 0,2.519 -3.6,5.398 -16.2,6.843 l -6.48,0.715 c -2.52,2.156 -1.8,7.559 0.72,9.004 10.08,-0.723 23.76,-1.086 37.44,-1.086 11.87,0 23.04,0.363 34.91,1.086 2.52,-1.445 2.52,-7.199 0.72,-9.004 l -10.8,-0.715 c -8.64,-0.722 -14.03,-5.039 -18.72,-12.605 -10.08,-16.914 -24.11,-46.074 -40.31,-82.785 l -19.43,-44.278 c -14.41,-33.113 -31.32,-74.871 -37.45,-93.941 -1.07,-0.727 -2.52,-1.086 -3.95,-1.086 -1.8,0 -3.6,0.359 -5.4,1.086 -3.96,15.113 -10.08,32.754 -16.56,47.867 l -63.35,156.223" /><path
             id="path68"
             style="fill:#244ba6;fill-opacity:1;fill-rule:nonzero;stroke:none"
             d="m 6429.57,522.52 c -2.88,-8.282 -2.51,-8.641 7.56,-8.641 h 44.28 c 10.43,0 11.15,1.441 7.91,11.16 l -19.43,58.672 c -2.88,8.641 -6.13,18.359 -8.28,22.676 h -0.72 c -1.08,-1.797 -4.68,-10.442 -8.64,-21.242 z m 71.27,-32.043 c -2.52,7.921 -3.96,9.003 -14.75,9.003 h -54.36 c -9,0 -11.16,-1.082 -13.68,-8.64 l -12.6,-37.793 c -5.4,-16.199 -7.92,-25.918 -7.92,-29.871 0,-4.328 1.81,-6.488 10.44,-7.207 l 11.89,-1.078 c 2.52,-1.793 2.52,-7.555 -0.72,-9.004 -9.36,0.722 -20.52,0.722 -37.45,1.086 -11.87,0 -24.83,-0.723 -34.55,-1.086 -2.16,1.449 -2.88,7.211 -0.72,9.004 l 11.89,1.078 c 8.63,0.719 16.55,4.683 21.59,17.644 6.48,16.551 16.56,39.95 31.68,80.266 l 36.71,97.184 c 5.04,12.96 7.2,19.804 6.12,25.558 8.64,2.52 14.75,9.004 18.72,13.68 2.16,0 4.68,-0.723 5.4,-3.242 4.68,-15.84 10.44,-32.391 15.83,-48.231 l 49.32,-144.695 c 10.44,-30.957 15.11,-36.36 30.59,-38.164 l 9.72,-1.078 c 2.52,-1.793 1.81,-7.555 0,-9.004 -14.76,0.722 -27.35,1.086 -43.56,1.086 -17.27,0 -30.94,-0.723 -41.38,-1.086 -2.88,1.449 -3.24,7.211 -0.73,9.004 l 10.44,1.078 c 7.56,0.719 12.6,2.879 12.6,6.48 0,3.957 -1.8,10.442 -4.68,19.074 l -15.84,48.954" /><path
             id="path70"
             style="fill:#244ba6;fill-opacity:1;fill-rule:nonzero;stroke:none"
             d="m 6624.69,590.547 c 0,37.801 -0.72,43.555 -23.4,45.359 l -8.99,0.715 c -2.17,1.445 -1.45,7.918 0.71,9.004 20.16,-0.723 32.4,-1.086 46.8,-1.086 14.04,0 26.28,0.363 44.28,1.086 2.15,-1.086 2.88,-7.559 0.71,-9.004 l -8.63,-0.715 c -21.24,-1.804 -21.97,-7.558 -21.97,-45.359 V 465.281 c 0,-22.676 1.09,-32.027 7.56,-38.875 3.97,-3.957 10.8,-8.269 39.24,-8.269 30.6,0 38.15,1.433 43.92,4.676 7.19,4.316 16.55,17.277 23.75,35.632 2.16,1.797 9,0.364 9,-2.156 0,-3.965 -10.08,-40.676 -15.12,-50.402 -18.36,0.722 -52.55,1.086 -89.63,1.086 h -33.11 c -15.12,0 -26.64,-0.364 -46.8,-1.086 -2.16,1.086 -2.88,6.847 -0.71,9.004 l 10.79,1.078 c 20.88,2.168 21.6,7.207 21.6,45 v 129.578" /><path
             id="path72"
             style="fill:#244ba6;fill-opacity:1;fill-rule:nonzero;stroke:none"
             d="m 1030.85,220.004 c 0,44.113 -0.84,50.832 -27.31,52.93 l -10.493,0.839 c -2.52,1.68 -1.68,9.239 0.84,10.5 23.523,-0.839 37.803,-1.261 54.613,-1.261 16.38,0 30.66,0.422 51.67,1.261 2.51,-1.261 3.35,-8.82 0.84,-10.5 l -10.09,-0.839 c -24.78,-2.098 -25.62,-8.817 -25.62,-52.93 V 73.8242 c 0,-26.4648 1.26,-37.3945 8.82,-45.3711 4.62,-4.6211 12.6,-9.6679 45.79,-9.6679 35.7,0 44.52,1.6875 51.24,5.4687 8.41,5.0391 19.33,20.1563 27.74,41.582 2.52,2.0977 10.49,0.418 10.49,-2.5195 0,-4.6211 -11.76,-47.4726 -17.64,-58.80859 -21.43,0.83985 -61.33,1.25782 -104.6,1.25782 h -38.64 c -17.65,0 -31.09,-0.41797 -54.613,-1.25782 -2.52,1.25782 -3.36,7.97659 -0.84,10.49609 l 12.593,1.2617 c 24.37,2.5196 25.21,8.4063 25.21,52.5078 V 220.004" /><path
             id="path74"
             style="fill:#244ba6;fill-opacity:1;fill-rule:nonzero;stroke:none"
             d="m 1284.57,121.313 c -2.88,-8.282 -2.52,-8.641 7.56,-8.641 h 44.28 c 10.44,0 11.15,1.445 7.92,11.16 l -19.45,58.672 c -2.88,8.644 -6.11,18.359 -8.28,22.676 h -0.71 c -1.09,-1.797 -4.68,-10.438 -8.64,-21.239 z m 71.27,-32.0396 c -2.52,7.918 -3.96,9.0039 -14.76,9.0039 h -54.35 c -9,0 -11.15,-1.0859 -13.67,-8.6445 l -12.61,-37.793 c -5.39,-16.1992 -7.91,-25.9179 -7.91,-29.871 0,-4.3282 1.8,-6.4844 10.43,-7.2071 l 11.88,-1.0742 c 2.52,-1.7969 2.52,-7.55859 -0.72,-9.00391 -9.36,0.72266 -20.52,0.72266 -37.43,1.08204 -11.89,0 -24.85,-0.72266 -34.56,-1.08204 -2.16,1.44532 -2.88,7.20701 -0.71,9.00391 l 11.87,1.0742 c 8.63,0.7227 16.55,4.6875 21.59,17.6446 6.49,16.5546 16.56,39.9531 31.68,80.2657 l 36.72,97.187 c 5.04,12.957 7.2,19.805 6.11,25.555 8.65,2.52 14.77,9.004 18.72,13.684 2.16,0 4.68,-0.723 5.4,-3.243 4.68,-15.839 10.44,-32.394 15.84,-48.234 l 49.31,-144.6952 c 10.44,-30.957 15.13,-36.3594 30.6,-38.1641 l 9.72,-1.0742 c 2.52,-1.7969 1.8,-7.55859 0,-9.00391 -14.76,0.72266 -27.36,1.08204 -43.55,1.08204 -17.29,0 -30.96,-0.72266 -41.4,-1.08204 -2.88,1.44532 -3.24,7.20701 -0.72,9.00391 l 10.44,1.0742 c 7.56,0.7227 12.6,2.8789 12.6,6.4844 0,3.9531 -1.8,10.4375 -4.68,19.0703 l -15.84,48.957" /><path
             id="path76"
             style="fill:#244ba6;fill-opacity:1;fill-rule:nonzero;stroke:none"
             d="m 1422.53,235.777 c -2.17,2.157 -1.81,7.196 1.07,8.641 9.72,-0.723 25.92,-1.082 37.08,-1.082 10.08,0 28.44,0.359 41.04,1.082 3.23,-1.082 2.88,-6.121 0.71,-8.641 l -8.27,-0.722 c -7.56,-0.715 -11.89,-2.871 -11.89,-6.114 0,-4.328 7.56,-22.675 18.73,-48.234 20.15,-45 41.39,-89.9882 62.27,-134.2656 8.63,17.9961 18,38.1524 27.72,58.3086 2.88,6.848 5.76,12.961 5.76,14.766 0,1.797 -1.09,5.039 -2.88,9.355 -12.6,28.801 -25.92,57.59 -39.6,86.387 -5.4,11.164 -10.8,18.722 -23.04,19.797 l -8.64,0.722 c -2.52,2.879 -2.16,7.196 0.72,8.641 10.44,-0.723 24.12,-1.082 38.52,-1.082 17.99,0 31.31,0.359 39.6,1.082 2.51,-1.082 2.88,-5.762 0.71,-8.641 l -9.36,-0.722 c -14.03,-1.075 -14.75,-3.594 -7.56,-19.797 7.2,-17.637 17.64,-40.313 27.72,-62.625 6.84,14.031 13.32,27.715 21.24,47.148 12.96,30.594 11.16,34.559 -0.36,35.274 l -10.8,0.722 c -2.52,3.602 -1.8,7.559 0.72,8.641 9.72,-0.723 20.52,-1.082 33.84,-1.082 11.87,0 26.28,0.359 34.55,1.082 2.52,-1.082 2.88,-5.762 0.72,-8.641 l -10.44,-0.722 c -15.12,-1.075 -21.6,-17.278 -29.51,-32.032 -7.56,-13.32 -22.69,-44.64 -28.08,-57.238 -1.8,-3.594 -3.24,-7.195 -3.24,-8.633 0,-1.445 0.72,-4.324 2.52,-8.64 12.24,-27.715 24.83,-54.719 36.71,-82.0706 11.16,25.1953 21.6,50.3906 32.4,75.9456 6.84,17.285 26.28,65.156 28.8,71.633 4.68,12.957 10.79,28.437 10.79,32.761 0,5.039 -4.31,7.922 -11.87,8.274 l -10.44,0.722 c -2.88,3.243 -2.52,7.196 0.36,8.641 13.68,-0.723 23.4,-1.082 34.55,-1.082 13.68,0 24.12,0.359 33.48,1.082 2.88,-1.082 3.24,-5.762 0.72,-8.641 l -6.84,-0.722 c -17.99,-1.797 -21.24,-12.598 -42.83,-62.629 l -26.28,-60.828 c -15.48,-36.7191 -30.23,-71.9925 -45,-110.50816 -1.07,-0.722652 -2.52,-1.08593375 -4.31,-1.08593375 -1.8,0 -3.61,0.36328175 -5.04,1.08593375 -11.53,32.03126 -32.4,77.03126 -43.56,102.22616 -12.96,-26.2808 -34.56,-72.3551 -44.99,-102.22616 -1.08,-0.722652 -2.52,-1.08593375 -4.32,-1.08593375 -1.8,0 -3.6,0.36328175 -5.41,1.08593375 -6.11,15.11716 -20.15,47.50786 -24.83,57.94926 -23.04,50.0389 -45.35,100.0659 -68.75,150.1059 -6.84,14.757 -11.16,24.472 -26.28,25.91 l -8.63,0.722" /><path
             id="path78"
             style="fill:#244ba6;fill-opacity:1;fill-rule:nonzero;stroke:none"
             d="m 2679.04,68.7734 c 0,-44.1015 0.84,-49.5703 27.73,-52.5078 l 11.33,-1.2617 c 2.52,-2.0976 1.68,-9.23827 -0.83,-10.49609 -23.95,0.83985 -37.81,1.25782 -54.61,1.25782 -17.65,0 -32.77,-0.41797 -51.25,-1.25782 -2.52,1.25782 -3.36,7.97659 -0.84,10.49609 l 8.81,1.2617 c 24.37,3.3672 25.21,8.4063 25.21,52.5078 V 223.785 c 0,35.703 -0.84,43.27 -19.74,44.949 l -15.12,1.68 c -2.94,2.52 -2.52,8.82 0.84,10.5 22.26,2.938 48.31,3.359 83.17,3.359 34.86,0 60.91,-4.621 80.65,-16.796 19.33,-12.188 33.61,-34.036 33.61,-63.02 0,-38.641 -23.95,-57.969 -42,-66.785 -18.49,-8.82 -40.76,-12.609 -57.97,-12.609 -2.94,1.261 -2.94,7.57 -0.42,8.41 45.36,8.398 61.74,34.023 61.74,70.566 0,40.75 -23.94,67.215 -67.63,67.215 -22.26,0 -22.68,-1.68 -22.68,-15.125 V 68.7734" /><path
             id="path80"
             style="fill:#244ba6;fill-opacity:1;fill-rule:nonzero;stroke:none"
             d="m 3045,114.477 c 0,59.386 -26.28,123.457 -95.03,123.457 -37.43,0 -86.02,-25.555 -86.02,-104.383 0,-53.2737 25.92,-122.383 96.83,-122.383 43.19,0 84.22,32.3906 84.22,103.309 z m -217.05,7.558 c 0,71.985 54,127.063 128.15,127.063 83.15,0 124.9,-60.118 124.9,-123.469 0,-72.7032 -55.43,-125.62509375 -124.9,-125.62509375 -79.91,0 -128.15,57.23829375 -128.15,122.03109375" /><path
             id="path82"
             style="fill:#244ba6;fill-opacity:1;fill-rule:nonzero;stroke:none"
             d="m 3133.66,189.34 c 0,37.805 -0.72,43.555 -23.4,45.363 l -9,0.711 c -2.15,1.445 -1.43,7.922 0.73,9.004 20.15,-0.723 32.39,-1.082 46.78,-1.082 14.05,0 26.28,0.359 44.28,1.082 2.16,-1.082 2.88,-7.559 0.72,-9.004 l -8.64,-0.711 c -21.24,-1.808 -21.95,-7.558 -21.95,-45.363 V 64.0781 c 0,-22.6758 1.07,-32.0312 7.56,-38.8789 3.95,-3.9531 10.8,-8.2695 39.23,-8.2695 30.6,0 38.16,1.4336 43.91,4.6758 7.21,4.3164 16.56,17.2773 23.76,35.6367 2.16,1.7969 9,0.3594 9,-2.1602 0,-3.9648 -10.07,-40.6718 -15.12,-50.39841 -18.35,0.72266 -52.55,1.08204 -89.63,1.08204 h -33.12 c -15.11,0 -26.63,-0.35938 -46.78,-1.08204 -2.16,1.08204 -2.88,6.84371 -0.73,9.00391 l 10.8,1.0742 c 20.88,2.168 21.6,7.2071 21.6,45 V 189.34" /><path
             id="path84"
             style="fill:#244ba6;fill-opacity:1;fill-rule:nonzero;stroke:none"
             d="m 3332.74,188.629 c 0,38.152 -0.72,44.266 -21.96,46.074 l -9,0.711 c -2.16,1.445 -1.43,7.922 0.72,9.004 18,-0.723 30.24,-1.082 45.36,-1.082 14.39,0 26.64,0.359 44.63,1.082 2.16,-1.082 2.88,-7.559 0.72,-9.004 l -9,-0.711 c -21.24,-1.808 -21.96,-7.922 -21.96,-46.074 V 60.4844 c 0,-38.1563 0.72,-43.1953 21.96,-45.7227 l 9,-1.0742 c 2.16,-1.4453 1.44,-7.92187 -0.72,-9.00391 -17.99,0.72266 -30.24,1.08204 -44.63,1.08204 -15.12,0 -27.36,-0.35938 -45.36,-1.08204 -2.15,1.08204 -2.88,6.84371 -0.72,9.00391 l 9,1.0742 c 21.24,2.5274 21.96,7.5664 21.96,45.7227 V 188.629" /><path
             id="path86"
             style="fill:#244ba6;fill-opacity:1;fill-rule:nonzero;stroke:none"
             d="m 3469.54,218.5 c 26.27,20.52 59.75,30.598 97.18,30.598 19.44,0 46.8,-3.965 63.71,-8.645 4.32,-1.074 6.84,-1.797 10.08,-1.433 0.36,-8.282 2.16,-30.957 5.04,-52.911 -1.8,-2.519 -7.2,-2.882 -9.72,-0.722 -5.4,24.472 -21.6,52.547 -73.78,52.547 -55.08,0 -101.87,-34.911 -101.87,-109.422 0,-75.5862 47.87,-117.344 106.9,-117.344 46.44,0 66.96,30.2343 75.23,51.4726 2.52,1.7969 7.92,1.0742 9.36,-1.4453 -2.52,-18.7109 -11.88,-42.4687 -17.27,-49.3047 -4.33,-0.7226 -8.64,-2.16794 -12.61,-3.60544 -7.92,-2.87891 -33.83,-8.28125375 -56.86,-8.28125375 -32.41,0 -63.36,6.48437375 -89.63,24.12109375 -28.8,19.7969 -51.12,52.5508 -51.12,98.984 0,39.961 18,74.153 45.36,95.391" /><path
             id="path88"
             style="fill:#244ba6;fill-opacity:1;fill-rule:nonzero;stroke:none"
             d="m 3779.85,60.4844 c 0,-38.5156 2.16,-44.2774 21.59,-45.7227 l 13.68,-1.0742 c 2.16,-2.1602 1.45,-7.92187 -0.72,-9.00391 -22.32,0.72266 -34.55,1.08204 -48.95,1.08204 -15.12,0 -28.08,-0.35938 -47.15,-1.08204 -2.16,1.08204 -2.89,6.84371 -0.73,9.00391 l 11.16,1.0742 c 20.88,2.168 21.6,7.2071 21.6,45.7227 V 78.832 c 0,19.8047 -1.08,24.484 -11.52,44.641 l -42.48,82.793 c -12.23,23.75 -17.63,25.554 -28.43,27.351 l -10.07,1.797 c -2.17,2.52 -1.81,7.559 0.71,9.004 11.52,-0.723 24.48,-1.082 41.76,-1.082 16.56,0 29.51,0.359 38.51,1.082 3.25,-1.082 3.25,-6.844 1.08,-9.004 l -4.68,-0.711 c -12.6,-2.168 -15.12,-3.605 -15.12,-6.484 0,-3.606 9.37,-24.114 11.16,-27.715 13.32,-26.641 26.64,-55.078 40.68,-79.914 11.16,19.082 23.04,39.961 33.84,60.832 10.07,18.719 23.39,43.191 23.39,47.519 0,2.157 -6.48,4.676 -15.11,5.762 l -6.49,0.711 c -2.52,2.52 -2.16,7.559 0.73,9.004 12.95,-0.723 23.39,-1.082 34.55,-1.082 11.16,0 21.24,0.359 33.47,1.082 2.88,-1.805 3.25,-6.844 0.73,-9.004 l -10.08,-1.797 c -18.72,-2.879 -29.52,-25.918 -47.52,-56.875 l -22.68,-39.226 c -16.19,-27.004 -16.91,-30.606 -16.91,-58.3207 V 60.4844" /><path
             id="path90"
             style="fill:#ffffff;fill-opacity:1;fill-rule:nonzero;stroke:none"
             d="m 0,2.93359 h 700 v 717.496 H 0 Z" /><path
             id="path92"
             style="fill:#ed1639;fill-opacity:1;fill-rule:nonzero;stroke:none"
             d="m 349.73,48.082 h 301.32 v 623.52 H 349.73 Z" /><path
             id="path94"
             style="fill:#244ba6;fill-opacity:1;fill-rule:nonzero;stroke:none"
             d="M 380.371,47.0352 50.4492,48.082 v 623.52 H 351.309 V 86.6563 l 29.062,-39.6211" /><path
             id="path96"
             style="fill:#ffffff;fill-opacity:1;fill-rule:nonzero;stroke:none"
             d="m 518.148,401.934 v -8.168 c 71.879,-7.078 77.016,-38.661 77.016,-107.805 v -57.168 c 0,-66.426 10.785,-178.5821 -100.121,-178.5821 -140.688,0 -124.258,140.4691 -124.258,150.8201 v 111.61 c 0,59.886 6.586,70.777 73.852,81.125 v 8.168 H 261.934 v -8.168 c 61.617,-8.711 62.129,-25.047 63.668,-81.125 V 190.68 c 0,-43.555 -16.426,-165.5081 142.742,-165.5081 113.988,0 142.222,71.3164 143.765,141.5511 l 3.086,119.238 c 2.051,71.867 5.129,102.359 51.856,107.805 v 8.168 H 518.148" /><path
             id="path98"
             style="fill:#ffffff;fill-opacity:1;fill-rule:nonzero;stroke:none"
             d="m 308.492,248.773 v 10.04 c -96.015,14.718 -85.91,36.796 -31.582,173.98 L 351.445,622.168 452.508,363.867 C 468.941,321.715 497.996,268.18 408.93,258.813 v -10.04 h 200.238 v 10.04 c -56.215,6.691 -70.742,49.511 -89.695,98.367 L 376.715,719.199 h -8.844 L 247.215,414.059 C 208.051,317.027 189.734,264.164 130.355,258.813 v -10.04 h 178.137" /><path
             id="path100"
             style="fill:#244ba6;fill-opacity:1;fill-rule:nonzero;stroke:none"
             d="m 1891.22,120.375 c -2.65,-7.586 -2.31,-7.918 6.92,-7.918 h 40.58 c 9.56,0 10.22,1.328 7.26,10.223 l -17.82,53.769 c -2.64,7.922 -5.61,16.828 -7.59,20.781 h -0.66 c -0.98,-1.648 -4.29,-9.57 -7.91,-19.46 z m 65.31,-29.3633 c -2.31,7.2539 -3.63,8.25 -13.53,8.25 h -49.8 c -8.25,0 -10.23,-0.9961 -12.54,-7.9179 l -11.55,-34.629 c -4.95,-14.8554 -7.26,-23.75 -7.26,-27.3828 0,-3.9648 1.66,-5.9375 9.57,-6.6015 l 10.89,-0.9883 c 2.31,-1.6406 2.31,-6.9219 -0.67,-8.25 -8.56,0.6641 -18.79,0.6641 -34.3,0.9961 -10.88,0 -22.76,-0.6641 -31.66,-0.9961 -1.98,1.3281 -2.64,6.6094 -0.67,8.25 l 10.89,0.9883 c 7.92,0.664 15.17,4.2968 19.79,16.1718 5.94,15.1641 15.18,36.6094 29.03,73.5547 l 33.65,89.063 c 4.62,11.875 6.6,18.152 5.6,23.418 7.92,2.312 13.53,8.25 17.16,12.539 1.98,0 4.29,-0.664 4.95,-2.969 4.28,-14.512 9.56,-29.688 14.51,-44.199 l 45.19,-132.6098 c 9.57,-28.3672 13.85,-33.3086 28.04,-34.9687 l 8.91,-0.9883 c 2.31,-1.6406 1.64,-6.9219 0,-8.25 -13.53,0.6641 -25.07,0.9961 -39.91,0.9961 -15.84,0 -28.37,-0.6641 -37.94,-0.9961 -2.64,1.3281 -2.97,6.6094 -0.66,8.25 l 9.56,0.9883 c 6.93,0.664 11.55,2.6367 11.55,5.9453 0,3.625 -1.65,9.5625 -4.29,17.4805 l -14.51,44.8554" /><path
             id="path102"
             style="fill:#244ba6;fill-opacity:1;fill-rule:nonzero;stroke:none"
             d="m 2247.49,70.5625 c 0,-9.8945 0,-49.1523 0.99,-57.7266 -0.66,-1.9726 -2.64,-3.63277 -6.27,-3.63277 -3.96,5.61717 -13.52,17.16017 -42.22,49.81637 l -76.53,87.0895 c -8.9,10.223 -31.34,37.274 -38.26,44.532 h -0.66 c -1.32,-3.957 -1.65,-11.543 -1.65,-21.446 V 97.2891 c 0,-15.5078 0.65,-58.3868 5.93,-68.2813 2.32,-3.6406 8.58,-5.6133 16.83,-6.2773 l 10.22,-0.9883 c 1.99,-2.6367 1.65,-6.5899 -0.66,-8.25 -14.84,0.6641 -26.39,0.9961 -38.59,0.9961 -13.85,0 -22.76,-0.332 -34.31,-0.9961 -2.31,1.6601 -2.64,6.2773 -0.66,8.25 l 8.91,0.9883 c 7.59,0.664 12.86,2.9687 14.52,6.6015 4.61,11.875 4.28,52.1172 4.28,67.9571 v 95.3239 c 0,9.239 -0.33,16.16 -7.26,23.75 -4.62,4.617 -12.53,6.934 -20.45,7.918 l -5.61,0.657 c -1.97,1.98 -1.97,6.933 0.67,8.25 13.85,-0.985 31.33,-0.985 37.27,-0.985 5.28,0 10.89,0.32 15.17,0.985 6.6,-16.825 45.85,-60.36 56.41,-72.567 l 32,-35.957 c 22.43,-25.7343 38.92,-43.8671 54.42,-59.707 h 0.67 c 1.31,1.6485 1.31,6.9336 1.31,13.8555 v 70.5855 c 0,15.508 -0.32,58.391 -6.59,68.282 -1.98,2.968 -7.26,4.953 -20.45,6.601 l -5.61,0.657 c -2.31,1.98 -1.98,7.265 0.66,8.25 15.17,-0.665 26.38,-0.985 38.92,-0.985 14.19,0 22.76,0.32 33.98,0.985 2.64,-1.649 2.64,-6.27 0.66,-8.25 l -4.62,-0.657 c -10.56,-1.648 -17.15,-4.285 -18.47,-6.922 -5.61,-11.875 -4.95,-52.785 -4.95,-67.961 V 70.5625" /><path
             id="path104"
             style="fill:#244ba6;fill-opacity:1;fill-rule:nonzero;stroke:none"
             d="m 2355.39,71.5586 c 0,-17.4922 0.99,-28.0391 6.59,-35.957 7.26,-10.2344 19.79,-13.5274 40.57,-13.5274 64,0 92.69,41.8946 92.69,103.2538 0,36.277 -17.48,97.637 -103.9,97.637 -19.46,0 -30.02,-2.649 -32.66,-4.621 -2.64,-1.981 -3.29,-10.235 -3.29,-25.067 z m -27.06,117.7544 c 0,23.093 -1.65,30.027 -15.5,32 l -7.25,0.988 c -2.65,1.648 -2.97,6.922 0.32,8.25 28.04,1.652 54.76,2.637 82.8,2.637 27.71,0 51.13,-1.973 72.57,-9.891 44.53,-16.164 66.96,-53.77 66.96,-97.317 0,-41.8941 -20.12,-77.8394 -57.72,-98.3003 -21.44,-11.543 -48.49,-15.8281 -73.89,-15.8281 -21.11,0 -42.23,2.6367 -53.77,2.6367 -13.86,0 -25.73,-0.332 -41.23,-0.9961 -1.98,0.9961 -2.64,6.2773 -0.66,8.25 l 7.58,0.9883 c 19.14,2.6367 19.79,6.6015 19.79,41.2383 V 189.313" /></g></g></g></g></svg>