<?xml version="1.0" encoding="utf-8"?>
<!-- Generator: Adobe Illustrator 25.2.1, SVG Export Plug-In . SVG Version: 6.00 Build 0)  -->
<svg version="1.1" id="Layer_1" xmlns="http://www.w3.org/2000/svg" xmlns:xlink="http://www.w3.org/1999/xlink" x="0px" y="0px"
	 width="50px" height="50px" viewBox="0 0 50 50" style="enable-background:new 0 0 50 50;" xml:space="preserve">
<style type="text/css">
	.st0{fill:#FF4F3C;}
	.st1{fill:none;stroke:#FFFFFF;stroke-width:2;}
</style>
<path class="st0" d="M25,0L25,0c13.8,0,25,11.2,25,25l0,0c0,13.8-11.2,25-25,25l0,0C11.2,50,0,38.8,0,25l0,0C0,11.2,11.2,0,25,0z"/>
<path class="st1" d="M15.8,17.7c1.3-1.8,3.1-3.2,5.3-3.9c5.9-2,12.3,1.1,14.3,7.1c2,6-1.1,12.3-7.1,14.3c-5.7,2-12.2-1.1-14.3-7.1"
	/>
<path class="st1" d="M15.7,10v7.8l7.1,0.9"/>
</svg>
