<svg width="30" height="30" viewBox="0 0 30 30" fill="none" xmlns="http://www.w3.org/2000/svg">
<path d="M23.5335 9.74294C23.5335 9.94732 23.5479 10.1517 23.5479 10.3631C23.5479 16.6917 18.6004 24 9.55154 24C6.87523 24.007 4.24955 23.26 2 21.8505C2.3906 21.8998 2.78119 21.921 3.17902 21.9139C5.38517 21.9139 7.53345 21.1951 9.26944 19.8701C7.17179 19.8067 5.33454 18.4677 4.69078 16.5226C4.99458 16.579 5.31284 16.6072 5.62387 16.6001C6.05787 16.6072 6.49186 16.5508 6.91139 16.4451C4.61844 15.9799 2.97649 14.0137 2.96926 11.7374V11.688C3.64919 12.0545 4.41591 12.2589 5.18987 12.28C3.02712 10.8635 2.36166 8.05155 3.67812 5.86684C6.1736 8.86906 9.85533 10.6943 13.8192 10.8846C13.7396 10.5252 13.7034 10.1587 13.7034 9.79227C13.7034 7.14948 15.9024 5 18.6148 5C19.9747 5 21.2767 5.5497 22.2098 6.5152C23.3092 6.30378 24.3653 5.90912 25.3273 5.35237C24.9656 6.46587 24.1917 7.40318 23.1646 8.00222C24.141 7.88241 25.0958 7.6287 26 7.24814C25.3418 8.21364 24.5099 9.05934 23.5335 9.74294Z" fill="white"/>
</svg>
