<?xml version="1.0" encoding="utf-8"?>
<!-- Generator: Adobe Illustrator 25.2.1, SVG Export Plug-In . SVG Version: 6.00 Build 0)  -->
<svg version="1.1" id="Layer_1" xmlns="http://www.w3.org/2000/svg" xmlns:xlink="http://www.w3.org/1999/xlink" x="0px" y="0px"
	 viewBox="0 0 75 34" style="enable-background:new 0 0 75 34;" xml:space="preserve">
<style type="text/css">
	.st0{fill:#000040;}
	.st1{fill:#FFFFFF;}
</style>
<path class="st0" d="M75,0H0v34h75V0z"/>
<path class="st1" d="M11.4,13.4v0.8c0,1.4-0.6,2.1-1.9,2.1h-1c-1.3,0-1.9-0.7-1.9-2.1V6c0-1.4,0.6-2.1,1.9-2.1h1
	c1.3,0,1.9,0.7,1.9,2.1v1.4H9.8V6.1c0-0.5-0.2-0.7-0.7-0.7H8.7c-0.4,0-0.6,0.2-0.6,0.7v8c0,0.5,0.2,0.7,0.6,0.7h0.4
	c0.4,0,0.6-0.2,0.6-0.7v-0.7L11.4,13.4L11.4,13.4z"/>
<path class="st1" d="M16.9,16.3H13V3.8h1.6v10.9h2.2L16.9,16.3L16.9,16.3z"/>
<path class="st1" d="M18.4,16.3V3.8H20v12.4H18.4z"/>
<path class="st1" d="M25,11.1l1.5-7.3h1.8v12.4h-1.6l0.2-8.1L25.6,14h-1.2l-1.2-5.9l0.2,8.1h-1.6V3.8h1.8L25,11.1z"/>
<path class="st1" d="M31.5,16.3h-1.6V6c0-1.4,0.6-2.1,1.9-2.1H33c1.3,0,1.9,0.7,1.9,2.1v10.3h-1.6v-4.6h-1.9V16.3z M33.3,10.2V6.1
	c0-0.5-0.2-0.7-0.7-0.7h-0.4c-0.5,0-0.7,0.2-0.7,0.7v4.1H33.3z"/>
<path class="st1" d="M38.8,5.4v10.9h-1.6V5.4h-1.6V3.8h4.7v1.5H38.8z"/>
<path class="st1" d="M41.3,16.3V3.8h4v1.5h-2.4v3.8H45v1.5h-2.1v4.1h2.4v1.5L41.3,16.3L41.3,16.3z"/>
<path class="st1" d="M14,24.5L9.9,21v1.5c0,0-2.4,0-4.2-2.1c-1-1.3-1.3-3-0.9-4.7c0-0.1,0-0.1,0-0.2c0-0.1-0.1-0.1-0.1-0.1
	s-0.1,0-0.2,0c-0.1,0-0.1,0-0.1,0.1C3.6,16.6,3,18.4,3.1,20c0.2,2,0.9,3.4,2.3,4.7c2,1.9,4.4,1.7,4.4,1.7v1.5L14,24.5z"/>
<path class="st1" d="M15.2,30.3V18h1.6v12.3H15.2z"/>
<path class="st1" d="M21.7,23.9v-6h1.6v12.3h-1.6v-2.5L20,22.2v8.1h-1.6V18H20L21.7,23.9z"/>
<path class="st1" d="M27.4,19.5v10.8h-1.6V19.5h-1.5V18h4.7v1.5H27.4z"/>
<path class="st1" d="M29.9,30.3V18h4v1.5h-2.4v3.7h2.1v1.5h-2.1v4.1h2.4v1.5H29.9z"/>
<path class="st1" d="M35,18h3.2c1.2,0,1.8,0.7,1.8,2.1v3c0,1.1-0.3,1.8-1,2l1.1,5.1h-1.5l-1.1-5h-1v5H35L35,18L35,18z M36.6,23.9
	h1.1c0.5,0,0.7-0.3,0.7-0.9v-2.7c0-0.6-0.2-0.9-0.7-0.9h-1.1V23.9z"/>
<path class="st1" d="M42.9,30.3h-1.6V20.1c0-1.4,0.6-2.1,1.9-2.1h1.2c1.3,0,1.9,0.7,1.9,2.1v10.2h-1.6v-4.5h-1.8L42.9,30.3
	L42.9,30.3z M44.7,24.3v-4.1c0-0.5-0.2-0.7-0.7-0.7h-0.4c-0.5,0-0.7,0.2-0.7,0.7v4.1H44.7z"/>
<path class="st1" d="M52.6,27.4v0.8c0,1.4-0.6,2.1-1.9,2.1h-1c-1.3,0-1.9-0.7-1.9-2.1v-8.1c0-1.4,0.6-2.1,1.9-2.1h1
	c1.3,0,1.9,0.7,1.9,2.1v1.4h-1.6v-1.3c0-0.5-0.2-0.7-0.7-0.7h-0.3c-0.4,0-0.6,0.2-0.6,0.7v7.9c0,0.5,0.2,0.7,0.6,0.7h0.4
	c0.4,0,0.6-0.2,0.6-0.7v-0.7H52.6z"/>
<path class="st1" d="M56.4,19.5v10.8h-1.6V19.5h-1.5V18h4.7v1.5H56.4z"/>
<path class="st1" d="M58.8,30.3V18h1.6v12.3H58.8z"/>
<path class="st1" d="M67.2,18l-1.9,12.3h-1.9L61.4,18H63l1.3,9.4l1.3-9.4L67.2,18z"/>
<path class="st1" d="M67.9,30.3h4v-1.5h-2.4v-4.1h2.1v-1.5h-2.1v-3.7h2.4V18h-4V30.3z"/>
<path class="st1" d="M57.7,11.7c-0.2-2-0.9-3.4-2.3-4.7c-2-1.9-4.4-1.7-4.4-1.7V3.8l-4.1,3.4l4.1,3.4V9.1c0,0,2.4,0,4.2,2.1
	c1,1.3,1.3,3,0.9,4.7c0,0.1,0,0.1,0,0.2c0,0.1,0.1,0.1,0.1,0.1c0.1,0,0.1,0,0.2,0c0.1,0,0.1,0,0.1-0.1C57.2,15,57.8,13.3,57.7,11.7z
	"/>
</svg>
