<svg width="75" height="34" viewBox="0 0 75 34" fill="none" xmlns="http://www.w3.org/2000/svg">
<path d="M75 0H0V34H75V0Z" fill="#000040"/>
<path d="M11.3884 13.36V14.1561C11.3884 15.5633 10.7414 16.267 9.44748 16.267H8.40203C7.1085 16.267 6.46195 15.5633 6.46237 14.1561V5.95668C6.46237 4.54898 7.10892 3.84491 8.40203 3.84448H9.44622C10.7397 3.84448 11.3867 4.54855 11.3871 5.95668V7.35814H9.7676V6.07815C9.7676 5.59442 9.52562 5.35212 9.04165 5.35126H8.72152C8.2949 5.35126 8.08001 5.5942 8.08001 6.07815V14.0352C8.08001 14.5198 8.29385 14.7621 8.72152 14.7621H9.12609C9.5546 14.7621 9.7676 14.5205 9.7676 14.0352V13.3607H11.3871L11.3884 13.36Z" fill="white"/>
<path d="M16.8589 16.2676H13.0148V3.84509H14.635V14.7647H16.8614V16.2708L16.8589 16.2676Z" fill="white"/>
<path d="M18.3675 16.2676V3.84509H19.9864V16.2676H18.3675Z" fill="white"/>
<path d="M24.9918 11.1464L26.4941 3.84509H28.2832V16.2676H26.6624L26.8306 8.13604L25.6169 14.021H24.3679L23.1523 8.14121L23.3219 16.2728H21.7023V3.84509H23.4907L24.9918 11.1464Z" fill="white"/>
<path d="M31.4737 16.2676H29.8535V5.97348C29.8535 4.55501 30.5001 3.84534 31.7932 3.84448H33.0101C34.3019 3.84448 34.9485 4.55523 34.9497 5.97671V16.267H33.3295V11.7169H31.4737V16.2676ZM33.3295 10.2121V6.07686C33.3295 5.59313 33.0934 5.35083 32.6212 5.34996H32.1801C31.7079 5.34996 31.4718 5.59226 31.4718 6.07686V10.2121H33.3295Z" fill="white"/>
<path d="M38.8284 5.35122V16.2708H37.2095V5.35122H35.6568V3.84509H40.383V5.35122H38.8284Z" fill="white"/>
<path d="M41.2552 16.2676V3.84509H45.2712V5.35122H42.8766V9.12333H45.0003V10.6275H42.8747V14.7628H45.2693V16.2682H41.2552V16.2676Z" fill="white"/>
<path d="M13.9916 24.4554L9.86149 21.007V22.5331C9.86149 22.5331 7.42464 22.5648 5.68474 20.408C4.64182 19.1158 4.37084 17.3712 4.76911 15.7171C4.7821 15.6618 4.77599 15.6036 4.75183 15.5523C4.72766 15.5011 4.68694 15.46 4.63658 15.4361C4.58622 15.4122 4.52934 15.4069 4.4756 15.4212C4.42187 15.4354 4.37461 15.4683 4.34186 15.5142C3.56549 16.6495 2.99141 18.3759 3.14454 20.0055C3.33359 22.0304 4.07908 23.43 5.42574 24.6621C7.45362 26.5146 9.86464 26.3776 9.86464 26.3776V27.9044L13.9916 24.4554Z" fill="white"/>
<path d="M15.2475 30.3139V17.9728H16.8589V30.3139H15.2475Z" fill="white"/>
<path d="M21.7049 23.9352V17.9689H23.3143V30.3138H21.7049V27.8553L19.9769 22.234V30.3138H18.3675V17.9727H19.9769L21.7049 23.9352Z" fill="white"/>
<path d="M27.3883 19.4653V30.3138H25.7789V19.4653H24.2356V17.9695H28.9323V19.4653H27.3883Z" fill="white"/>
<path d="M29.8535 30.3139V17.9728H33.8438V19.4686H31.4636V23.2161H33.5759V24.7113H31.4636V28.8174H33.8438V30.3139H29.8535Z" fill="white"/>
<path d="M35.0008 17.9695H38.1516C39.3817 17.9695 39.9972 18.6748 39.998 20.0856V23.1314C39.998 24.2083 39.6791 24.8898 39.0414 25.1758L40.165 30.3164H38.6406L37.5851 25.3283H36.6121V30.3144H35.002V17.9734L35.0008 17.9695ZM36.6108 23.9184H37.667C38.1485 23.9184 38.389 23.6201 38.3886 23.0235V20.3595C38.3886 19.7629 38.148 19.4648 37.667 19.4653H36.6108V23.9184Z" fill="white"/>
<path d="M42.8653 30.3138H41.2552V20.0856C41.2552 18.6748 41.8979 17.9695 43.1835 17.9695H44.3903C45.6766 17.9695 46.3196 18.6748 46.3192 20.0856V30.3138H44.7091V25.7909H42.8646V30.3138H42.8653ZM44.7091 24.2944V20.1883C44.7091 19.7063 44.4753 19.4653 44.0052 19.4653H43.5691C43.0995 19.4653 42.8646 19.7063 42.8646 20.1883V24.2944H44.7091Z" fill="white"/>
<path d="M52.5572 27.4256V28.2152C52.5572 29.6134 51.9144 30.3127 50.6289 30.3131H49.5879C48.3027 30.3131 47.66 29.6138 47.6596 28.2152V20.0681C47.6596 18.6686 48.3023 17.9691 49.5879 17.9695H50.6276C51.914 17.9695 52.5568 18.669 52.556 20.0681V21.4599H50.9465V20.1883C50.9465 19.7063 50.7062 19.4653 50.2256 19.4653H49.9105C49.4862 19.4653 49.2738 19.7063 49.2734 20.1883V28.095C49.2734 28.5776 49.487 28.8174 49.9105 28.8174H50.3138C50.7379 28.8174 50.9503 28.5776 50.9503 28.095V27.4256H52.5572Z" fill="white"/>
<path d="M56.3804 19.4653V30.3138H54.7697V19.4653H53.2277V17.9695H57.9237V19.4653H56.3804Z" fill="white"/>
<path d="M58.845 30.3139V17.9728H60.4539V30.3139H58.845Z" fill="white"/>
<path d="M67.179 17.9695L65.233 30.3138H63.3211L61.3764 17.9727H62.9695L64.2777 27.3926L65.5853 17.9727L67.179 17.9695Z" fill="white"/>
<path d="M67.932 30.3138H71.9229V28.8174H69.5428V24.7086H71.6563V23.2135H69.5428V19.4653H71.9229V17.9695H67.932V30.3138Z" fill="white"/>
<path d="M57.6635 11.6698C57.4744 9.64484 56.7289 8.24532 55.3823 7.01315C53.3537 5.1607 50.9434 5.29832 50.9434 5.29832V3.77087L46.8151 7.21991L50.9452 10.6683V9.14215C50.9452 9.14215 53.3821 9.11049 55.122 11.2673C56.1649 12.5595 56.4359 14.3041 56.0376 15.9582C56.0243 16.0137 56.0302 16.0722 56.0543 16.1237C56.0785 16.1753 56.1194 16.2166 56.17 16.2406C56.2206 16.2645 56.2777 16.2697 56.3317 16.2552C56.3856 16.2407 56.4329 16.2074 56.4655 16.1611C57.24 15.0258 57.8141 13.2993 57.6635 11.6698Z" fill="white"/>
</svg>
