<?xml version="1.0" encoding="utf-8"?>
<!-- Generator: Adobe Illustrator 25.2.1, SVG Export Plug-In . SVG Version: 6.00 Build 0)  -->
<svg version="1.1" id="Layer_1" xmlns="http://www.w3.org/2000/svg" xmlns:xlink="http://www.w3.org/1999/xlink" x="0px" y="0px"
	 viewBox="0 0 255 26" style="enable-background:new 0 0 255 26;" xml:space="preserve">
<style type="text/css">
	.st0{fill:#FFFFFF;}
	.st1{fill:#000040;}
</style>
<path class="st0" d="M39.4,3.2c0-1.6,0-1.9-1-1.9l-0.4,0c-0.1-0.1-0.1-0.3,0-0.4c0.8,0,1.3,0,2,0c0.6,0,1.2,0,2,0
	c0.1,0,0.1,0.3,0,0.4l-0.4,0c-0.9,0.1-1,0.3-1,1.9v5.4c0,1.6,0,1.8,1,1.9l0.4,0c0.1,0.1,0.1,0.3,0,0.4c-0.8,0-1.3,0-2,0
	c-0.7,0-1.2,0-2,0c-0.1,0-0.1-0.3,0-0.4l0.4,0c0.9-0.1,1-0.3,1-1.9V3.2z"/>
<path class="st0" d="M51.8,8.7c0,0.4,0,1.9,0,2.3c0,0.1-0.1,0.1-0.3,0.1c-0.2-0.2-0.6-0.7-1.7-2l-3.1-3.4c-0.4-0.4-1.3-1.5-1.6-1.8
	h0C45,4.1,45,4.4,45,4.8v2.8c0,0.6,0,2.3,0.2,2.7c0.1,0.1,0.4,0.2,0.7,0.2l0.4,0c0.1,0.1,0.1,0.3,0,0.3c-0.6,0-1.1,0-1.6,0
	c-0.6,0-0.9,0-1.4,0c-0.1-0.1-0.1-0.2,0-0.3l0.4,0c0.3,0,0.5-0.1,0.6-0.3c0.2-0.5,0.2-2.1,0.2-2.7V3.9c0-0.4,0-0.6-0.3-0.9
	c-0.2-0.2-0.5-0.3-0.8-0.3l-0.2,0c-0.1-0.1-0.1-0.3,0-0.3c0.6,0,1.3,0,1.5,0c0.2,0,0.4,0,0.6,0c0.3,0.7,1.9,2.4,2.3,2.9l1.3,1.4
	c0.9,1,1.6,1.7,2.2,2.4h0c0.1-0.1,0.1-0.3,0.1-0.5V5.6c0-0.6,0-2.3-0.3-2.7c-0.1-0.1-0.3-0.2-0.8-0.3l-0.2,0c-0.1-0.1-0.1-0.3,0-0.3
	c0.6,0,1.1,0,1.6,0c0.6,0,0.9,0,1.4,0c0.1,0.1,0.1,0.2,0,0.3l-0.2,0C52.3,2.7,52,2.8,52,2.9c-0.2,0.5-0.2,2.1-0.2,2.7L51.8,8.7"/>
<path class="st0" d="M56.4,11.1c-1.1,0-1.9-0.3-2.1-0.5c-0.2-0.3-0.3-1.2-0.4-1.8c0.1-0.1,0.3-0.1,0.3,0c0.2,0.7,0.8,1.9,2.3,1.9
	c1.1,0,1.7-0.7,1.7-1.5c0-0.6-0.1-1.2-1.1-1.8l-1.3-0.8c-0.7-0.4-1.5-1.2-1.5-2.2c0-1.2,1-2.2,2.8-2.2c0.4,0,0.9,0.1,1.3,0.2
	c0.2,0,0.4,0.1,0.5,0.1c0.1,0.3,0.2,1,0.2,1.6C59.1,4,58.9,4,58.8,4c-0.2-0.6-0.5-1.5-1.8-1.5c-1.3,0-1.6,0.8-1.6,1.4
	c0,0.8,0.7,1.3,1.2,1.6l1.1,0.6c0.9,0.5,1.7,1.3,1.7,2.5C59.3,10.1,58.2,11.1,56.4,11.1z"/>
<path class="st0" d="M65,8.9c0,1.4,0,1.5,0.8,1.6l0.4,0c0.1,0.1,0.1,0.3,0,0.3c-0.8,0-1.2,0-1.8,0c-0.5,0-1,0-1.9,0
	c-0.1,0-0.1-0.3,0-0.3l0.5,0c0.8-0.1,0.8-0.3,0.8-1.6V3.1c0-0.4,0-0.4-0.4-0.4h-0.7c-0.6,0-1.3,0-1.7,0.3c-0.3,0.3-0.5,0.6-0.6,0.9
	c-0.1,0.1-0.3,0-0.4-0.1c0.2-0.6,0.4-1.4,0.5-1.9c0,0,0.2,0,0.3,0c0.1,0.4,0.5,0.4,1.2,0.4h5.5c0.7,0,0.9,0,1.1-0.4
	c0.1,0,0.2,0,0.2,0c-0.2,0.5-0.2,1.6-0.2,2c-0.1,0.1-0.3,0.1-0.4,0c0-0.3-0.1-0.8-0.3-0.9c-0.3-0.2-0.8-0.3-1.6-0.3h-1
	c-0.4,0-0.4,0-0.4,0.4L65,8.9z"/>
<path class="st0" d="M70.7,4.3c0-1.4,0-1.6-0.8-1.7l-0.3,0c-0.1-0.1-0.1-0.3,0-0.3c0.7,0,1.1,0,1.7,0c0.5,0,1,0,1.7,0
	c0.1,0,0.1,0.3,0,0.3l-0.3,0c-0.8,0.1-0.8,0.3-0.8,1.7v4.6c0,1.4,0,1.6,0.8,1.6l0.3,0c0.1,0.1,0.1,0.3,0,0.3c-0.7,0-1.1,0-1.7,0
	c-0.6,0-1,0-1.7,0c-0.1,0-0.1-0.2,0-0.3l0.3,0c0.8-0.1,0.8-0.3,0.8-1.6V4.3z"/>
<path class="st0" d="M78.5,8.9c0,1.4,0,1.5,0.8,1.6l0.4,0c0.1,0.1,0.1,0.3,0,0.3c-0.8,0-1.2,0-1.8,0c-0.5,0-1,0-1.9,0
	c-0.1,0-0.1-0.3,0-0.3l0.5,0c0.8-0.1,0.8-0.3,0.8-1.6V3.1c0-0.4,0-0.4-0.4-0.4h-0.7c-0.6,0-1.3,0-1.7,0.3c-0.3,0.3-0.5,0.6-0.6,0.9
	c-0.1,0.1-0.3,0-0.4-0.1c0.2-0.6,0.4-1.4,0.5-1.9c0,0,0.2,0,0.3,0c0.1,0.4,0.5,0.4,1.2,0.4H81c0.7,0,0.9,0,1.1-0.4
	c0.1,0,0.2,0,0.2,0c-0.2,0.5-0.2,1.6-0.2,2c-0.1,0.1-0.3,0.1-0.4,0c0-0.3-0.1-0.8-0.3-0.9c-0.3-0.2-0.8-0.3-1.6-0.3h-1
	c-0.4,0-0.4,0-0.4,0.4V8.9z"/>
<path class="st0" d="M90.6,5.6c0-0.8,0-2.3-0.3-2.7c-0.1-0.2-0.3-0.2-0.7-0.3l-0.3,0c-0.1-0.1-0.1-0.3,0-0.3c0.5,0,1,0,1.5,0
	c0.6,0,0.9,0,1.4,0c0.1,0.1,0.1,0.2,0,0.3l-0.3,0c-0.3,0-0.6,0.1-0.7,0.3c-0.2,0.4-0.2,1.9-0.2,2.6V7c0,1.1-0.2,2.3-0.9,3.1
	c-0.6,0.6-1.6,0.9-2.6,0.9c-0.9,0-1.9-0.2-2.5-0.7c-0.7-0.6-1.1-1.5-1.1-3.1V4.2c0-1.3,0-1.6-0.8-1.6l-0.3,0c-0.1-0.1-0.1-0.3,0-0.3
	c0.7,0,1.1,0,1.7,0c0.6,0,1,0,1.7,0c0.1,0,0.1,0.3,0,0.3l-0.3,0c-0.8,0.1-0.8,0.3-0.8,1.6V7c0,2.1,0.7,3.5,2.8,3.5
	c2,0,2.7-1.5,2.7-3.5V5.6z"/>
<path class="st0" d="M97.5,8.9c0,1.4,0,1.5,0.8,1.6l0.4,0c0.1,0.1,0.1,0.3,0,0.3c-0.8,0-1.2,0-1.8,0c-0.5,0-1,0-1.9,0
	c-0.1,0-0.1-0.3,0-0.3l0.5,0c0.8-0.1,0.8-0.3,0.8-1.6V3.1c0-0.4,0-0.4-0.4-0.4h-0.7c-0.6,0-1.3,0-1.7,0.3c-0.3,0.3-0.5,0.6-0.6,0.9
	c-0.1,0.1-0.3,0-0.4-0.1c0.2-0.6,0.4-1.4,0.5-1.9c0,0,0.2,0,0.3,0c0.1,0.4,0.5,0.4,1.2,0.4h5.5c0.7,0,0.9,0,1.1-0.4
	c0.1,0,0.2,0,0.2,0c-0.2,0.5-0.2,1.6-0.2,2c-0.1,0.1-0.3,0.1-0.4,0c0-0.3-0.1-0.8-0.3-0.9c-0.3-0.2-0.8-0.3-1.6-0.3h-1
	c-0.4,0-0.4,0-0.4,0.4V8.9z"/>
<path class="st0" d="M103.2,4.2c0-1.3,0-1.5-0.8-1.6l-0.2,0c-0.1-0.1-0.1-0.3,0-0.3c0.6,0,1,0,1.6,0h2.5c0.9,0,1.7,0,1.8,0
	c0.1,0.2,0.2,1.2,0.2,1.7c-0.1,0.1-0.3,0.1-0.3,0c-0.2-0.6-0.3-1.1-1-1.2c-0.3-0.1-0.7-0.1-1.3-0.1h-1c-0.4,0-0.4,0-0.4,0.5v2.6
	c0,0.4,0,0.4,0.4,0.4h0.8c0.6,0,1,0,1.2-0.1C106.9,6,107,6,107,5.6l0.1-0.5c0.1-0.1,0.3-0.1,0.4,0c0,0.3-0.1,0.8-0.1,1.3
	c0,0.5,0.1,1,0.1,1.2c-0.1,0.1-0.3,0.1-0.4,0L107,7.2c-0.1-0.2-0.2-0.4-0.4-0.5c-0.2-0.1-0.5-0.1-1-0.1h-0.8c-0.4,0-0.4,0-0.4,0.3
	v1.8c0,0.7,0,1.1,0.3,1.3c0.2,0.2,0.4,0.3,1.6,0.3c1,0,1.4-0.1,1.7-0.2c0.2-0.1,0.6-0.6,1-1.3c0.1-0.1,0.3,0,0.3,0.1
	c-0.1,0.5-0.4,1.5-0.6,1.8c-1.2,0-2.4,0-3.6,0h-1.2c-0.6,0-1,0-1.8,0c-0.1,0-0.1-0.2,0-0.3l0.4,0c0.8-0.1,0.8-0.3,0.8-1.6L103.2,4.2
	z"/>
<path class="st0" d="M115.7,6.2c-0.1,0.2-0.2,0.6-0.3,1c-0.4,1.4-0.8,2.9-1.3,4.3c-0.4,1.2-0.8,1.9-1.1,2.1
	c-0.2,0.2-0.7,0.7-1.5,0.7c-0.6,0-0.9-0.4-0.9-0.7c0-0.3,0.2-0.4,0.3-0.5c0.2-0.2,0.3-0.1,0.4,0.1c0.2,0.3,0.5,0.5,0.8,0.5
	c0.2,0,0.6-0.2,0.9-1.1c0.7-2.2,1.1-4.4,1.8-6.5h-1.1c-0.1-0.1-0.1-0.4,0.1-0.5h1.2c0.4-1.2,0.7-2.2,1.5-3.1
	c0.7-0.8,1.5-1.1,2.3-1.1c0.6,0,1.1,0.3,1.1,0.9c0,0.4-0.4,0.8-0.6,0.8C119,3.2,119,3.1,119,3c0-0.8-0.5-1-0.8-1
	c-0.4,0-0.7,0.3-1.1,0.7c-0.6,0.9-0.9,1.9-1.3,3h1.7c0.1,0.1,0.1,0.3-0.1,0.5L115.7,6.2"/>
<path class="st0" d="M119,6.6c-0.8,1-1.3,2.6-1.4,3.2c0,0.5,0.2,0.8,0.6,0.8c0.3,0,0.6-0.1,1.1-0.7c0.6-0.8,1.2-2.5,1.3-3.2
	c0-0.4-0.1-0.9-0.5-0.9C119.7,6,119.4,6.1,119,6.6z M121.5,7.2c0,0.7-0.4,2-1.4,2.9c-0.8,0.8-1.6,0.9-1.9,0.9
	c-0.9,0-1.4-0.6-1.4-1.7c0.1-0.8,0.6-2.1,1.5-2.9c0.7-0.6,1.3-0.8,1.9-0.8C121,5.6,121.5,6.3,121.5,7.2z"/>
<path class="st0" d="M124.5,6.8l-0.6,1.6h0.1c0.4-0.7,1.1-1.8,1.4-2.2c0.3-0.4,0.7-0.7,1-0.7c0.5,0,0.5,0.4,0.5,0.6
	c0,0.2-0.1,0.6-0.3,0.8c-0.2,0.2-0.4,0.2-0.4-0.1c-0.1-0.3-0.2-0.5-0.3-0.5c-0.1,0-0.3,0.1-0.5,0.4c-0.8,1-1.6,2.6-2.3,4.1
	c-0.1,0.1-0.1,0.2-0.2,0.2c-0.1,0-0.5-0.1-0.4-0.3c0.2-0.5,1-2.8,1.4-4.1c0-0.1,0-0.3-0.1-0.3c-0.4,0-0.7,0.4-1,0.7
	c-0.1,0-0.2-0.1-0.2-0.2c0.4-0.7,0.9-1.2,1.6-1.2C124.8,5.6,124.6,6.4,124.5,6.8z"/>
<path class="st0" d="M131.7,1.9c1.2-0.9,2.6-1.3,4.3-1.3c0.9,0,2.1,0.2,2.8,0.4c0.2,0,0.3,0.1,0.4,0.1c0,0.3,0.1,1.3,0.2,2.2
	c-0.1,0.1-0.3,0.1-0.4,0c-0.2-1-0.9-2.2-3.2-2.2c-2.4,0-4.5,1.5-4.5,4.6c0,3.2,2.1,4.9,4.7,4.9c2,0,2.9-1.3,3.3-2.2
	c0.1-0.1,0.3,0,0.4,0.1c-0.1,0.8-0.5,1.8-0.8,2.1c-0.2,0-0.4,0.1-0.6,0.2c-0.3,0.1-1.5,0.3-2.5,0.3c-1.4,0-2.8-0.3-3.9-1
	c-1.3-0.8-2.2-2.2-2.2-4.2C129.8,4.2,130.5,2.8,131.7,1.9z"/>
<path class="st0" d="M142.9,6.7C142.8,7,142.8,7,143.2,7h1.7c0.4,0,0.4-0.1,0.3-0.4l-0.7-2.1c-0.1-0.3-0.2-0.7-0.3-0.8h0
	c0,0.1-0.2,0.4-0.3,0.8L142.9,6.7z M145.6,7.9c-0.1-0.3-0.1-0.3-0.6-0.3h-2c-0.3,0-0.4,0-0.5,0.3L142,9.2c-0.2,0.6-0.3,0.9-0.3,1.1
	c0,0.2,0.1,0.2,0.4,0.3l0.4,0c0.1,0.1,0.1,0.3,0,0.3c-0.4,0-0.8,0-1.4,0c-0.4,0-0.9,0-1.3,0c-0.1-0.1-0.1-0.3,0-0.3l0.4,0
	c0.3,0,0.6-0.2,0.8-0.6c0.2-0.6,0.6-1.4,1.2-2.9l1.4-3.5c0.2-0.5,0.3-0.7,0.2-0.9c0.3-0.1,0.6-0.3,0.7-0.5c0.1,0,0.2,0,0.2,0.1
	c0.2,0.6,0.4,1.2,0.6,1.7l1.9,5.2c0.4,1.1,0.6,1.3,1.2,1.4l0.4,0c0.1,0.1,0.1,0.3,0,0.3c-0.6,0-1,0-1.6,0c-0.7,0-1.2,0-1.6,0
	c-0.1-0.1-0.1-0.3,0-0.3l0.4,0c0.3,0,0.5-0.1,0.5-0.2c0-0.1-0.1-0.4-0.2-0.7L145.6,7.9z"/>
<path class="st0" d="M151.3,6.1c0,0.2,0,0.4,0,0.4c0,0,0.2,0.1,0.9,0.1c0.5,0,1-0.1,1.4-0.3c0.4-0.3,0.7-0.7,0.7-1.6
	c0-1-0.7-2-2.2-2c-0.8,0-0.9,0.1-0.9,0.4V6.1z M150.2,4.3c0-1.2,0-1.5-0.6-1.5l-0.4-0.1c-0.1-0.1-0.1-0.3,0-0.3
	c0.8-0.1,1.7-0.1,3-0.1c0.8,0,1.6,0.1,2.3,0.4c0.7,0.3,1.1,0.9,1.1,1.8c0,1.2-1,1.9-1.7,2.2c-0.1,0.1,0,0.2,0.1,0.3
	c1.1,1.7,1.8,2.7,2.7,3.5c0.2,0.2,0.6,0.3,0.9,0.4c0.1,0,0.1,0.1,0,0.2c-0.1,0-0.3,0.1-0.6,0.1c-1.2,0-1.8-0.3-2.8-1.6
	c-0.4-0.5-0.9-1.4-1.3-2c-0.2-0.3-0.4-0.4-1-0.4c-0.6,0-0.6,0-0.6,0.3v1.6c0,1.4,0,1.5,0.8,1.6l0.3,0c0.1,0.1,0.1,0.3,0,0.3
	c-0.6,0-1.1,0-1.6,0c-0.6,0-1.1,0-1.7,0c-0.1,0-0.1-0.2,0-0.3l0.3,0c0.8-0.1,0.8-0.3,0.8-1.6L150.2,4.3"/>
<path class="st0" d="M160.1,8.7c0,0.5,0,1.1,0.3,1.4c0.3,0.3,0.7,0.4,1.1,0.4c1.2,0,2.1-0.5,2.1-1.8c0-1-0.5-2.2-2.7-2.2
	c-0.7,0-0.8,0.1-0.8,0.3V8.7z M160.1,5.7c0,0.4,0,0.4,0.7,0.4c1.4-0.1,2.1-0.4,2.1-1.7c0-1.3-1-1.8-2-1.8c-0.3,0-0.5,0-0.6,0.1
	c-0.1,0-0.2,0.1-0.2,0.3L160.1,5.7z M159,4c0-1-0.1-1.2-0.7-1.3l-0.4,0c-0.1-0.1-0.1-0.3,0-0.3c0.7-0.1,1.7-0.1,2.9-0.1
	c0.9,0,1.7,0.1,2.3,0.4c0.6,0.3,1,0.8,1,1.6c0,0.9-0.6,1.4-1.4,1.8c0,0.1,0.1,0.2,0.3,0.2c0.7,0.1,1.8,0.8,1.8,2.2
	c0,1.5-1.2,2.5-3.6,2.5c-0.4,0-1.1,0-1.6,0c-0.6,0-1.1,0-1.6,0c-0.1,0-0.1-0.2,0-0.3l0.2,0c0.7-0.1,0.7-0.3,0.7-1.6L159,4"/>
<path class="st0" d="M174.2,6.9c0-2.1-1-4.5-3.6-4.5c-1.4,0-3.2,0.9-3.2,3.8c0,1.9,1,4.4,3.6,4.4C172.7,10.7,174.2,9.5,174.2,6.9z
	 M166.1,6.7c0-2.6,2-4.6,4.8-4.6c3.1,0,4.7,2.2,4.7,4.5c0,2.6-2.1,4.5-4.7,4.5C167.9,11.1,166.1,9,166.1,6.7z"/>
<path class="st0" d="M185.2,8.7c0,0.4,0,1.9,0,2.3c0,0.1-0.1,0.1-0.3,0.1c-0.2-0.2-0.6-0.7-1.7-2l-3.1-3.4c-0.4-0.4-1.3-1.5-1.6-1.8
	h0c-0.1,0.2-0.1,0.5-0.1,0.8v2.8c0,0.6,0,2.3,0.2,2.7c0.1,0.1,0.4,0.2,0.7,0.2l0.4,0c0.1,0.1,0.1,0.3,0,0.3c-0.6,0-1.1,0-1.6,0
	c-0.6,0-0.9,0-1.4,0c-0.1-0.1-0.1-0.2,0-0.3l0.4,0c0.3,0,0.5-0.1,0.6-0.3c0.2-0.5,0.2-2.1,0.2-2.7V3.9c0-0.4,0-0.6-0.3-0.9
	c-0.2-0.2-0.5-0.3-0.8-0.3l-0.2,0c-0.1-0.1-0.1-0.3,0-0.3c0.6,0,1.3,0,1.5,0c0.2,0,0.4,0,0.6,0c0.3,0.7,1.9,2.4,2.3,2.9l1.3,1.4
	c0.9,1,1.6,1.7,2.2,2.4h0c0.1-0.1,0.1-0.3,0.1-0.5V5.6c0-0.6,0-2.3-0.3-2.7c-0.1-0.1-0.3-0.2-0.8-0.3l-0.2,0c-0.1-0.1-0.1-0.3,0-0.3
	c0.6,0,1.1,0,1.6,0c0.6,0,0.9,0,1.4,0c0.1,0.1,0.1,0.2,0,0.3l-0.2,0c-0.4,0.1-0.7,0.2-0.8,0.3c-0.2,0.5-0.2,2.1-0.2,2.7V8.7z"/>
<path class="st0" d="M192.4,5.8c0,0.3,0,0.4,0,0.5c0,0,0.3,0.1,1.1,0.1c0.6,0,1.2-0.1,1.6-0.4c0.4-0.3,0.8-0.8,0.8-1.9
	c0-1.2-0.8-2.3-2.5-2.3c-1,0-1,0.1-1,0.5L192.4,5.8z M191.1,3.6c0-1.4,0-1.7-0.7-1.8l-0.5-0.1c-0.1-0.1-0.1-0.3,0-0.4
	c0.9-0.1,2-0.1,3.5-0.1c1,0,1.9,0.1,2.6,0.5c0.8,0.4,1.3,1.1,1.3,2.1c0,1.4-1.2,2.2-2,2.5c-0.1,0.1,0,0.2,0.1,0.4
	c1.3,2,2.1,3.2,3.2,4c0.3,0.2,0.7,0.4,1.1,0.4c0.1,0,0.1,0.2,0,0.2c-0.1,0-0.4,0.1-0.7,0.1c-1.3,0-2.1-0.4-3.3-1.9
	c-0.4-0.6-1.1-1.6-1.6-2.3c-0.2-0.3-0.5-0.5-1.1-0.5c-0.7,0-0.7,0-0.7,0.3V9c0,1.6,0,1.8,0.9,1.9l0.3,0c0.1,0.1,0.1,0.3,0,0.4
	c-0.7,0-1.2,0-1.9,0c-0.7,0-1.2,0-2,0c-0.1,0-0.1-0.3,0-0.4l0.4,0c0.9-0.1,0.9-0.3,0.9-1.9V3.6z"/>
<path class="st0" d="M201,4.7c0-1.3,0-1.5-0.8-1.6l-0.2,0c-0.1-0.1-0.1-0.3,0-0.3c0.6,0,1,0,1.6,0h2.5c0.9,0,1.7,0,1.8,0
	c0.1,0.2,0.2,1.2,0.2,1.7c-0.1,0.1-0.3,0.1-0.3,0c-0.2-0.6-0.3-1.1-1-1.2c-0.3-0.1-0.7-0.1-1.3-0.1h-1c-0.4,0-0.4,0-0.4,0.5v2.6
	c0,0.4,0,0.4,0.4,0.4h0.8c0.6,0,1,0,1.2-0.1c0.2-0.1,0.3-0.1,0.3-0.5l0.1-0.5c0.1-0.1,0.3-0.1,0.4,0c0,0.3-0.1,0.8-0.1,1.3
	c0,0.5,0.1,1,0.1,1.2c-0.1,0.1-0.3,0.1-0.4,0l-0.1-0.5c-0.1-0.2-0.1-0.4-0.4-0.5c-0.2-0.1-0.5-0.1-1-0.1h-0.8c-0.4,0-0.4,0-0.4,0.3
	v1.8c0,0.7,0,1.1,0.3,1.3c0.2,0.2,0.4,0.3,1.6,0.3c1,0,1.4-0.1,1.7-0.2c0.2-0.1,0.6-0.6,1-1.3c0.1-0.1,0.3,0,0.3,0.1
	c-0.1,0.5-0.4,1.5-0.6,1.8c-1.2,0-2.4,0-3.6,0h-1.2c-0.6,0-1,0-1.8,0c-0.1,0-0.1-0.2,0-0.3l0.4,0c0.8-0.1,0.8-0.3,0.8-1.6L201,4.7z"
	/>
<path class="st0" d="M212.4,7.8c0.3,0.6,0.6,1.2,0.9,1.8h0c0.4-0.6,0.7-1.3,1-1.9l1.3-2.5c0.6-1.2,1-1.9,1-2.5c0.5,0,0.7,0,1,0
	c0.3,0,0.8,0,1.2,0C219,2.7,219,3,219,3l-0.3,0c-0.9,0.1-1,0.3-0.9,1.2c0,1.4,0,3.8,0.1,5.6c0,0.6,0,1,0.7,1.1l0.4,0
	c0.1,0.1,0.1,0.3,0,0.3c-0.6,0-1.1,0-1.6,0c-0.5,0-1.1,0-1.6,0c-0.1-0.1-0.1-0.2,0-0.3l0.4,0c0.7-0.1,0.7-0.3,0.7-1.1l0-5.4h0
	c-0.1,0.1-0.6,1.2-0.9,1.7l-1.2,2.3c-0.6,1.1-1.2,2.4-1.5,3c0,0-0.1,0.1-0.1,0.1c0,0-0.1,0-0.1-0.1c-0.2-0.7-0.9-2-1.2-2.6l-1.2-2.5
	c-0.3-0.6-0.6-1.3-0.9-1.9h0c-0.1,0.8-0.1,1.6-0.1,2.3c0,0.8-0.1,1.9-0.1,3.1c0,1,0.1,1.2,0.6,1.2l0.5,0c0.1,0.1,0.1,0.3,0,0.3
	c-0.5,0-1,0-1.5,0c-0.4,0-0.9,0-1.4,0c-0.1-0.1-0.1-0.3,0-0.3l0.3,0c0.6-0.1,0.8-0.2,0.8-1.1c0.1-0.9,0.2-1.6,0.2-2.9
	c0.1-1.1,0.1-2.2,0.1-2.9c0-0.8-0.1-1-0.9-1.1l-0.2,0c-0.1-0.1-0.1-0.3,0.1-0.3c0.4,0,0.7,0,1.1,0c0.3,0,0.7,0,1.1,0
	c-0.1,0.5,0.3,1.3,0.7,2.1L212.4,7.8z"/>
<path class="st0" d="M228.3,7.4c0-2.1-1-4.5-3.6-4.5c-1.4,0-3.2,0.9-3.2,3.8c0,1.9,1,4.4,3.6,4.4C226.8,11.1,228.3,9.9,228.3,7.4z
	 M220.1,7.1c0-2.6,2-4.6,4.8-4.6c3.1,0,4.7,2.2,4.7,4.5c0,2.6-2.1,4.5-4.7,4.5C222,11.5,220.1,9.5,220.1,7.1z"/>
<path class="st0" d="M231.3,4.1c-0.3-0.7-0.5-1-1.1-1.1l-0.2,0c-0.1-0.1-0.1-0.3,0-0.3c0.4,0,0.8,0,1.4,0c0.6,0,1.1,0,1.6,0
	c0.1,0.1,0.1,0.2,0,0.3l-0.2,0c-0.5,0.1-0.6,0.1-0.6,0.2c0,0.1,0.3,0.8,0.7,1.8c0.6,1.5,1.2,3,1.9,4.5c0.4-0.9,1-2.2,1.3-2.9
	c0.4-0.9,1-2.4,1.3-2.9c0.1-0.3,0.1-0.4,0.1-0.5c0-0.1-0.1-0.2-0.6-0.2l-0.2,0c-0.1-0.1-0.1-0.3,0-0.3c0.4,0,0.9,0,1.4,0
	c0.4,0,0.9,0,1.3,0c0.1,0.1,0.1,0.3,0,0.3l-0.4,0c-0.3,0-0.5,0.2-0.7,0.5c-0.4,0.6-0.9,1.7-1.5,3L236,8.1c-0.5,1.2-1.2,2.7-1.4,3.4
	c0,0-0.1,0-0.2,0c-0.1,0-0.1,0-0.2,0c-0.2-0.5-0.4-1.2-0.6-1.7L231.3,4.1z"/>
<path class="st0" d="M241.9,7.1c-0.1,0.3-0.1,0.3,0.3,0.3h1.7c0.4,0,0.4-0.1,0.3-0.4l-0.7-2.1c-0.1-0.3-0.2-0.7-0.3-0.8h0
	c0,0.1-0.2,0.4-0.3,0.8L241.9,7.1z M244.6,8.3C244.5,8,244.4,8,244,8h-2c-0.3,0-0.4,0-0.5,0.3L241,9.6c-0.2,0.6-0.3,0.9-0.3,1.1
	c0,0.2,0.1,0.2,0.4,0.3l0.4,0c0.1,0.1,0.1,0.3,0,0.3c-0.4,0-0.8,0-1.4,0c-0.4,0-0.9,0-1.3,0c-0.1-0.1-0.1-0.3,0-0.3l0.4,0
	c0.3,0,0.6-0.2,0.8-0.6c0.2-0.6,0.6-1.4,1.2-2.9l1.4-3.5c0.2-0.5,0.3-0.7,0.2-0.9c0.3-0.1,0.6-0.3,0.7-0.5c0.1,0,0.2,0,0.2,0.1
	c0.2,0.6,0.4,1.2,0.6,1.7l1.9,5.2c0.4,1.1,0.6,1.3,1.2,1.4l0.4,0c0.1,0.1,0.1,0.3,0,0.3c-0.6,0-1,0-1.6,0c-0.7,0-1.2,0-1.6,0
	c-0.1-0.1-0.1-0.3,0-0.3l0.4,0c0.3,0,0.5-0.1,0.5-0.2c0-0.1-0.1-0.4-0.2-0.7L244.6,8.3z"/>
<path class="st0" d="M249.2,4.7c0-1.4,0-1.6-0.9-1.6L248,3c-0.1-0.1-0.1-0.3,0-0.3c0.8,0,1.2,0,1.8,0c0.5,0,1,0,1.7,0
	c0.1,0,0.1,0.3,0,0.3l-0.3,0c-0.8,0.1-0.8,0.3-0.8,1.6v4.5c0,0.8,0,1.2,0.3,1.4c0.1,0.1,0.4,0.3,1.5,0.3c1.2,0,1.4-0.1,1.7-0.2
	c0.3-0.2,0.6-0.6,0.9-1.3c0.1-0.1,0.3,0,0.3,0.1c0,0.1-0.4,1.5-0.6,1.8c-0.7,0-2,0-3.4,0h-1.2c-0.6,0-1,0-1.8,0
	c-0.1,0-0.1-0.2,0-0.3l0.4,0c0.8-0.1,0.8-0.3,0.8-1.6L249.2,4.7"/>
<path class="st0" d="M38.8,18.1c0-1.6,0-1.8-1-1.9l-0.4,0c-0.1-0.1-0.1-0.3,0-0.4c0.9,0,1.4,0,2.1,0c0.6,0,1.2,0,1.9,0
	c0.1,0,0.1,0.3,0,0.4l-0.4,0c-0.9,0.1-1,0.3-1,1.9v5.3c0,1,0,1.3,0.3,1.6c0.2,0.2,0.5,0.3,1.7,0.3c1.3,0,1.7-0.1,1.9-0.2
	c0.3-0.2,0.7-0.7,1-1.5c0.1-0.1,0.4,0,0.4,0.1c0,0.2-0.4,1.7-0.7,2.1c-0.8,0-2.3,0-3.9,0h-1.5c-0.7,0-1.2,0-2.1,0
	c-0.1,0-0.1-0.3,0-0.4l0.5,0c0.9-0.1,0.9-0.3,0.9-1.9V18.1z"/>
<path class="st0" d="M48.3,21.6c-0.1,0.3-0.1,0.3,0.3,0.3h1.7c0.4,0,0.4-0.1,0.3-0.4l-0.7-2.1c-0.1-0.3-0.2-0.7-0.3-0.8h0
	c0,0.1-0.2,0.4-0.3,0.8L48.3,21.6z M51,22.8c-0.1-0.3-0.2-0.3-0.6-0.3h-2c-0.3,0-0.4,0-0.5,0.3l-0.5,1.4c-0.2,0.6-0.3,0.9-0.3,1.1
	c0,0.2,0.1,0.2,0.4,0.3l0.4,0c0.1,0.1,0.1,0.3,0,0.3c-0.4,0-0.8,0-1.4,0c-0.4,0-0.9,0-1.3,0c-0.1-0.1-0.1-0.3,0-0.3l0.4,0
	c0.3,0,0.6-0.2,0.8-0.6c0.2-0.6,0.6-1.4,1.2-2.9l1.4-3.5c0.2-0.5,0.3-0.7,0.2-0.9c0.3-0.1,0.6-0.3,0.7-0.5c0.1,0,0.2,0,0.2,0.1
	c0.2,0.6,0.4,1.2,0.6,1.7l1.9,5.2c0.4,1.1,0.6,1.3,1.2,1.4l0.4,0c0.1,0.1,0.1,0.3,0,0.3c-0.6,0-1,0-1.6,0c-0.7,0-1.2,0-1.6,0
	c-0.1-0.1-0.1-0.3,0-0.3l0.4,0c0.3,0,0.5-0.1,0.5-0.2c0-0.1-0.1-0.4-0.2-0.7L51,22.8z"/>
<path class="st0" d="M53.5,17.5c-0.1-0.1-0.1-0.3,0-0.3c0.4,0,1,0,1.4,0c0.4,0,1.1,0,1.5,0c0.1,0,0.1,0.2,0,0.3l-0.3,0
	c-0.3,0-0.4,0.1-0.4,0.2c0,0.2,0.3,0.8,0.7,1.7c0.8,1.6,1.6,3.2,2.3,4.8c0.3-0.6,0.7-1.4,1-2.1c0.1-0.2,0.2-0.5,0.2-0.5
	s0-0.2-0.1-0.3c-0.5-1-1-2.1-1.5-3.1c-0.2-0.4-0.4-0.7-0.9-0.7l-0.3,0c-0.1-0.1-0.1-0.3,0-0.3c0.4,0,0.9,0,1.4,0c0.7,0,1.2,0,1.5,0
	c0.1,0,0.1,0.2,0,0.3l-0.4,0c-0.5,0-0.6,0.1-0.3,0.7c0.3,0.6,0.7,1.5,1,2.3c0.3-0.5,0.5-1,0.8-1.7c0.5-1.1,0.4-1.2,0-1.3l-0.4,0
	c-0.1-0.1-0.1-0.3,0-0.3c0.4,0,0.8,0,1.3,0c0.4,0,1,0,1.3,0c0.1,0,0.1,0.2,0,0.3l-0.4,0c-0.6,0-0.8,0.6-1.1,1.2
	c-0.3,0.5-0.9,1.6-1.1,2.1C61.1,20.9,61,21,61,21c0,0.1,0,0.2,0.1,0.3c0.5,1,0.9,2,1.4,3c0.4-0.9,0.8-1.8,1.2-2.7
	c0.3-0.6,1-2.4,1.1-2.6c0.2-0.5,0.4-1,0.4-1.2c0-0.2-0.2-0.3-0.4-0.3l-0.4,0c-0.1-0.1-0.1-0.3,0-0.3c0.5,0,0.9,0,1.3,0
	c0.5,0,0.9,0,1.3,0c0.1,0,0.1,0.2,0,0.3l-0.3,0c-0.7,0.1-0.8,0.5-1.6,2.3l-1,2.2c-0.6,1.3-1.1,2.6-1.7,4c0,0-0.1,0-0.2,0
	s-0.1,0-0.2,0c-0.4-1.2-1.2-2.8-1.6-3.7c-0.5,0.9-1.3,2.6-1.7,3.7c0,0-0.1,0-0.2,0s-0.1,0-0.2,0c-0.2-0.5-0.8-1.7-0.9-2.1
	c-0.9-1.8-1.7-3.6-2.6-5.4c-0.3-0.5-0.4-0.9-1-0.9L53.5,17.5z"/>
<path class="st0" d="M100.8,23.5c0,1.6,0,1.8,1,1.9l0.4,0c0.1,0.1,0.1,0.3,0,0.4c-0.9,0-1.4,0-2.1,0c-0.7,0-1.2,0-1.9,0
	c-0.1,0-0.1-0.3,0-0.4l0.3,0c0.9-0.1,0.9-0.3,0.9-1.9v-5.6c0-1.3,0-1.6-0.7-1.6l-0.6-0.1c-0.1-0.1-0.1-0.3,0-0.4
	c0.8-0.1,1.8-0.1,3.1-0.1c1.3,0,2.3,0.2,3,0.6c0.7,0.4,1.3,1.2,1.3,2.3c0,1.4-0.9,2.1-1.6,2.4c-0.7,0.3-1.5,0.5-2.2,0.5
	c-0.1,0-0.1-0.3,0-0.3c1.7-0.3,2.3-1.2,2.3-2.5c0-1.5-0.9-2.4-2.5-2.4c-0.8,0-0.9,0.1-0.9,0.5V23.5z"/>
<path class="st0" d="M114.6,21.9c0-2.1-1-4.5-3.6-4.5c-1.4,0-3.2,0.9-3.2,3.8c0,1.9,1,4.4,3.6,4.4C113,25.6,114.6,24.4,114.6,21.9z
	 M106.4,21.6c0-2.6,2-4.6,4.8-4.6c3.1,0,4.7,2.2,4.7,4.5c0,2.6-2.1,4.5-4.7,4.5C108.2,26,106.4,23.9,106.4,21.6z"/>
<path class="st0" d="M117.9,19.2c0-1.4,0-1.6-0.9-1.6l-0.3,0c-0.1-0.1-0.1-0.3,0-0.3c0.8,0,1.2,0,1.8,0c0.5,0,1,0,1.7,0
	c0.1,0,0.1,0.3,0,0.3l-0.3,0c-0.8,0.1-0.8,0.3-0.8,1.6v4.5c0,0.8,0,1.2,0.3,1.4c0.1,0.1,0.4,0.3,1.5,0.3c1.2,0,1.4-0.1,1.7-0.2
	c0.3-0.2,0.6-0.6,0.9-1.3c0.1-0.1,0.3,0,0.3,0.1c0,0.1-0.4,1.5-0.6,1.8c-0.7,0-2,0-3.4,0h-1.2c-0.6,0-1,0-1.8,0
	c-0.1,0-0.1-0.2,0-0.3l0.4,0c0.8-0.1,0.8-0.3,0.8-1.6L117.9,19.2z"/>
<path class="st0" d="M125.4,19.2c0-1.4,0-1.6-0.8-1.7l-0.3,0c-0.1-0.1-0.1-0.3,0-0.3c0.7,0,1.1,0,1.7,0c0.5,0,1,0,1.7,0
	c0.1,0,0.1,0.3,0,0.3l-0.3,0c-0.8,0.1-0.8,0.3-0.8,1.7v4.6c0,1.4,0,1.6,0.8,1.6l0.3,0c0.1,0.1,0.1,0.3,0,0.3c-0.7,0-1.1,0-1.7,0
	c-0.6,0-1,0-1.7,0c-0.1,0-0.1-0.2,0-0.3l0.3,0c0.8-0.1,0.8-0.3,0.8-1.6V19.2z"/>
<path class="st0" d="M130.5,18.1c1-0.7,2.2-1.1,3.7-1.1c0.7,0,1.8,0.1,2.4,0.3c0.2,0,0.3,0.1,0.4,0.1c0,0.3,0.1,1.1,0.2,1.9
	c-0.1,0.1-0.3,0.1-0.4,0c-0.2-0.9-0.8-1.9-2.8-1.9c-2.1,0-3.8,1.3-3.8,3.9c0,2.7,1.8,4.2,4,4.2c1.7,0,2.5-1.1,2.8-1.9
	c0.1-0.1,0.3,0,0.4,0.1c-0.1,0.7-0.4,1.5-0.7,1.8c-0.2,0-0.3,0.1-0.5,0.1c-0.3,0.1-1.3,0.3-2.1,0.3c-1.2,0-2.4-0.2-3.4-0.9
	c-1.1-0.7-1.9-1.9-1.9-3.6C128.8,20.1,129.5,18.9,130.5,18.1z"/>
<path class="st0" d="M142.2,23.8c0,1.4,0.1,1.6,0.8,1.6l0.5,0c0.1,0.1,0.1,0.3,0,0.3c-0.8,0-1.3,0-1.8,0c-0.6,0-1.1,0-1.8,0
	c-0.1,0-0.1-0.2,0-0.3l0.4,0c0.8-0.1,0.8-0.3,0.8-1.6v-0.7c0-0.7,0-0.9-0.4-1.6l-1.6-3c-0.5-0.9-0.7-0.9-1.1-1l-0.4-0.1
	c-0.1-0.1-0.1-0.3,0-0.3c0.4,0,0.9,0,1.6,0c0.6,0,1.1,0,1.4,0c0.1,0,0.1,0.2,0,0.3l-0.2,0c-0.5,0.1-0.6,0.1-0.6,0.2
	c0,0.1,0.4,0.9,0.4,1c0.5,1,1,2,1.5,2.9c0.4-0.7,0.9-1.4,1.3-2.2c0.4-0.7,0.9-1.6,0.9-1.7c0-0.1-0.2-0.2-0.6-0.2l-0.2,0
	c-0.1-0.1-0.1-0.3,0-0.3c0.5,0,0.9,0,1.3,0s0.8,0,1.3,0c0.1,0.1,0.1,0.2,0,0.3l-0.4,0.1c-0.7,0.1-1.1,0.9-1.8,2.1l-0.9,1.4
	c-0.6,1-0.6,1.1-0.6,2.1L142.2,23.8"/>
<path class="st0" d="M0,25.9h26.3V0H0V25.9z"/>
<path class="st1" d="M13.2,24.3h11.3V1.8H13.2V24.3z"/>
<path class="st1" d="M14.3,24.3l-12.4,0V1.8h11.3v21.1L14.3,24.3z"/>
<path class="st0" d="M19.5,11.5v0.3c2.7,0.3,2.9,1.4,2.9,3.9v2.1c0,2.4,0.4,6.4-3.8,6.4c-5.3,0-4.7-5.1-4.7-5.4v-4
	c0-2.2,0.2-2.6,2.8-2.9v-0.3H9.9v0.3c2.3,0.3,2.3,0.9,2.4,2.9v4.4c0,1.6-0.6,6,5.4,6c4.3,0,5.4-2.6,5.4-5.1l0.1-4.3
	c0.1-2.6,0.2-3.7,2-3.9v-0.3L19.5,11.5"/>
<path class="st0" d="M11.6,17v-0.4c-3.6-0.5-3.2-1.3-1.2-6.3l2.8-6.8l3.8,9.3c0.6,1.5,1.7,3.5-1.6,3.8V17h7.5v-0.4
	c-2.1-0.2-2.7-1.8-3.4-3.5L14.2,0h-0.3L9.3,11c-1.5,3.5-2.2,5.4-4.4,5.6V17L11.6,17"/>
<path class="st0" d="M71.2,21.6c-0.1,0.3-0.1,0.3,0.3,0.3h1.5c0.4,0,0.4,0,0.3-0.4l-0.7-1.9c-0.1-0.3-0.2-0.6-0.3-0.8h0
	c0,0.1-0.2,0.3-0.3,0.7L71.2,21.6z M73.6,22.7c-0.1-0.3-0.1-0.3-0.5-0.3h-1.9c-0.3,0-0.4,0-0.5,0.3l-0.4,1.2c-0.2,0.5-0.3,0.9-0.3,1
	c0,0.1,0.1,0.2,0.4,0.2l0.4,0c0.1,0.1,0.1,0.2,0,0.3c-0.3,0-0.7,0-1.3,0c-0.4,0-0.9,0-1.2,0c-0.1,0-0.1-0.2,0-0.3l0.4,0
	c0.3,0,0.6-0.2,0.7-0.6c0.2-0.5,0.6-1.3,1.1-2.7l1.3-3.2c0.2-0.4,0.2-0.7,0.2-0.8c0.3-0.1,0.5-0.3,0.6-0.5c0.1,0,0.2,0,0.2,0.1
	c0.2,0.5,0.4,1.1,0.5,1.6l1.7,4.8c0.4,1,0.5,1.2,1.1,1.3l0.3,0c0.1,0.1,0.1,0.2,0,0.3c-0.5,0-0.9,0-1.5,0c-0.6,0-1.1,0-1.4,0
	c-0.1,0-0.1-0.2,0-0.3l0.4,0c0.3,0,0.4-0.1,0.4-0.2c0-0.1-0.1-0.3-0.2-0.6L73.6,22.7z"/>
<path class="st0" d="M84.6,23.4c0,0.4,0,1.8,0,2.1c0,0.1-0.1,0.1-0.2,0.1c-0.2-0.2-0.5-0.6-1.6-1.8l-2.9-3.1
	c-0.3-0.4-1.2-1.3-1.4-1.6h0c0,0.1-0.1,0.4-0.1,0.8v2.6c0,0.6,0,2.1,0.2,2.5c0.1,0.1,0.3,0.2,0.6,0.2l0.4,0c0.1,0.1,0.1,0.2,0,0.3
	c-0.6,0-1,0-1.5,0c-0.5,0-0.9,0-1.3,0c-0.1-0.1-0.1-0.2,0-0.3l0.3,0c0.3,0,0.5-0.1,0.5-0.2c0.2-0.4,0.2-1.9,0.2-2.5V19
	c0-0.3,0-0.6-0.3-0.9c-0.2-0.2-0.5-0.2-0.8-0.3l-0.2,0c-0.1-0.1-0.1-0.2,0-0.3c0.5,0,1.2,0,1.4,0c0.2,0,0.4,0,0.6,0
	c0.2,0.6,1.7,2.2,2.1,2.6l1.2,1.3c0.8,0.9,1.5,1.6,2,2.2h0c0-0.1,0-0.2,0-0.5v-2.5c0-0.6,0-2.1-0.2-2.5C83.7,18,83.5,18,83,17.9
	l-0.2,0c-0.1-0.1-0.1-0.3,0-0.3c0.6,0,1,0,1.5,0c0.5,0,0.9,0,1.3,0c0.1,0.1,0.1,0.2,0,0.3l-0.2,0c-0.4,0.1-0.6,0.2-0.7,0.2
	c-0.2,0.4-0.2,1.9-0.2,2.5V23.4z"/>
<path class="st0" d="M88.6,23.4c0,0.6,0,1,0.2,1.3c0.3,0.4,0.7,0.5,1.5,0.5c2.4,0,3.5-1.5,3.5-3.7c0-1.3-0.7-3.5-3.9-3.5
	c-0.7,0-1.1,0.1-1.2,0.2c-0.1,0.1-0.1,0.4-0.1,0.9V23.4z M87.6,19.2c0-0.8-0.1-1.1-0.6-1.2l-0.3,0c-0.1-0.1-0.1-0.2,0-0.3
	c1.1-0.1,2.1-0.1,3.1-0.1c1,0,1.9,0.1,2.7,0.4c1.7,0.6,2.5,1.9,2.5,3.5c0,1.5-0.8,2.8-2.2,3.5c-0.8,0.4-1.8,0.6-2.8,0.6
	c-0.8,0-1.6-0.1-2-0.1c-0.5,0-1,0-1.6,0c-0.1,0-0.1-0.2,0-0.3l0.3,0c0.7-0.1,0.7-0.2,0.7-1.5L87.6,19.2z"/>
</svg>
