<svg width="255" height="26" viewBox="0 0 255 26" fill="none" xmlns="http://www.w3.org/2000/svg">
<path d="M39.4365 3.16725C39.4365 1.56197 39.4064 1.30224 38.4734 1.22649L38.0783 1.19763C37.9843 1.1363 38.0144 0.865753 38.1084 0.818857C38.8985 0.847716 39.4365 0.865753 40.0987 0.865753C40.7308 0.865753 41.2688 0.851324 42.0589 0.818857C42.1529 0.865753 42.1868 1.1363 42.089 1.19763L41.6939 1.22649C40.7609 1.30224 40.7308 1.55837 40.7308 3.16725V8.56384C40.7308 10.1691 40.7609 10.3819 41.6939 10.4866L42.089 10.5335C42.183 10.5948 42.1529 10.8653 42.0589 10.9122C41.2688 10.8834 40.7308 10.8653 40.0987 10.8653C39.4365 10.8653 38.8985 10.8798 38.1084 10.9122C38.0144 10.8653 37.9843 10.6236 38.0783 10.5335L38.4734 10.4866C39.4064 10.3819 39.4365 10.1691 39.4365 8.56384V3.16725Z" fill="white"/>
<path d="M51.7732 8.65766C51.7732 9.04725 51.7732 10.5912 51.8145 10.9303C51.7882 11.0097 51.7054 11.0746 51.5587 11.0746C51.3969 10.8545 51.0019 10.4 49.8243 9.11218L46.6827 5.6852C46.3178 5.28118 45.396 4.217 45.1101 3.93202H45.0838C45.0311 4.08714 45.016 4.38655 45.016 4.77615V7.60792C45.016 8.21756 45.0424 9.9058 45.2606 10.2954C45.3546 10.4397 45.6142 10.5154 45.9529 10.5407L46.3742 10.5804C46.457 10.685 46.442 10.8401 46.3479 10.905C45.7384 10.8798 45.2644 10.8654 44.764 10.8654C44.1959 10.8654 43.8309 10.8798 43.3569 10.905C43.2628 10.8401 43.2478 10.6597 43.3305 10.5804L43.6955 10.5407C44.0077 10.5154 44.2222 10.4253 44.2899 10.281C44.478 9.81201 44.4667 8.22838 44.4667 7.60792V3.85627C44.4667 3.49193 44.4517 3.22137 44.1695 2.92196C43.9814 2.7416 43.6541 2.64781 43.3305 2.61173L43.101 2.58648C43.0183 2.50712 43.0183 2.31232 43.1274 2.26182C43.6955 2.3015 44.4141 2.3015 44.6586 2.3015C44.8768 2.3015 45.1063 2.28707 45.2832 2.26182C45.554 2.92557 47.1643 4.63907 47.6007 5.11884L48.9138 6.53293C49.8356 7.54659 50.5128 8.26085 51.1486 8.88492H51.1749C51.2276 8.81999 51.2276 8.61076 51.2276 8.34021V5.56255C51.2276 4.95291 51.2163 3.26466 50.9567 2.87507C50.874 2.75963 50.6595 2.68027 50.1177 2.61534L49.8882 2.59009C49.7942 2.51073 49.8055 2.30511 49.9146 2.26543C50.5391 2.29068 50.9981 2.30511 51.5136 2.30511C52.0967 2.30511 52.4466 2.29068 52.9094 2.26543C53.0185 2.33036 53.0185 2.51073 52.9357 2.59009L52.7476 2.61534C52.3149 2.68027 52.044 2.78489 51.9876 2.8895C51.7581 3.35846 51.7844 4.96734 51.7844 5.56616V8.65766" fill="white"/>
<path d="M56.3933 11.0746C55.257 11.0746 54.5384 10.7355 54.2788 10.5948C54.1171 10.3098 53.9402 9.38634 53.9139 8.7767C53.9816 8.68652 54.1848 8.66126 54.2375 8.73702C54.4406 9.40077 54.9974 10.6706 56.5663 10.6706C57.7025 10.6706 58.2594 9.95631 58.2594 9.17712C58.2594 8.60715 58.139 7.96865 57.1495 7.35901L55.8628 6.55457C55.1856 6.1253 54.3992 5.38579 54.3992 4.32162C54.3992 3.0879 55.4 2.08867 57.1608 2.08867C57.5822 2.08867 58.0675 2.1536 58.4212 2.25821C58.598 2.29789 58.7861 2.33757 58.8952 2.33757C59.0156 2.64781 59.1398 3.37649 59.1398 3.9212C59.0871 4.00056 58.8689 4.03664 58.8011 3.96088C58.6243 3.33681 58.2594 2.49269 56.9614 2.49269C55.6333 2.49269 55.3511 3.33681 55.3511 3.93563C55.3511 4.68957 56.002 5.21985 56.5024 5.53369L57.5859 6.18301C58.44 6.68804 59.279 7.44198 59.279 8.67569C59.279 10.1006 58.154 11.0746 56.3933 11.0746Z" fill="white"/>
<path d="M64.9676 8.91738C64.9676 10.281 64.9939 10.4613 65.7802 10.5407L66.2129 10.5804C66.2957 10.6309 66.2656 10.8653 66.1866 10.905C65.4153 10.8798 64.9525 10.8653 64.4108 10.8653C63.869 10.8653 63.3949 10.8798 62.5296 10.905C62.4468 10.8653 62.4205 10.6453 62.5296 10.5804L63.0187 10.5407C63.79 10.4758 63.8577 10.281 63.8577 8.91738V3.11314C63.8577 2.70912 63.8577 2.6983 63.4514 2.6983H62.7064C62.1233 2.6983 61.3783 2.72355 61.0397 3.02296C60.7162 3.30794 60.5807 3.59292 60.4302 3.91758C60.3211 3.99695 60.133 3.93201 60.0766 3.8274C60.2948 3.24301 60.498 2.41332 60.592 1.89386C60.6334 1.86861 60.8102 1.85418 60.8479 1.89386C60.9306 2.3087 61.3746 2.29788 61.9991 2.29788H67.4846C68.2144 2.29788 68.3386 2.27263 68.5418 1.93354C68.6095 1.90829 68.76 1.91911 68.7863 1.97322C68.6358 2.50711 68.5418 3.55685 68.5832 3.94644C68.5305 4.05106 68.2972 4.05106 68.2295 3.97169C68.1881 3.64703 68.0941 3.16725 67.8909 3.02296C67.5786 2.80291 67.0632 2.6983 66.3182 2.6983H65.3551C64.9488 2.6983 64.9638 2.71273 64.9638 3.13839L64.9676 8.91738Z" fill="white"/>
<path d="M70.6562 4.2711C70.6562 2.8931 70.6299 2.67305 69.8285 2.60812L69.4899 2.58286C69.4071 2.53236 69.4372 2.29788 69.5162 2.2582C70.1934 2.28345 70.6524 2.29788 71.2243 2.29788C71.7661 2.29788 72.2251 2.28345 72.9023 2.2582C72.9851 2.29788 73.0114 2.53236 72.9286 2.58286L72.59 2.60812C71.7924 2.67305 71.7623 2.8931 71.7623 4.2711V8.89213C71.7623 10.2701 71.7886 10.4505 72.59 10.5407L72.9286 10.5804C73.0114 10.6309 72.9813 10.8653 72.9023 10.905C72.2251 10.8798 71.7661 10.8653 71.2243 10.8653C70.6562 10.8653 70.1934 10.8798 69.5162 10.905C69.4334 10.8653 69.4071 10.6597 69.4899 10.5804L69.8285 10.5407C70.6261 10.4505 70.6562 10.2665 70.6562 8.89213V4.2711Z" fill="white"/>
<path d="M78.4818 8.91738C78.4818 10.281 78.5081 10.4613 79.2945 10.5407L79.7271 10.5804C79.8099 10.6309 79.7798 10.8653 79.7008 10.905C78.9295 10.8798 78.4668 10.8653 77.9287 10.8653C77.3907 10.8653 76.9129 10.8798 76.0476 10.905C75.9648 10.8653 75.9385 10.6453 76.0476 10.5804L76.5367 10.5407C77.308 10.4758 77.3757 10.281 77.3757 8.91738V3.11314C77.3757 2.70912 77.3757 2.6983 76.9694 2.6983H76.2244C75.6413 2.6983 74.8963 2.72355 74.5577 3.02296C74.2341 3.30794 74.0987 3.59292 73.9482 3.91758C73.8391 3.99695 73.651 3.93201 73.5946 3.8274C73.8128 3.24301 74.0159 2.41332 74.11 1.89386C74.1514 1.86861 74.3282 1.85418 74.3658 1.89386C74.4486 2.3087 74.8926 2.29788 75.5171 2.29788H81.0026C81.7325 2.29788 81.8566 2.27263 82.0598 1.93354C82.1275 1.90829 82.278 1.91911 82.3043 1.97322C82.1538 2.50711 82.0598 3.55685 82.1012 3.94644C82.0485 4.05106 81.8152 4.05106 81.7475 3.97169C81.7061 3.64703 81.6121 3.16725 81.4089 3.02296C81.0966 2.80291 80.5812 2.6983 79.8362 2.6983H78.8731C78.4668 2.6983 78.4818 2.71273 78.4818 3.13839V8.91738Z" fill="white"/>
<path d="M90.6341 5.5554C90.6341 4.75096 90.6077 3.25752 90.3782 2.86792C90.2842 2.71281 90.0396 2.62263 89.701 2.59377L89.3624 2.56851C89.2796 2.47833 89.3097 2.30879 89.3887 2.25828C89.9042 2.28354 90.4046 2.29796 90.9313 2.29796C91.4994 2.29796 91.8643 2.28354 92.3534 2.25828C92.4625 2.32322 92.4475 2.49276 92.3798 2.56851L92.0562 2.59377C91.7176 2.61902 91.4467 2.73806 91.379 2.904C91.1758 3.33327 91.1909 4.82672 91.1909 5.5518V7.01999C91.1909 8.14909 91.0028 9.34312 90.2428 10.1223C89.6596 10.732 88.6588 11.071 87.6543 11.071C86.7213 11.071 85.7844 10.9015 85.1223 10.3568C84.4037 9.78683 84.0651 8.83809 84.0651 7.29415V4.23151C84.0651 2.88236 84.0387 2.6587 83.2524 2.59377L82.9138 2.56851C82.831 2.51801 82.8611 2.29436 82.9401 2.25828C83.6173 2.28354 84.0763 2.29796 84.6181 2.29796C85.1749 2.29796 85.6189 2.28354 86.2848 2.25828C86.3676 2.29796 86.3939 2.51801 86.3112 2.56851L85.9876 2.59377C85.2013 2.6587 85.1749 2.87875 85.1749 4.23151V7.03442C85.1749 9.12668 85.8522 10.5011 87.9252 10.5011C89.8891 10.5011 90.6341 9.02207 90.6341 7.04524V5.5554Z" fill="white"/>
<path d="M97.5266 8.91738C97.5266 10.281 97.553 10.4613 98.3393 10.5407L98.7719 10.5804C98.8547 10.6309 98.8246 10.8653 98.7456 10.905C97.9743 10.8798 97.5116 10.8653 96.9736 10.8653C96.4355 10.8653 95.9577 10.8798 95.0924 10.905C95.0096 10.8653 94.9833 10.6453 95.0924 10.5804L95.5815 10.5407C96.3528 10.4758 96.4205 10.281 96.4205 8.91738V3.11314C96.4205 2.70912 96.4205 2.6983 96.0142 2.6983H95.2692C94.6861 2.6983 93.9411 2.72355 93.6025 3.02296C93.279 3.30794 93.1435 3.59292 92.993 3.91758C92.8839 3.99695 92.6958 3.93201 92.6394 3.8274C92.8576 3.24301 93.057 2.41332 93.1548 1.89386C93.1962 1.86861 93.373 1.85418 93.4107 1.89386C93.4934 2.3087 93.9374 2.29788 94.5619 2.29788H100.047C100.777 2.29788 100.901 2.27263 101.105 1.93354C101.172 1.90829 101.323 1.91911 101.349 1.97322C101.199 2.50711 101.105 3.55685 101.146 3.94644C101.093 4.05106 100.86 4.05106 100.792 3.97169C100.751 3.64703 100.657 3.16725 100.454 3.02296C100.141 2.80291 99.626 2.6983 98.881 2.6983H97.9179C97.5116 2.6983 97.5266 2.71273 97.5266 3.13839V8.91738Z" fill="white"/>
<path d="M103.215 4.24225C103.215 2.89309 103.189 2.6983 102.388 2.60451L102.169 2.57925C102.087 2.52875 102.117 2.29427 102.196 2.25459C102.779 2.27984 103.238 2.29427 103.795 2.29427H106.342C107.207 2.29427 108.008 2.29427 108.17 2.25459C108.253 2.47464 108.332 3.40895 108.388 3.98252C108.336 4.06188 108.117 4.08713 108.05 4.00777C107.847 3.39812 107.726 2.9436 107.019 2.77405C106.733 2.70912 106.3 2.69469 105.706 2.69469H104.731C104.325 2.69469 104.325 2.71994 104.325 3.21415V5.81144C104.325 6.17579 104.366 6.17579 104.773 6.17579H105.559C106.127 6.17579 106.549 6.15053 106.71 6.09642C106.872 6.04592 106.966 5.96656 107.034 5.6419L107.143 5.10801C107.211 5.02865 107.44 5.02865 107.497 5.12244C107.497 5.43267 107.444 5.94131 107.444 6.43552C107.444 6.90447 107.497 7.39507 107.497 7.68366C107.444 7.77385 107.211 7.77385 107.143 7.69809L107.023 7.19306C106.97 6.95858 106.872 6.76379 106.601 6.69885C106.413 6.64835 106.086 6.63392 105.559 6.63392H104.773C104.366 6.63392 104.325 6.64835 104.325 6.98383V8.81637C104.325 9.50538 104.366 9.94547 104.581 10.1655C104.743 10.3206 105.029 10.4649 106.221 10.4649C107.263 10.4649 107.658 10.4144 107.956 10.2701C108.2 10.1403 108.565 9.68574 108.919 9.01117C109.013 8.94624 109.205 8.98592 109.257 9.10135C109.163 9.55588 108.825 10.5551 108.648 10.905C107.429 10.8798 106.225 10.8653 105.017 10.8653H103.798C103.215 10.8653 102.756 10.8798 101.959 10.905C101.876 10.8653 101.85 10.6597 101.932 10.5804L102.38 10.5407C103.151 10.4758 103.219 10.281 103.219 8.91738L103.215 4.24225Z" fill="white"/>
<path d="M115.684 6.22993C115.601 6.44998 115.495 6.86483 115.371 7.25442C114.939 8.69376 114.544 10.1367 114.1 11.5652C113.72 12.734 113.313 13.4482 113.031 13.6935C112.869 13.8487 112.286 14.3573 111.489 14.3573C110.864 14.3573 110.608 13.9172 110.608 13.6935C110.608 13.4086 110.77 13.2931 110.864 13.2246C111.052 13.0695 111.15 13.1741 111.255 13.34C111.443 13.6394 111.797 13.8198 112.068 13.8198C112.312 13.8198 112.636 13.625 112.922 12.7412C113.614 10.5732 114.058 8.34023 114.709 6.22272H113.584C113.449 6.10728 113.505 5.85837 113.678 5.74294H114.841C115.194 4.57416 115.544 3.56049 116.346 2.65144C117.023 1.88668 117.82 1.57284 118.622 1.57284C119.19 1.57284 119.732 1.91193 119.732 2.43139C119.732 2.83541 119.367 3.23583 119.149 3.23583C119.028 3.23583 118.972 3.12039 118.96 3.0266C118.919 2.24741 118.486 2.01294 118.133 2.01294C117.741 2.01294 117.403 2.27267 117.076 2.71276C116.44 3.58214 116.169 4.63548 115.804 5.73933H117.497C117.591 5.88363 117.565 6.07842 117.361 6.21911H115.684" fill="white"/>
<path d="M118.998 6.57987C118.212 7.59354 117.685 9.13749 117.644 9.82649C117.617 10.281 117.805 10.6562 118.2 10.6562C118.498 10.6562 118.836 10.5407 119.269 9.98161C119.863 9.21685 120.503 7.49975 120.529 6.81435C120.544 6.41033 120.462 5.9558 119.988 5.9558C119.717 5.95941 119.393 6.07484 118.998 6.57987ZM121.466 7.20394C121.425 7.9182 121.034 9.16274 120.029 10.1512C119.19 10.9808 118.456 11.0458 118.091 11.0458C117.226 11.0458 116.654 10.4361 116.737 9.31785C116.79 8.51341 117.294 7.25445 118.212 6.41033C118.915 5.761 119.525 5.56621 120.082 5.56621C121.045 5.56981 121.519 6.25521 121.466 7.20394Z" fill="white"/>
<path d="M124.472 6.80352L123.889 8.44126H123.957C124.363 7.71257 125.025 6.67365 125.379 6.24798C125.691 5.85839 126.03 5.57341 126.368 5.57341C126.843 5.57341 126.91 6.01351 126.91 6.2083C126.91 6.4031 126.79 6.77826 126.624 6.98749C126.463 7.18229 126.244 7.19672 126.192 6.92256C126.124 6.58347 126.041 6.41753 125.906 6.41753C125.785 6.41753 125.635 6.54739 125.432 6.80712C124.604 7.82079 123.848 9.40442 123.129 10.8979C123.076 11.0025 123.009 11.053 122.9 11.053C122.753 11.053 122.358 11.0025 122.452 10.7139C122.629 10.1944 123.483 7.89655 123.848 6.62315C123.889 6.47886 123.863 6.34899 123.739 6.34899C123.385 6.34899 123.02 6.71333 122.775 7.02356C122.64 7.04882 122.546 6.97306 122.557 6.81434C122.99 6.11451 123.505 5.5662 124.156 5.5662C124.837 5.5698 124.593 6.45 124.472 6.80352Z" fill="white"/>
<path d="M131.749 1.9119C132.904 1.04974 134.371 0.624072 136.015 0.624072C136.869 0.624072 138.069 0.790009 138.814 0.988414C139.002 1.03531 139.115 1.06417 139.258 1.04974C139.273 1.39965 139.352 2.35199 139.48 3.27908C139.401 3.3837 139.164 3.40173 139.051 3.30794C138.814 2.27624 138.103 1.09663 135.812 1.09663C133.393 1.09663 131.339 2.56483 131.339 5.70323C131.339 8.88491 133.442 10.6417 136.034 10.6417C138.073 10.6417 138.972 9.3683 139.337 8.47367C139.446 8.39792 139.683 8.42678 139.747 8.535C139.638 9.3214 139.224 10.3242 138.987 10.6128C138.799 10.6417 138.607 10.703 138.434 10.7643C138.088 10.887 136.948 11.1143 135.936 11.1143C134.514 11.1143 133.156 10.8401 132.001 10.1006C130.737 9.26729 129.758 7.88928 129.758 5.9341C129.758 4.24225 130.548 2.80291 131.749 1.9119Z" fill="white"/>
<path d="M142.893 6.69885C142.783 6.99826 142.798 7.00909 143.178 7.00909H144.845C145.236 7.00909 145.267 6.95858 145.142 6.60506L144.413 4.48755C144.303 4.17731 144.183 3.82379 144.1 3.66868H144.074C144.033 3.73361 143.897 4.04384 143.75 4.43344L142.893 6.69885ZM145.571 7.85321C145.477 7.56823 145.421 7.52855 145.014 7.52855H142.968C142.629 7.52855 142.546 7.56823 142.452 7.83878L141.978 9.20236C141.775 9.78675 141.681 10.1367 141.681 10.281C141.681 10.4361 141.749 10.5154 142.072 10.5407L142.52 10.5804C142.614 10.6453 142.614 10.8545 142.494 10.905C142.14 10.8798 141.722 10.8798 141.087 10.8653C140.639 10.8653 140.154 10.8906 139.785 10.905C139.702 10.8545 139.676 10.6453 139.759 10.5804L140.206 10.5407C140.53 10.5154 140.831 10.3711 141.019 9.90579C141.263 9.30697 141.643 8.46285 142.212 7.00909L143.592 3.50274C143.78 3.03378 143.863 2.78848 143.822 2.57926C144.145 2.48907 144.379 2.25459 144.525 2.08505C144.608 2.08505 144.702 2.1103 144.729 2.20048C144.905 2.77044 145.12 3.36927 145.323 3.93923L147.178 9.15907C147.569 10.2773 147.746 10.4721 148.329 10.5371L148.694 10.5768C148.788 10.6417 148.762 10.8509 148.694 10.9014C148.137 10.8762 147.663 10.8617 147.054 10.8617C146.403 10.8617 145.891 10.887 145.496 10.9014C145.387 10.8509 145.376 10.6417 145.47 10.5768L145.861 10.5371C146.147 10.5118 146.335 10.4325 146.335 10.3026C146.335 10.1583 146.267 9.92744 146.158 9.6136L145.571 7.85321Z" fill="white"/>
<path d="M151.343 6.11446C151.343 6.34894 151.343 6.48963 151.384 6.54374C151.425 6.58342 151.629 6.60867 152.317 6.60867C152.806 6.60867 153.318 6.55817 153.713 6.26958C154.078 5.99542 154.39 5.54089 154.39 4.6607C154.39 3.63621 153.728 2.66223 152.223 2.66223C151.384 2.66223 151.343 2.71273 151.343 3.07707V6.11446ZM150.233 4.25668C150.233 3.02296 150.191 2.80291 149.638 2.73798L149.206 2.68748C149.112 2.62255 149.112 2.41332 149.221 2.36282C149.977 2.29788 150.914 2.2582 152.242 2.2582C153.081 2.2582 153.882 2.32314 154.503 2.6478C155.154 2.97246 155.628 3.55685 155.628 4.4659C155.628 5.69962 154.612 6.37419 153.935 6.63392C153.867 6.71329 153.935 6.84315 154.003 6.94416C155.086 8.61797 155.805 9.65689 156.727 10.4C156.956 10.5948 157.295 10.7391 157.66 10.7643C157.727 10.7896 157.742 10.8942 157.675 10.9447C157.554 10.9844 157.336 11.0096 157.08 11.0096C155.929 11.0096 155.237 10.685 154.277 9.37191C153.924 8.89213 153.371 7.9939 152.949 7.4095C152.746 7.12452 152.532 6.99466 151.986 6.99466C151.377 6.99466 151.35 7.00909 151.35 7.27964V8.91377C151.35 10.2774 151.377 10.4325 152.163 10.5371L152.449 10.5768C152.532 10.6417 152.501 10.8617 152.422 10.9014C151.813 10.8762 151.354 10.8617 150.812 10.8617C150.244 10.8617 149.755 10.8762 149.119 10.9014C149.036 10.8617 149.01 10.6669 149.093 10.5768L149.431 10.5371C150.218 10.4469 150.244 10.2774 150.244 8.91377V4.25668" fill="white"/>
<path d="M160.079 8.72258C160.079 9.19154 160.105 9.85168 160.365 10.1367C160.621 10.4361 161.027 10.501 161.433 10.501C162.637 10.501 163.559 9.98155 163.559 8.6829C163.559 7.65841 163.017 6.46077 160.865 6.46077C160.131 6.46077 160.079 6.54013 160.079 6.79986V8.72258ZM160.079 5.71044C160.079 6.07478 160.094 6.10003 160.782 6.07478C162.163 6.02428 162.908 5.63469 162.908 4.41179C162.908 3.1384 161.919 2.65862 160.891 2.65862C160.594 2.65862 160.391 2.68387 160.271 2.73798C160.135 2.77766 160.083 2.84259 160.083 3.07707L160.079 5.71044ZM158.969 3.98612C158.969 3.02657 158.916 2.79209 158.307 2.72716L157.874 2.68748C157.765 2.60811 157.78 2.41332 157.889 2.36281C158.619 2.29788 159.541 2.2582 160.801 2.2582C161.655 2.2582 162.468 2.32313 163.077 2.62254C163.66 2.8967 164.108 3.41616 164.108 4.24585C164.108 5.18016 163.54 5.65994 162.727 6.02428C162.727 6.15414 162.837 6.19382 162.987 6.21908C163.717 6.34894 164.8 6.99827 164.8 8.3871C164.8 9.89497 163.634 10.905 161.196 10.905C160.805 10.905 160.139 10.8653 159.571 10.8653C158.976 10.8653 158.514 10.8906 158.013 10.905C157.93 10.8653 157.904 10.6597 157.987 10.5804L158.231 10.5407C158.95 10.4361 158.976 10.281 158.976 8.91738V3.98612" fill="white"/>
<path d="M174.218 6.94416C174.218 4.8014 173.228 2.48908 170.643 2.48908C169.236 2.48908 167.408 3.41257 167.408 6.25516C167.408 8.17788 168.382 10.6706 171.05 10.6706C172.675 10.6706 174.218 9.50178 174.218 6.94416ZM166.053 6.67361C166.053 4.07632 168.085 2.08867 170.873 2.08867C174.003 2.08867 175.572 4.25669 175.572 6.54375C175.572 9.16629 173.488 11.0746 170.873 11.0746C167.867 11.0746 166.053 9.00757 166.053 6.67361Z" fill="white"/>
<path d="M185.215 8.65766C185.215 9.04725 185.215 10.5912 185.256 10.9303C185.23 11.0097 185.147 11.0746 184.997 11.0746C184.835 10.8545 184.44 10.4 183.262 9.11218L180.121 5.6852C179.756 5.28118 178.834 4.217 178.548 3.93202H178.522C178.469 4.08714 178.454 4.38655 178.454 4.77615V7.60792C178.454 8.21756 178.48 9.9058 178.698 10.2954C178.793 10.4397 179.052 10.5154 179.391 10.5407L179.808 10.5804C179.891 10.685 179.876 10.8401 179.782 10.905C179.172 10.8798 178.698 10.8654 178.198 10.8654C177.63 10.8654 177.265 10.8798 176.791 10.905C176.697 10.8401 176.682 10.6597 176.765 10.5804L177.13 10.5407C177.442 10.5154 177.656 10.4253 177.724 10.281C177.912 9.81201 177.901 8.22838 177.901 7.60792V3.85627C177.901 3.49193 177.886 3.22137 177.604 2.92196C177.416 2.7416 177.088 2.64781 176.765 2.61173L176.535 2.58648C176.452 2.50712 176.452 2.31232 176.561 2.26182C177.13 2.3015 177.848 2.3015 178.093 2.3015C178.311 2.3015 178.54 2.28707 178.717 2.26182C178.988 2.92557 180.598 4.63907 181.031 5.11884L182.344 6.53293C183.266 7.54659 183.943 8.26085 184.579 8.88492H184.605C184.658 8.81999 184.658 8.61076 184.658 8.34021V5.56255C184.658 4.95291 184.643 3.26466 184.387 2.87507C184.304 2.75963 184.09 2.68027 183.548 2.61534L183.319 2.59009C183.225 2.51073 183.24 2.30511 183.345 2.26543C183.966 2.29068 184.428 2.30511 184.944 2.30511C185.527 2.30511 185.877 2.29068 186.34 2.26543C186.449 2.33036 186.449 2.51073 186.366 2.59009L186.178 2.61534C185.745 2.68027 185.474 2.78489 185.418 2.8895C185.188 3.35846 185.215 4.96734 185.215 5.56616V8.65766Z" fill="white"/>
<path d="M192.389 5.76099C192.389 6.03515 192.389 6.20109 192.438 6.26242C192.487 6.30931 192.724 6.33817 193.529 6.33817C194.098 6.33817 194.7 6.27685 195.159 5.94497C195.584 5.62752 195.949 5.09724 195.949 4.06554C195.949 2.8679 195.174 1.73158 193.42 1.73158C192.442 1.73158 192.393 1.79291 192.393 2.21497L192.389 5.76099ZM191.091 3.59298C191.091 2.15364 191.043 1.89391 190.395 1.81816L189.891 1.75683C189.778 1.68108 189.778 1.43938 189.906 1.37806C190.791 1.30231 191.882 1.25541 193.432 1.25541C194.41 1.25541 195.343 1.33116 196.073 1.70994C196.833 2.08871 197.386 2.7705 197.386 3.83106C197.386 5.27039 196.201 6.0604 195.411 6.36342C195.332 6.45361 195.411 6.60511 195.49 6.72776C196.754 8.68295 197.593 9.89502 198.665 10.7572C198.932 10.9844 199.327 11.1504 199.756 11.1828C199.835 11.2117 199.85 11.3344 199.771 11.3957C199.628 11.4426 199.376 11.4714 199.075 11.4714C197.732 11.4714 196.927 11.0927 195.802 9.56315C195.392 9.00401 194.745 7.95787 194.252 7.27608C194.015 6.94421 193.763 6.7927 193.131 6.7927C192.42 6.7927 192.386 6.80713 192.386 7.12457V9.03286C192.386 10.6237 192.416 10.8041 193.334 10.9267L193.665 10.9736C193.759 11.0494 193.729 11.3055 193.635 11.3524C192.924 11.3235 192.386 11.3055 191.754 11.3055C191.092 11.3055 190.52 11.3199 189.778 11.3524C189.684 11.3055 189.651 11.0782 189.748 10.9736L190.143 10.9267C191.061 10.8221 191.091 10.6237 191.091 9.03286V3.59298Z" fill="white"/>
<path d="M200.994 4.68597C200.994 3.33682 200.968 3.14202 200.166 3.04823L199.948 3.02298C199.869 2.97248 199.895 2.738 199.974 2.69832C200.557 2.72357 201.016 2.738 201.573 2.738H204.12C204.986 2.738 205.787 2.738 205.949 2.69832C206.032 2.91837 206.111 3.85267 206.167 4.42624C206.111 4.50561 205.896 4.53086 205.828 4.4515C205.625 3.84185 205.505 3.38733 204.798 3.21778C204.512 3.15285 204.079 3.13842 203.485 3.13842H202.51C202.104 3.13842 202.104 3.16367 202.104 3.65788V6.25517C202.104 6.61951 202.145 6.61951 202.552 6.61951H203.338C203.906 6.61951 204.327 6.59426 204.489 6.54015C204.651 6.48965 204.745 6.41029 204.813 6.08563L204.922 5.55174C204.989 5.47238 205.219 5.47238 205.275 5.56617C205.275 5.8764 205.223 6.38504 205.223 6.87924C205.223 7.3482 205.275 7.8388 205.275 8.12739C205.223 8.21757 204.989 8.21757 204.922 8.14182L204.801 7.63679C204.749 7.40231 204.651 7.20751 204.38 7.14258C204.192 7.09208 203.865 7.07765 203.338 7.07765H202.552C202.145 7.07765 202.104 7.09208 202.104 7.42756V9.2601C202.104 9.9491 202.145 10.3892 202.36 10.6092C202.521 10.7644 202.807 10.9087 203.996 10.9087C205.038 10.9087 205.433 10.8582 205.731 10.7139C205.975 10.584 206.34 10.1295 206.69 9.45489C206.784 9.38996 206.976 9.42964 207.029 9.54508C206.935 9.9996 206.596 10.9988 206.419 11.3488C205.2 11.3235 203.996 11.3091 202.789 11.3091H201.57C200.986 11.3091 200.527 11.3235 199.726 11.3488C199.643 11.3091 199.617 11.1035 199.7 11.0241L200.147 10.9844C200.919 10.9195 200.986 10.7247 200.986 9.3611L200.994 4.68597Z" fill="white"/>
<path d="M212.439 7.83877C212.751 8.44841 213.048 9.04724 213.372 9.6172H213.398C213.763 9.00755 214.102 8.33298 214.44 7.66923L215.712 5.18737C216.337 4.00416 216.713 3.2899 216.743 2.69469C217.202 2.73437 217.488 2.73437 217.759 2.73437C218.097 2.73437 218.545 2.71994 218.963 2.69469C219.045 2.74519 219.045 2.96885 218.978 3.01935L218.692 3.0446C217.838 3.13478 217.729 3.36926 217.744 4.27832C217.77 5.65632 217.785 8.05521 217.894 9.92743C217.936 10.5768 217.921 10.9158 218.556 10.9808L218.989 11.0205C219.072 11.0998 219.057 11.2946 218.963 11.3451C218.406 11.3199 217.853 11.3054 217.364 11.3054C216.89 11.3054 216.28 11.3199 215.727 11.3451C215.633 11.2802 215.618 11.0998 215.701 11.0205L216.092 10.9808C216.754 10.9158 216.754 10.7066 216.754 9.87693L216.713 4.46229H216.686C216.592 4.60658 216.077 5.6455 215.806 6.15053L214.602 8.42316C213.993 9.56669 213.383 10.786 213.139 11.3848C213.112 11.4245 213.056 11.4353 213.003 11.4353C212.977 11.4353 212.909 11.4209 212.883 11.3848C212.653 10.6958 212.002 9.4224 211.69 8.78751L210.471 6.2804C210.185 5.68158 209.903 5.007 209.606 4.41179H209.58C209.527 5.21623 209.485 5.97016 209.444 6.7241C209.403 7.51772 209.35 8.67207 209.35 9.77592C209.35 10.7355 209.433 10.9447 209.96 10.9844L210.475 11.0241C210.569 11.1034 210.558 11.309 210.46 11.3487C210.001 11.3235 209.47 11.309 208.955 11.309C208.522 11.309 208.033 11.3235 207.574 11.3487C207.491 11.2838 207.465 11.089 207.548 11.0241L207.845 10.9844C208.413 10.9195 208.601 10.8293 208.684 9.92021C208.767 9.06166 208.835 8.34741 208.914 7.06319C208.981 5.98459 209.034 4.88074 209.064 4.16649C209.09 3.34762 208.981 3.17807 208.157 3.04821L207.939 3.02296C207.871 2.9436 207.886 2.7488 207.992 2.6983C208.398 2.72355 208.725 2.73798 209.06 2.73798C209.373 2.73798 209.738 2.73798 210.185 2.6983C210.133 3.20333 210.471 4.01137 210.889 4.84106L212.439 7.83877Z" fill="white"/>
<path d="M228.312 7.38435C228.312 5.24158 227.323 2.92927 224.738 2.92927C223.331 2.92927 221.502 3.85275 221.502 6.69535C221.502 8.61807 222.477 11.1107 225.144 11.1107C226.769 11.1107 228.312 9.94196 228.312 7.38435ZM220.148 7.1138C220.148 4.51651 222.179 2.52885 224.971 2.52885C228.098 2.52885 229.67 4.69687 229.67 6.98394C229.67 9.60648 227.586 11.5148 224.971 11.5148C221.961 11.5148 220.148 9.45136 220.148 7.1138Z" fill="white"/>
<path d="M231.269 4.11241C230.957 3.38373 230.754 3.11318 230.174 3.04825L229.93 3.023C229.836 2.94363 229.847 2.76327 229.956 2.69833C230.347 2.72359 230.784 2.73801 231.363 2.73801C231.958 2.73801 232.432 2.72359 233 2.69833C233.094 2.74884 233.12 2.94363 233.026 3.023L232.823 3.04825C232.308 3.11318 232.202 3.19254 232.187 3.29355C232.214 3.42341 232.443 4.12324 232.864 5.11165C233.485 6.61952 234.11 8.11297 234.787 9.59198C235.205 8.73343 235.788 7.39871 236.085 6.70971C236.491 5.82591 237.116 4.35772 237.345 3.80218C237.454 3.52802 237.466 3.38734 237.466 3.29715C237.466 3.20697 237.33 3.10236 236.856 3.05185L236.612 3.0266C236.518 2.94724 236.544 2.75244 236.638 2.70194C237.018 2.72719 237.533 2.74162 238.045 2.74162C238.493 2.74162 238.91 2.72719 239.358 2.70194C239.452 2.75244 239.452 2.96167 239.385 3.0266L238.978 3.05185C238.655 3.07711 238.451 3.23222 238.275 3.50638C237.895 4.11602 237.368 5.16937 236.758 6.49327L236.029 8.09133C235.487 9.28536 234.851 10.7932 234.618 11.4786C234.576 11.5039 234.524 11.5183 234.467 11.5183C234.399 11.5183 234.332 11.5039 234.264 11.4786C234.114 10.9339 233.884 10.2954 233.639 9.75071L231.269 4.11241Z" fill="white"/>
<path d="M241.902 7.13904C241.792 7.43845 241.807 7.44927 242.187 7.44927H243.854C244.245 7.44927 244.272 7.39877 244.151 7.04525L243.421 4.92773C243.312 4.6175 243.192 4.26398 243.109 4.10886H243.083C243.041 4.1738 242.906 4.48403 242.759 4.87362L241.902 7.13904ZM244.58 8.29339C244.486 8.00841 244.43 7.96873 244.023 7.96873H241.977C241.638 7.96873 241.555 8.00841 241.461 8.27896L240.987 9.64254C240.784 10.2269 240.69 10.5768 240.69 10.7211C240.69 10.8763 240.758 10.9556 241.081 10.9809L241.529 11.0206C241.623 11.0855 241.623 11.2947 241.503 11.3452C241.149 11.32 240.731 11.32 240.092 11.3055C239.644 11.3055 239.159 11.3308 238.794 11.3452C238.711 11.2947 238.685 11.0855 238.768 11.0206L239.215 10.9809C239.539 10.9556 239.836 10.8113 240.028 10.346C240.272 9.74716 240.652 8.90304 241.221 7.44927L242.601 3.94293C242.789 3.47397 242.872 3.22867 242.831 3.01944C243.154 2.92926 243.388 2.69478 243.534 2.52523C243.617 2.52523 243.711 2.55049 243.738 2.64067C243.914 3.21063 244.129 3.80945 244.332 4.37942L246.187 9.59926C246.578 10.7175 246.755 10.9123 247.338 10.9773L247.703 11.0169C247.797 11.0819 247.771 11.2911 247.703 11.3416C247.146 11.3164 246.672 11.3019 246.063 11.3019C245.412 11.3019 244.9 11.3272 244.505 11.3416C244.396 11.2911 244.385 11.0819 244.479 11.0169L244.87 10.9773C245.156 10.952 245.344 10.8727 245.344 10.7428C245.344 10.5985 245.276 10.3676 245.167 10.0538L244.58 8.29339Z" fill="white"/>
<path d="M249.242 4.68597C249.242 3.32239 249.215 3.11317 248.361 3.04823L248.023 3.02298C247.94 2.97248 247.966 2.738 248.049 2.69832C248.809 2.72357 249.268 2.738 249.81 2.738C250.337 2.738 250.799 2.72357 251.477 2.69832C251.556 2.738 251.586 2.97248 251.503 3.02298L251.179 3.04823C250.382 3.11317 250.352 3.32239 250.352 4.68597V9.20238C250.352 10.0212 250.393 10.3567 250.638 10.6056C250.788 10.7499 251.044 10.905 252.112 10.905C253.264 10.905 253.546 10.8545 253.764 10.7355C254.035 10.5804 254.385 10.1114 254.659 9.45129C254.742 9.38635 254.998 9.43686 254.998 9.53065C254.998 9.67494 254.618 10.9988 254.43 11.3488C253.738 11.3235 252.455 11.3091 251.059 11.3091H249.814C249.246 11.3091 248.813 11.3235 248.053 11.3488C247.97 11.3091 247.944 11.1035 248.027 11.0241L248.433 10.9844C249.219 10.9051 249.246 10.7247 249.246 9.3611V4.68597" fill="white"/>
<path d="M38.7857 18.0512C38.7857 16.4604 38.7556 16.2187 37.7585 16.1429L37.3635 16.1141C37.2694 16.0528 37.2995 15.7822 37.3936 15.7353C38.2777 15.7642 38.8158 15.7822 39.4478 15.7822C40.0648 15.7822 40.6029 15.7678 41.3929 15.7353C41.487 15.7822 41.5171 16.0528 41.423 16.1141L41.043 16.1429C40.11 16.2187 40.0799 16.4604 40.0799 18.0512V23.3252C40.0799 24.2811 40.1288 24.6743 40.411 24.9629C40.584 25.1289 40.885 25.3128 42.1341 25.3128C43.4773 25.3128 43.8083 25.2515 44.0604 25.1144C44.3765 24.9341 44.7865 24.3857 45.1026 23.6138C45.1966 23.538 45.4976 23.5993 45.4976 23.704C45.4976 23.8699 45.0537 25.4174 44.8355 25.8251C44.0303 25.7962 42.5292 25.7782 40.9001 25.7782H39.4478C38.7819 25.7782 38.2777 25.7926 37.3936 25.8251C37.2995 25.7782 37.2657 25.5365 37.3635 25.4463L37.8376 25.3994C38.7556 25.3092 38.7857 25.0964 38.7857 23.5055V18.0512Z" fill="white"/>
<path d="M48.3306 21.6117C48.2215 21.9111 48.2366 21.9219 48.6166 21.9219H50.2833C50.6746 21.9219 50.7046 21.8714 50.5805 21.5179L49.8506 19.4004C49.7415 19.0902 49.6211 18.7366 49.5383 18.5815H49.512C49.4706 18.6464 49.3352 18.9567 49.1884 19.3463L48.3306 21.6117ZM51.0094 22.766C50.9153 22.4811 50.8589 22.4414 50.4526 22.4414H48.4096C48.071 22.4414 47.9883 22.4811 47.8942 22.7516L47.4202 24.1152C47.217 24.6996 47.1229 25.0495 47.1229 25.1938C47.1229 25.3489 47.1907 25.4283 47.5142 25.4535L47.9619 25.4932C48.056 25.5581 48.056 25.7674 47.9356 25.8179C47.5819 25.7926 47.1643 25.7926 46.5285 25.7782C46.0808 25.7782 45.5954 25.8034 45.2267 25.8179C45.144 25.7674 45.1176 25.5581 45.2004 25.4932L45.6481 25.4535C45.9717 25.4283 46.2726 25.284 46.4608 24.8186C46.7053 24.2198 47.0853 23.3757 47.6534 21.9219L49.0342 18.4156C49.2223 17.9466 49.3051 17.7013 49.2637 17.4921C49.591 17.4019 49.8205 17.1674 49.9672 16.9979C50.05 16.9979 50.1441 17.0231 50.1704 17.1133C50.3472 17.6833 50.5617 18.2821 50.7648 18.8521L52.6197 24.0719C53.0109 25.1902 53.1878 25.385 53.7709 25.4499L54.1359 25.4896C54.2299 25.5545 54.2036 25.7638 54.1359 25.8143C53.5791 25.789 53.105 25.7746 52.4955 25.7746C51.8446 25.7746 51.3292 25.7998 50.9379 25.8143C50.8288 25.7638 50.8175 25.5545 50.9116 25.4896L51.3029 25.4499C51.5888 25.4247 51.7769 25.3453 51.7769 25.2154C51.7769 25.0711 51.7092 24.8403 51.6001 24.5264L51.0094 22.766Z" fill="white"/>
<path d="M53.5189 17.4812C53.4361 17.4019 53.4511 17.2215 53.5603 17.171C53.9252 17.1963 54.5347 17.2107 54.9561 17.2107C55.3361 17.2107 56.0246 17.1963 56.4986 17.171C56.619 17.2107 56.6077 17.3911 56.525 17.4812L56.2127 17.5065C55.9267 17.5317 55.765 17.6111 55.765 17.7265C55.765 17.8817 56.0509 18.5454 56.4685 19.4653C57.2285 21.0886 58.0261 22.7119 58.8124 24.31C59.136 23.6606 59.4897 22.932 59.8546 22.2069C59.9637 21.9616 60.0728 21.7379 60.0728 21.673C60.0728 21.6081 60.0314 21.4926 59.9637 21.3339C59.4897 20.295 58.9893 19.2561 58.4738 18.2171C58.2707 17.8131 58.0675 17.5426 57.6085 17.5029L57.2849 17.4776C57.1909 17.373 57.2022 17.2179 57.3113 17.1674C57.7026 17.1927 58.218 17.2071 58.7598 17.2071C59.437 17.2071 59.9374 17.1927 60.2496 17.1674C60.3437 17.2071 60.3587 17.3766 60.276 17.4776L59.9223 17.5029C59.3956 17.5426 59.3655 17.6328 59.6364 18.2171C59.9073 18.852 60.2986 19.6709 60.6785 20.4753C60.9344 19.9703 61.1789 19.4761 61.4762 18.7763C61.9653 17.6724 61.8975 17.5281 61.4611 17.5029L61.0548 17.4776C60.9607 17.3478 60.9871 17.2035 61.0811 17.1674C61.4461 17.1927 61.8524 17.2071 62.3528 17.2071C62.8005 17.2071 63.3423 17.1927 63.6545 17.1674C63.7486 17.2071 63.7636 17.3766 63.6809 17.4776L63.2896 17.5029C62.7215 17.5426 62.4769 18.127 62.1797 18.6572C61.8938 19.137 61.3257 20.2661 61.1225 20.7206C61.0548 20.8505 61.0021 20.9804 61.0021 21.0309C61.0021 21.0814 61.0284 21.186 61.0962 21.3411C61.5552 22.3404 62.0292 23.3143 62.4769 24.3028C62.8983 23.3937 63.2896 22.4846 63.6959 21.5648C63.9518 20.9407 64.6854 19.2128 64.7795 18.9819C64.9563 18.5129 65.1858 17.9574 65.1858 17.7987C65.1858 17.6183 65.024 17.5137 64.7381 17.4993L64.3468 17.474C64.2377 17.3586 64.2527 17.2143 64.3618 17.1638C64.8773 17.189 65.2422 17.2035 65.6636 17.2035C66.179 17.2035 66.5703 17.189 66.924 17.1638C67.0331 17.2035 67.0444 17.373 66.9503 17.474L66.6945 17.4993C66.0173 17.5642 65.8969 17.9538 65.0842 19.7575L64.0947 21.9508C63.5116 23.2747 62.9585 24.5481 62.4017 25.9369C62.3603 25.9621 62.3076 25.9766 62.2399 25.9766C62.1722 25.9766 62.1045 25.9621 62.0518 25.9369C61.6191 24.7825 60.8328 23.1592 60.4114 22.2502C59.9223 23.1989 59.1097 24.8619 58.7184 25.9369C58.677 25.9621 58.6243 25.9766 58.5566 25.9766C58.4889 25.9766 58.4212 25.9621 58.3534 25.9369C58.1239 25.3922 57.5935 24.2234 57.4204 23.8482C56.5551 22.0445 55.7123 20.2373 54.8319 18.4336C54.5761 17.8997 54.4105 17.5498 53.8424 17.4993L53.5189 17.4812Z" fill="white"/>
<path d="M100.792 23.5055C100.792 25.0964 100.822 25.2948 101.834 25.3994L102.26 25.4463C102.354 25.5221 102.324 25.7782 102.229 25.8251C101.33 25.7962 100.807 25.7782 100.175 25.7782C99.5131 25.7782 98.9412 25.7926 98.249 25.8251C98.1549 25.7782 98.1211 25.5365 98.2189 25.4463L98.55 25.3994C99.468 25.2768 99.4981 25.0964 99.4981 23.5055V17.9142C99.4981 16.6263 99.468 16.3522 98.7569 16.2945L98.1888 16.2331C98.0797 16.1429 98.0947 15.9157 98.2189 15.8544C99.0579 15.7497 100.036 15.7317 101.349 15.7317C102.662 15.7317 103.64 15.8976 104.382 16.3377C105.108 16.7778 105.646 17.5642 105.646 18.6104C105.646 20.0028 104.746 20.7026 104.065 21.0201C103.369 21.3375 102.53 21.4746 101.883 21.4746C101.774 21.4277 101.774 21.2004 101.868 21.1716C103.576 20.8686 104.19 19.9451 104.19 18.6248C104.19 17.153 103.29 16.2007 101.646 16.2007C100.807 16.2007 100.792 16.262 100.792 16.7454V23.5055Z" fill="white"/>
<path d="M114.562 21.857C114.562 19.7142 113.573 17.4019 110.988 17.4019C109.581 17.4019 107.753 18.3254 107.753 21.168C107.753 23.0907 108.727 25.5834 111.394 25.5834C113.02 25.5834 114.562 24.4146 114.562 21.857ZM106.398 21.5865C106.398 18.9892 108.43 17.0015 111.218 17.0015C114.348 17.0015 115.917 19.1695 115.917 21.4566C115.917 24.0791 113.832 25.9874 111.218 25.9874C108.212 25.9874 106.398 23.924 106.398 21.5865Z" fill="white"/>
<path d="M117.9 19.1588C117.9 17.7952 117.873 17.5859 117.019 17.521L116.681 17.4958C116.602 17.4453 116.628 17.2108 116.707 17.1711C117.463 17.1964 117.926 17.2108 118.468 17.2108C118.998 17.2108 119.457 17.1964 120.134 17.1711C120.217 17.2108 120.243 17.4453 120.161 17.4958L119.837 17.521C119.04 17.5859 119.013 17.7952 119.013 19.1588V23.6752C119.013 24.494 119.055 24.8295 119.299 25.0784C119.446 25.2227 119.705 25.3778 120.774 25.3778C121.925 25.3778 122.211 25.3273 122.426 25.2083C122.696 25.0532 123.05 24.5842 123.321 23.9241C123.404 23.8591 123.66 23.9096 123.66 24.0034C123.66 24.1477 123.28 25.4716 123.092 25.8215C122.399 25.7963 121.113 25.7819 119.72 25.7819H118.475C117.907 25.7819 117.474 25.7963 116.714 25.8215C116.632 25.7819 116.605 25.5762 116.688 25.4969L117.094 25.4572C117.881 25.3778 117.907 25.1975 117.907 23.8339L117.9 19.1588Z" fill="white"/>
<path d="M125.386 19.1839C125.386 17.8059 125.36 17.5859 124.559 17.521L124.22 17.4957C124.137 17.4452 124.168 17.2107 124.247 17.171C124.924 17.1963 125.383 17.2107 125.955 17.2107C126.496 17.2107 126.955 17.1963 127.633 17.171C127.715 17.2107 127.742 17.4452 127.659 17.4957L127.32 17.521C126.523 17.5859 126.493 17.8059 126.493 19.1839V23.805C126.493 25.183 126.519 25.3633 127.32 25.4535L127.659 25.4932C127.742 25.5437 127.712 25.7782 127.633 25.8179C126.955 25.7926 126.496 25.7782 125.955 25.7782C125.386 25.7782 124.924 25.7926 124.247 25.8179C124.168 25.7782 124.137 25.5726 124.22 25.4932L124.559 25.4535C125.356 25.3633 125.386 25.1794 125.386 23.805V19.1839Z" fill="white"/>
<path d="M130.533 18.1054C131.523 17.3659 132.783 17.0015 134.19 17.0015C134.92 17.0015 135.951 17.1458 136.587 17.3118C136.749 17.3514 136.843 17.3767 136.967 17.3623C136.982 17.6617 137.05 18.4805 137.155 19.2705C137.087 19.3607 136.884 19.3752 136.79 19.2958C136.587 18.412 135.977 17.4019 134.013 17.4019C131.94 17.4019 130.18 18.6609 130.18 21.3484C130.18 24.0755 131.982 25.5798 134.202 25.5798C135.947 25.5798 136.722 24.4904 137.031 23.722C137.125 23.6571 137.328 23.6823 137.385 23.7725C137.29 24.4471 136.937 25.3056 136.734 25.5509C136.572 25.5762 136.41 25.6303 136.26 25.6808C135.962 25.7854 134.988 25.9802 134.119 25.9802C132.9 25.9802 131.734 25.7457 130.748 25.1109C129.664 24.3966 128.825 23.2134 128.825 21.5396C128.829 20.1038 129.506 18.8701 130.533 18.1054Z" fill="white"/>
<path d="M142.212 23.805C142.212 25.1938 142.294 25.403 143.024 25.4535L143.54 25.4932C143.622 25.5726 143.592 25.7782 143.513 25.8179C142.674 25.7926 142.212 25.7782 141.674 25.7782C141.105 25.7782 140.616 25.7926 139.902 25.8179C139.819 25.7782 139.792 25.5726 139.875 25.4932L140.297 25.4535C141.083 25.3742 141.109 25.1938 141.109 23.805V23.1448C141.109 22.4306 141.068 22.261 140.677 21.5359L139.078 18.5491C138.619 17.6905 138.415 17.6256 138.009 17.5606L137.629 17.4957C137.546 17.4055 137.561 17.2215 137.655 17.171C138.088 17.1963 138.577 17.2107 139.228 17.2107C139.853 17.2107 140.338 17.1963 140.677 17.171C140.797 17.2107 140.797 17.4163 140.718 17.4957L140.541 17.521C140.067 17.6003 139.973 17.6508 139.973 17.7554C139.973 17.8853 140.327 18.6248 140.394 18.7547C140.895 19.7142 141.395 20.7423 141.926 21.6369C142.347 20.9479 142.791 20.194 143.197 19.4437C143.577 18.7691 144.078 17.8853 144.078 17.7302C144.078 17.6508 143.833 17.5606 143.51 17.521L143.265 17.4957C143.171 17.4055 143.182 17.2215 143.291 17.171C143.777 17.1963 144.172 17.2107 144.593 17.2107C145.014 17.2107 145.391 17.1963 145.853 17.171C145.963 17.236 145.974 17.4163 145.88 17.4957L145.5 17.5606C144.796 17.6653 144.39 18.4949 143.713 19.6132L142.859 21.0273C142.249 22.0013 142.223 22.1312 142.223 23.1304V23.805" fill="white"/>
<path d="M0 25.8828H26.3362V5.14984e-05H0V25.8828Z" fill="white"/>
<path d="M13.1568 24.2523H24.4926V1.76047H13.1568V24.2523Z" fill="#000040"/>
<path d="M14.3118 24.292L1.89997 24.2559V1.76407H13.2208V22.8599L14.3118 24.292Z" fill="#000040"/>
<path d="M19.4925 11.4895V11.7853C22.1976 12.0414 22.3895 13.1813 22.3895 15.674V17.7374C22.3895 20.1327 22.7958 24.1801 18.6234 24.1801C13.3299 24.1801 13.9469 19.1118 13.9469 18.7402V14.7144C13.9469 12.5536 14.1952 12.1604 16.7272 11.7889V11.4931H9.85349V11.7889C12.1711 12.1027 12.1899 12.6907 12.2501 14.7144V19.1154C12.2501 20.6882 11.6331 25.0856 17.6189 25.0856C21.9079 25.0856 22.9689 22.5135 23.0291 19.9776L23.1457 15.6776C23.2247 13.0839 23.3376 11.9837 25.0984 11.7889V11.4931H19.4925" fill="white"/>
<path d="M11.6067 17.0123V16.6516C7.99491 16.1213 8.3749 15.3241 10.4178 10.3748L13.2208 3.54247L17.0245 12.8603C17.6415 14.3826 18.7363 16.3125 15.3841 16.6516V17.0123H22.9162V16.6516C20.8018 16.4099 20.2563 14.866 19.5414 13.102L14.1689 0.0433388H13.8378L9.30043 11.0494C7.82561 14.5485 7.1371 16.4568 4.90229 16.648V17.0087H11.6067" fill="white"/>
<path d="M71.1528 21.6442C71.0512 21.9184 71.0663 21.9292 71.4124 21.9292H72.9399C73.3011 21.9292 73.3237 21.8823 73.2146 21.5613L72.5449 19.6205C72.447 19.3355 72.3342 19.0145 72.2589 18.8702H72.2326C72.195 18.9279 72.0708 19.2165 71.9354 19.5736L71.1528 21.6442ZM73.6096 22.7048C73.5231 22.4415 73.4742 22.4054 73.1017 22.4054H71.2281C70.9195 22.4054 70.8443 22.4415 70.7578 22.6904L70.3213 23.9385C70.137 24.476 70.0467 24.7971 70.0467 24.9269C70.0467 25.0712 70.1107 25.1398 70.4079 25.165L70.818 25.2011C70.9045 25.2588 70.9045 25.45 70.7916 25.5005C70.4681 25.4752 70.0843 25.4752 69.5012 25.4644C69.0911 25.4644 68.6433 25.4897 68.3085 25.5005C68.2333 25.4536 68.2107 25.2624 68.2822 25.2011L68.6923 25.165C68.9895 25.1398 69.2641 25.0099 69.4372 24.5806C69.6592 24.0323 70.0091 23.2603 70.5283 21.9256L71.7962 18.7114C71.9692 18.2822 72.0445 18.0549 72.0069 17.8673C72.3041 17.7844 72.5148 17.5715 72.654 17.4164C72.7292 17.4164 72.8158 17.4417 72.8383 17.5246C73.0001 18.0477 73.1995 18.596 73.3839 19.1191L75.0844 23.9024C75.4456 24.9269 75.6036 25.1037 76.1379 25.165L76.4727 25.2011C76.5593 25.2588 76.5329 25.45 76.4727 25.5005C75.9648 25.4752 75.5284 25.4644 74.9716 25.4644C74.3771 25.4644 73.9031 25.4897 73.5456 25.5005C73.4478 25.4536 73.4328 25.2624 73.5193 25.2011L73.8805 25.165C74.1401 25.1398 74.3169 25.0712 74.3169 24.9522C74.3169 24.8223 74.253 24.6059 74.1551 24.3209L73.6096 22.7048Z" fill="white"/>
<path d="M84.5579 23.4407C84.5579 23.7978 84.5579 25.2155 84.5956 25.5221C84.5692 25.5943 84.4977 25.652 84.3585 25.652C84.208 25.45 83.8506 25.0315 82.7708 23.8555L79.8927 20.7135C79.5578 20.3456 78.7151 19.368 78.4517 19.1082H78.4254C78.3765 19.2525 78.3652 19.5231 78.3652 19.8802V22.4775C78.3652 23.0366 78.3877 24.5842 78.5871 24.9413C78.6737 25.0712 78.9107 25.1433 79.2192 25.1686L79.603 25.2047C79.6782 25.2985 79.6632 25.4428 79.5766 25.5041C79.0198 25.4788 78.5834 25.468 78.1244 25.468C77.6014 25.468 77.2666 25.4788 76.8339 25.5041C76.7474 25.4428 76.7361 25.2768 76.8076 25.2047L77.1424 25.1686C77.4283 25.1433 77.6277 25.0604 77.6879 24.9305C77.861 24.5012 77.8497 23.0511 77.8497 22.4775V19.0397C77.8497 18.7078 77.8384 18.4553 77.5751 18.1811C77.402 18.0152 77.1048 17.9322 76.8038 17.8962L76.5931 17.8709C76.5179 17.7988 76.5179 17.622 76.6195 17.5751C77.1424 17.6112 77.7971 17.6112 78.0228 17.6112C78.2222 17.6112 78.4329 17.6004 78.5947 17.5751C78.843 18.1811 80.3216 19.754 80.7166 20.194L81.9205 21.4927C82.7633 22.4198 83.3841 23.0763 83.9673 23.6463H83.9936C84.0425 23.5886 84.0425 23.3974 84.0425 23.1449V20.5981C84.0425 20.0389 84.0312 18.4914 83.7942 18.1342C83.7189 18.026 83.5195 17.9539 83.0267 17.8962L82.816 17.8709C82.7294 17.7988 82.7407 17.6076 82.8423 17.5751C83.4142 17.6004 83.8356 17.6112 84.3059 17.6112C84.8401 17.6112 85.1637 17.6004 85.585 17.5751C85.6829 17.6328 85.6829 17.8024 85.6114 17.8709L85.4383 17.8962C85.0395 17.9539 84.795 18.0513 84.7423 18.1451C84.5316 18.5743 84.5579 20.0498 84.5579 20.5981V23.4407Z" fill="white"/>
<path d="M88.6174 23.4046C88.6174 24.0359 88.6551 24.4146 88.8658 24.7032C89.1404 25.0712 89.6107 25.1902 90.3933 25.1902C92.8011 25.1902 93.8809 23.6787 93.8809 21.4638C93.8809 20.1543 93.2225 17.943 89.9719 17.943C89.2382 17.943 88.8432 18.0368 88.7416 18.109C88.6438 18.1811 88.6174 18.4769 88.6174 19.0144V23.4046ZM87.5979 19.1587C87.5979 18.3254 87.5377 18.0765 87.0147 18.0044L86.7438 17.9683C86.646 17.9106 86.631 17.7194 86.7551 17.6725C87.8086 17.6112 88.8169 17.5787 89.8703 17.5787C90.9125 17.5787 91.7928 17.6508 92.6017 17.9358C94.276 18.5202 95.1225 19.8766 95.1225 21.4458C95.1225 22.9573 94.3663 24.2523 92.9516 24.9918C92.1465 25.4067 91.1269 25.5618 90.1713 25.5618C89.3774 25.5618 88.5836 25.468 88.1472 25.468C87.6242 25.468 87.1802 25.4788 86.5971 25.504C86.5218 25.468 86.4993 25.2768 86.5708 25.2046L86.8567 25.1686C87.5753 25.0748 87.6016 24.9305 87.6016 23.6823L87.5979 19.1587Z" fill="white"/>
</svg>
