<svg version="1.1" id="Layer_1" xmlns="http://www.w3.org/2000/svg" x="0" y="0" viewBox="0 0 255 26" xml:space="preserve"><style type="text/css">.st0{fill:#fff}.st1{fill:#000040}</style><path class="st0" d="M39.4 3.2c0-1.6 0-1.9-1-1.9H38c-.1-.1-.1-.3 0-.4h4c.1 0 .1.3 0 .4h-.4c-.9.1-1 .3-1 1.9v5.4c0 1.6 0 1.8 1 1.9h.4c.1.1.1.3 0 .4h-4c-.1 0-.1-.3 0-.4h.4c.9-.1 1-.3 1-1.9V3.2zM51.8 8.7V11c0 .1-.1.1-.3.1-.2-.2-.6-.7-1.7-2l-3.1-3.4c-.4-.4-1.3-1.5-1.6-1.8-.1.2-.1.5-.1.9v2.8c0 .6 0 2.3.2 2.7.1.1.4.2.7.2h.4c.1.1.1.3 0 .3h-3c-.1-.1-.1-.2 0-.3h.4c.3 0 .5-.1.6-.3.2-.5.2-2.1.2-2.7V3.9c0-.4 0-.6-.3-.9-.2-.2-.5-.3-.8-.3h-.2c-.1-.1-.1-.3 0-.3h2.1c.3.7 1.9 2.4 2.3 2.9l1.3 1.4c.9 1 1.6 1.7 2.2 2.4.1-.1.1-.3.1-.5v-3c0-.6 0-2.3-.3-2.7-.1-.1-.3-.2-.8-.3h-.2c-.1-.1-.1-.3 0-.3h3c.1.1.1.2 0 .3h-.2c-.4.1-.7.2-.7.3-.2.5-.2 2.1-.2 2.7v3.1M56.4 11.1c-1.1 0-1.9-.3-2.1-.5-.2-.3-.3-1.2-.4-1.8.1-.1.3-.1.3 0 .2.7.8 1.9 2.3 1.9 1.1 0 1.7-.7 1.7-1.5 0-.6-.1-1.2-1.1-1.8l-1.3-.8c-.7-.4-1.5-1.2-1.5-2.2 0-1.2 1-2.2 2.8-2.2.4 0 .9.1 1.3.2.2 0 .4.1.5.1.1.3.2 1 .2 1.6 0-.1-.2-.1-.3-.1-.2-.6-.5-1.5-1.8-1.5s-1.6.8-1.6 1.4c0 .8.7 1.3 1.2 1.6l1.1.6c.9.5 1.7 1.3 1.7 2.5-.1 1.5-1.2 2.5-3 2.5zM65 8.9c0 1.4 0 1.5.8 1.6h.4c.1.1.1.3 0 .3h-3.7c-.1 0-.1-.3 0-.3h.5c.8-.1.8-.3.8-1.6V3.1c0-.4 0-.4-.4-.4h-.7c-.6 0-1.3 0-1.7.3-.3.3-.5.6-.6.9-.1.1-.3 0-.4-.1.2-.6.4-1.4.5-1.9h.3c.1.4.5.4 1.2.4h5.5c.7 0 .9 0 1.1-.4h.2c-.2.5-.2 1.6-.2 2-.1.1-.3.1-.4 0 0-.3-.1-.8-.3-.9-.3-.2-.8-.3-1.6-.3h-1c-.4 0-.4 0-.4.4l.1 5.8zM70.7 4.3c0-1.4 0-1.6-.8-1.7h-.3c-.1-.1-.1-.3 0-.3H73c.1 0 .1.3 0 .3h-.3c-.8.1-.8.3-.8 1.7v4.6c0 1.4 0 1.6.8 1.6h.3c.1.1.1.3 0 .3h-3.4c-.1 0-.1-.2 0-.3h.3c.8-.1.8-.3.8-1.6V4.3zM78.5 8.9c0 1.4 0 1.5.8 1.6h.4c.1.1.1.3 0 .3H76c-.1 0-.1-.3 0-.3h.5c.8-.1.8-.3.8-1.6V3.1c0-.4 0-.4-.4-.4h-.7c-.6 0-1.3 0-1.7.3-.3.3-.5.6-.6.9-.1.1-.3 0-.4-.1.2-.6.4-1.4.5-1.9h.3c.1.4.5.4 1.2.4H81c.7 0 .9 0 1.1-.4h.2c-.2.5-.2 1.6-.2 2-.1.1-.3.1-.4 0 0-.3-.1-.8-.3-.9-.3-.2-.8-.3-1.6-.3h-1c-.4 0-.4 0-.4.4v5.8zM90.6 5.6c0-.8 0-2.3-.3-2.7-.1-.2-.3-.2-.7-.3h-.3c-.1-.1-.1-.3 0-.3h2.9c.1.1.1.2 0 .3h-.3c-.3 0-.6.1-.7.3-.2.4-.2 1.9-.2 2.6V7c0 1.1-.2 2.3-.9 3.1-.6.6-1.6.9-2.6.9-.9 0-1.9-.2-2.5-.7-.7-.6-1.1-1.5-1.1-3.1v-3c0-1.3 0-1.6-.8-1.6h-.3c-.1-.1-.1-.3 0-.3h3.4c.1 0 .1.3 0 .3h-.3c-.8.1-.8.3-.8 1.6V7c0 2.1.7 3.5 2.8 3.5 2 0 2.7-1.5 2.7-3.5V5.6zM97.5 8.9c0 1.4 0 1.5.8 1.6h.4c.1.1.1.3 0 .3H95c-.1 0-.1-.3 0-.3h.5c.8-.1.8-.3.8-1.6V3.1c0-.4 0-.4-.4-.4h-.7c-.6 0-1.3 0-1.7.3-.3.3-.5.6-.6.9-.1.1-.3 0-.4-.1.2-.6.4-1.4.5-1.9h.3c.1.4.5.4 1.2.4h5.5c.7 0 .9 0 1.1-.4h.2c-.2.5-.2 1.6-.2 2-.1.1-.3.1-.4 0 0-.3-.1-.8-.3-.9-.3-.2-.8-.3-1.6-.3h-1c-.4 0-.4 0-.4.4v5.8zM103.2 4.2c0-1.3 0-1.5-.8-1.6h-.2c-.1-.1-.1-.3 0-.3H108.1c.1.2.2 1.2.2 1.7-.1.1-.3.1-.3 0-.2-.6-.3-1.1-1-1.2-.3-.1-.7-.1-1.3-.1h-1c-.4 0-.4 0-.4.5v2.6c0 .4 0 .4.4.4h.8c.6 0 1 0 1.2-.1.2-.1.3-.1.3-.5l.1-.5c.1-.1.3-.1.4 0 0 .3-.1.8-.1 1.3s.1 1 .1 1.2c-.1.1-.3.1-.4 0l-.1-.4c-.1-.2-.2-.4-.4-.5-.2-.1-.5-.1-1-.1h-.8c-.4 0-.4 0-.4.3v1.8c0 .7 0 1.1.3 1.3.2.2.4.3 1.6.3 1 0 1.4-.1 1.7-.2.2-.1.6-.6 1-1.3.1-.1.3 0 .3.1-.1.5-.4 1.5-.6 1.8h-6.6c-.1 0-.1-.2 0-.3h.4c.8-.1.8-.3.8-1.6l-.1-4.6zM115.7 6.2c-.1.2-.2.6-.3 1-.4 1.4-.8 2.9-1.3 4.3-.4 1.2-.8 1.9-1.1 2.1-.2.2-.7.7-1.5.7-.6 0-.9-.4-.9-.7 0-.3.2-.4.3-.5.2-.2.3-.1.4.1.2.3.5.5.8.5.2 0 .6-.2.9-1.1.7-2.2 1.1-4.4 1.8-6.5h-1.1c-.1-.1-.1-.4.1-.5h1.2c.4-1.2.7-2.2 1.5-3.1.7-.8 1.5-1.1 2.3-1.1.6 0 1.1.3 1.1.9 0 .4-.4.8-.6.8-.3.1-.3 0-.3-.1 0-.8-.5-1-.8-1-.4 0-.7.3-1.1.7-.6.9-.9 1.9-1.3 3h1.7c.1.1.1.3-.1.5h-1.7M119 6.6c-.8 1-1.3 2.6-1.4 3.2 0 .5.2.8.6.8.3 0 .6-.1 1.1-.7.6-.8 1.2-2.5 1.3-3.2 0-.4-.1-.9-.5-.9-.4.2-.7.3-1.1.8zm2.5.6c0 .7-.4 2-1.4 2.9-.8.8-1.6.9-1.9.9-.9 0-1.4-.6-1.4-1.7.1-.8.6-2.1 1.5-2.9.7-.6 1.3-.8 1.9-.8.8 0 1.3.7 1.3 1.6zM124.5 6.8l-.6 1.6h.1c.4-.7 1.1-1.8 1.4-2.2.3-.4.7-.7 1-.7.5 0 .5.4.5.6 0 .2-.1.6-.3.8-.2.2-.4.2-.4-.1-.1-.3-.2-.5-.3-.5-.1 0-.3.1-.5.4-.8 1-1.6 2.6-2.3 4.1-.1.1-.1.2-.2.2s-.5-.1-.4-.3c.2-.5 1-2.8 1.4-4.1 0-.1 0-.3-.1-.3-.4 0-.7.4-1 .7-.1 0-.2-.1-.2-.2.4-.7.9-1.2 1.6-1.2.6 0 .4.8.3 1.2zM131.7 1.9c1.2-.9 2.6-1.3 4.3-1.3.9 0 2.1.2 2.8.4.2 0 .3.1.4.1 0 .3.1 1.3.2 2.2-.1.1-.3.1-.4 0-.2-1-.9-2.2-3.2-2.2-2.4 0-4.5 1.5-4.5 4.6 0 3.2 2.1 4.9 4.7 4.9 2 0 2.9-1.3 3.3-2.2.1-.1.3 0 .4.1-.1.8-.5 1.8-.8 2.1-.2 0-.4.1-.6.2-.3.1-1.5.3-2.5.3-1.4 0-2.8-.3-3.9-1-1.3-.8-2.2-2.2-2.2-4.2.1-1.7.8-3.1 2-4zM142.9 6.7c-.1.3-.1.3.3.3h1.7c.4 0 .4-.1.3-.4l-.7-2.1c-.1-.3-.2-.7-.3-.8 0 .1-.2.4-.3.8l-1 2.2zm2.7 1.2c-.1-.3-.1-.3-.6-.3h-2c-.3 0-.4 0-.5.3l-.5 1.3c-.2.6-.3.9-.3 1.1 0 .2.1.2.4.3h.4c.1.1.1.3 0 .3h-2.7c-.1-.1-.1-.3 0-.3h.4c.3 0 .6-.2.8-.6.2-.6.6-1.4 1.2-2.9l1.4-3.5c.2-.5.3-.7.2-.9.3-.1.6-.3.7-.5.1 0 .2 0 .2.1.2.6.4 1.2.6 1.7l1.9 5.2c.4 1.1.6 1.3 1.2 1.4h.4c.1.1.1.3 0 .3h-3.2c-.1-.1-.1-.3 0-.3h.4c.3 0 .5-.1.5-.2s-.1-.4-.2-.7l-.7-1.8zM151.3 6.1v.4s.2.1.9.1c.5 0 1-.1 1.4-.3.4-.3.7-.7.7-1.6 0-1-.7-2-2.2-2-.8 0-.9.1-.9.4v3zm-1.1-1.8c0-1.2 0-1.5-.6-1.5l-.4-.1c-.1-.1-.1-.3 0-.3.8-.1 1.7-.1 3-.1.8 0 1.6.1 2.3.4.7.3 1.1.9 1.1 1.8 0 1.2-1 1.9-1.7 2.2-.1.1 0 .2.1.3 1.1 1.7 1.8 2.7 2.7 3.5.2.2.6.3.9.4.1 0 .1.1 0 .2-.1 0-.3.1-.6.1-1.2 0-1.8-.3-2.8-1.6-.4-.5-.9-1.4-1.3-2-.2-.3-.4-.4-1-.4s-.6 0-.6.3v1.6c0 1.4 0 1.5.8 1.6h.3c.1.1.1.3 0 .3h-3.3c-.1 0-.1-.2 0-.3h.3c.8-.1.8-.3.8-1.6V4.3M160.1 8.7c0 .5 0 1.1.3 1.4.3.3.7.4 1.1.4 1.2 0 2.1-.5 2.1-1.8 0-1-.5-2.2-2.7-2.2-.7 0-.8.1-.8.3v1.9zm0-3c0 .4 0 .4.7.4 1.4-.1 2.1-.4 2.1-1.7 0-1.3-1-1.8-2-1.8-.3 0-.5 0-.6.1-.1 0-.2.1-.2.3v2.7zM159 4c0-1-.1-1.2-.7-1.3h-.4c-.1-.1-.1-.3 0-.3.7-.1 1.7-.1 2.9-.1.9 0 1.7.1 2.3.4.6.3 1 .8 1 1.6 0 .9-.6 1.4-1.4 1.8 0 .1.1.2.3.2.7.1 1.8.8 1.8 2.2 0 1.5-1.2 2.5-3.6 2.5H158c-.1 0-.1-.2 0-.3h.2c.7-.1.7-.3.7-1.6L159 4M174.2 6.9c0-2.1-1-4.5-3.6-4.5-1.4 0-3.2.9-3.2 3.8 0 1.9 1 4.4 3.6 4.4 1.7.1 3.2-1.1 3.2-3.7zm-8.1-.2c0-2.6 2-4.6 4.8-4.6 3.1 0 4.7 2.2 4.7 4.5 0 2.6-2.1 4.5-4.7 4.5-3 0-4.8-2.1-4.8-4.4zM185.2 8.7V11c0 .1-.1.1-.3.1-.2-.2-.6-.7-1.7-2l-3.1-3.4c-.4-.4-1.3-1.5-1.6-1.8-.1.2-.1.5-.1.8v2.8c0 .6 0 2.3.2 2.7.1.1.4.2.7.2h.4c.1.1.1.3 0 .3h-3c-.1-.1-.1-.2 0-.3h.4c.3 0 .5-.1.6-.3.2-.5.2-2.1.2-2.7V3.9c0-.4 0-.6-.3-.9-.2-.2-.5-.3-.8-.3h-.2c-.1-.1-.1-.3 0-.3h2.1c.3.7 1.9 2.4 2.3 2.9l1.3 1.4c.9 1 1.6 1.7 2.2 2.4.1-.1.1-.3.1-.5v-3c0-.6 0-2.3-.3-2.7-.1-.1-.3-.2-.8-.3h-.2c-.1-.1-.1-.3 0-.3h3c.1.1.1.2 0 .3h-.2c-.4.1-.7.2-.8.3-.2.5-.2 2.1-.2 2.7v3.1zM192.4 5.8v.5s.3.1 1.1.1c.6 0 1.2-.1 1.6-.4.4-.3.8-.8.8-1.9 0-1.2-.8-2.3-2.5-2.3-1 0-1 .1-1 .5v3.5zm-1.3-2.2c0-1.4 0-1.7-.7-1.8l-.5-.1c-.1-.1-.1-.3 0-.4.9-.1 2-.1 3.5-.1 1 0 1.9.1 2.6.5.8.4 1.3 1.1 1.3 2.1 0 1.4-1.2 2.2-2 2.5-.1.1 0 .2.1.4 1.3 2 2.1 3.2 3.2 4 .3.2.7.4 1.1.4.1 0 .1.2 0 .2s-.4.1-.7.1c-1.3 0-2.1-.4-3.3-1.9-.4-.6-1.1-1.6-1.6-2.3-.2-.3-.5-.5-1.1-.5-.7 0-.7 0-.7.3v2c0 1.6 0 1.8.9 1.9h.3c.1.1.1.3 0 .4h-3.9c-.1 0-.1-.3 0-.4h.4c.9-.1.9-.3.9-1.9V3.6zM201 4.7c0-1.3 0-1.5-.8-1.6h-.2c-.1-.1-.1-.3 0-.3H205.9c.1.2.2 1.2.2 1.7-.1.1-.3.1-.3 0-.2-.6-.3-1.1-1-1.2-.3-.1-.7-.1-1.3-.1h-1c-.4 0-.4 0-.4.5v2.6c0 .4 0 .4.4.4h.8c.6 0 1 0 1.2-.1.2-.1.3-.1.3-.5l.1-.5c.1-.1.3-.1.4 0 0 .3-.1.8-.1 1.3s.1 1 .1 1.2c-.1.1-.3.1-.4 0l-.1-.5c-.1-.2-.1-.4-.4-.5-.2-.1-.5-.1-1-.1h-.8c-.4 0-.4 0-.4.3v1.8c0 .7 0 1.1.3 1.3.2.2.4.3 1.6.3 1 0 1.4-.1 1.7-.2.2-.1.6-.6 1-1.3.1-.1.3 0 .3.1-.1.5-.4 1.5-.6 1.8h-6.6c-.1 0-.1-.2 0-.3h.4c.8-.1.8-.3.8-1.6l-.1-4.5zM212.4 7.8l.9 1.8c.4-.6.7-1.3 1-1.9l1.3-2.5c.6-1.2 1-1.9 1-2.5h2.2c.2 0 .2.3.2.3h-.3c-.9.1-1 .3-.9 1.2 0 1.4 0 3.8.1 5.6 0 .6 0 1 .7 1.1h.4c.1.1.1.3 0 .3h-3.2c-.1-.1-.1-.2 0-.3h.4c.7-.1.7-.3.7-1.1V4.4c-.1.1-.6 1.2-.9 1.7l-1.2 2.3c-.6 1.1-1.2 2.4-1.5 3l-.1.1s-.1 0-.1-.1c-.2-.7-.9-2-1.2-2.6l-1.2-2.5c-.3-.6-.6-1.3-.9-1.9-.1.8-.1 1.6-.1 2.3 0 .8-.1 1.9-.1 3.1 0 1 .1 1.2.6 1.2h.5c.1.1.1.3 0 .3h-2.9c-.1-.1-.1-.3 0-.3h.3c.6-.1.8-.2.8-1.1.1-.9.2-1.6.2-2.9.1-1.1.1-2.2.1-2.9 0-.8-.1-1-.9-1.1h-.2c-.1-.1-.1-.3.1-.3h2.2c-.1.5.3 1.3.7 2.1l1.3 3zM228.3 7.4c0-2.1-1-4.5-3.6-4.5-1.4 0-3.2.9-3.2 3.8 0 1.9 1 4.4 3.6 4.4 1.7 0 3.2-1.2 3.2-3.7zm-8.2-.3c0-2.6 2-4.6 4.8-4.6 3.1 0 4.7 2.2 4.7 4.5 0 2.6-2.1 4.5-4.7 4.5-2.9 0-4.8-2-4.8-4.4zM231.3 4.1c-.3-.7-.5-1-1.1-1.1h-.2c-.1-.1-.1-.3 0-.3h3c.1.1.1.2 0 .3h-.2c-.5.1-.6.1-.6.2s.3.8.7 1.8c.6 1.5 1.2 3 1.9 4.5.4-.9 1-2.2 1.3-2.9.4-.9 1-2.4 1.3-2.9.1-.3.1-.4.1-.5 0-.1-.1-.2-.6-.2h-.2c-.1-.1-.1-.3 0-.3h2.7c.1.1.1.3 0 .3h-.4c-.3 0-.5.2-.7.5-.4.6-.9 1.7-1.5 3l-.8 1.6c-.5 1.2-1.2 2.7-1.4 3.4h-.4c-.2-.5-.4-1.2-.6-1.7l-2.3-5.7zM241.9 7.1c-.1.3-.1.3.3.3h1.7c.4 0 .4-.1.3-.4l-.7-2.1c-.1-.3-.2-.7-.3-.8 0 .1-.2.4-.3.8l-1 2.2zm2.7 1.2c-.1-.3-.2-.3-.6-.3h-2c-.3 0-.4 0-.5.3l-.5 1.3c-.2.6-.3.9-.3 1.1 0 .2.1.2.4.3h.4c.1.1.1.3 0 .3h-2.7c-.1-.1-.1-.3 0-.3h.4c.3 0 .6-.2.8-.6.2-.6.6-1.4 1.2-2.9l1.4-3.5c.2-.5.3-.7.2-.9.3-.1.6-.3.7-.5.1 0 .2 0 .2.1.2.6.4 1.2.6 1.7l1.9 5.2c.4 1.1.6 1.3 1.2 1.4h.4c.1.1.1.3 0 .3h-3.2c-.1-.1-.1-.3 0-.3h.4c.3 0 .5-.1.5-.2s-.1-.4-.2-.7l-.7-1.8zM249.2 4.7c0-1.4 0-1.6-.9-1.6L248 3c-.1-.1-.1-.3 0-.3h3.5c.1 0 .1.3 0 .3h-.3c-.8.1-.8.3-.8 1.6v4.5c0 .8 0 1.2.3 1.4.1.1.4.3 1.5.3 1.2 0 1.4-.1 1.7-.2.3-.2.6-.6.9-1.3.1-.1.3 0 .3.1s-.4 1.5-.6 1.8H248.1c-.1 0-.1-.2 0-.3h.4c.8-.1.8-.3.8-1.6l-.1-4.6M38.8 18.1c0-1.6 0-1.8-1-1.9h-.4c-.1-.1-.1-.3 0-.4h4c.1 0 .1.3 0 .4H41c-.9.1-1 .3-1 1.9v5.3c0 1 0 1.3.3 1.6.2.2.5.3 1.7.3 1.3 0 1.7-.1 1.9-.2.3-.2.7-.7 1-1.5.1-.1.4 0 .4.1 0 .2-.4 1.7-.7 2.1h-7.5c-.1 0-.1-.3 0-.4h.5c.9-.1.9-.3.9-1.9v-5.4zM48.3 21.6c-.1.3-.1.3.3.3h1.7c.4 0 .4-.1.3-.4l-.7-2.1c-.1-.3-.2-.7-.3-.8 0 .1-.2.4-.3.8l-1 2.2zm2.7 1.2c-.1-.3-.2-.3-.6-.3h-2c-.3 0-.4 0-.5.3l-.5 1.4c-.2.6-.3.9-.3 1.1 0 .2.1.2.4.3h.4c.1.1.1.3 0 .3h-2.7c-.1-.1-.1-.3 0-.3h.4c.3 0 .6-.2.8-.6.2-.6.6-1.4 1.2-2.9l1.4-3.5c.2-.5.3-.7.2-.9.3-.1.6-.3.7-.5.1 0 .2 0 .2.1.2.6.4 1.2.6 1.7l1.9 5.2c.4 1.1.6 1.3 1.2 1.4h.4c.1.1.1.3 0 .3H51c-.1-.1-.1-.3 0-.3h.4c.3 0 .5-.1.5-.2s-.1-.4-.2-.7l-.7-1.9zM53.5 17.5c-.1-.1-.1-.3 0-.3h2.9c.1 0 .1.2 0 .3h-.3c-.3 0-.4.1-.4.2 0 .2.3.8.7 1.7.8 1.6 1.6 3.2 2.3 4.8.3-.6.7-1.4 1-2.1.1-.2.2-.5.2-.5s0-.2-.1-.3c-.5-1-1-2.1-1.5-3.1-.2-.4-.4-.7-.9-.7h-.3c-.1-.1-.1-.3 0-.3H60c.1 0 .1.2 0 .3h-.4c-.5 0-.6.1-.3.7s.7 1.5 1 2.3c.3-.5.5-1 .8-1.7.5-1.1.4-1.2 0-1.3h-.4c-.1-.1-.1-.3 0-.3h2.6c.1 0 .1.2 0 .3h-.4c-.6 0-.8.6-1.1 1.2-.3.5-.9 1.6-1.1 2.1.4.1.3.2.3.2 0 .1 0 .2.1.3.5 1 .9 2 1.4 3l1.2-2.7c.3-.6 1-2.4 1.1-2.6.2-.5.4-1 .4-1.2 0-.2-.2-.3-.4-.3h-.4c-.1-.1-.1-.3 0-.3H67c.1 0 .1.2 0 .3h-.3c-.7.1-.8.5-1.6 2.3l-1 2.2c-.6 1.3-1.1 2.6-1.7 4H62c-.4-1.2-1.2-2.8-1.6-3.7-.5.9-1.3 2.6-1.7 3.7h-.4c-.2-.5-.8-1.7-.9-2.1-.9-1.8-1.7-3.6-2.6-5.4-.3-.5-.4-.9-1-.9l-.3-.1zM100.8 23.5c0 1.6 0 1.8 1 1.9h.4c.1.1.1.3 0 .4h-4c-.1 0-.1-.3 0-.4h.3c.9-.1.9-.3.9-1.9v-5.6c0-1.3 0-1.6-.7-1.6l-.6-.1c-.1-.1-.1-.3 0-.4.8-.1 1.8-.1 3.1-.1s2.3.2 3 .6c.7.4 1.3 1.2 1.3 2.3 0 1.4-.9 2.1-1.6 2.4-.7.3-1.5.5-2.2.5-.1 0-.1-.3 0-.3 1.7-.3 2.3-1.2 2.3-2.5 0-1.5-.9-2.4-2.5-2.4-.8 0-.9.1-.9.5v6.7zM114.6 21.9c0-2.1-1-4.5-3.6-4.5-1.4 0-3.2.9-3.2 3.8 0 1.9 1 4.4 3.6 4.4 1.6 0 3.2-1.2 3.2-3.7zm-8.2-.3c0-2.6 2-4.6 4.8-4.6 3.1 0 4.7 2.2 4.7 4.5 0 2.6-2.1 4.5-4.7 4.5-3 0-4.8-2.1-4.8-4.4zM117.9 19.2c0-1.4 0-1.6-.9-1.6h-.3c-.1-.1-.1-.3 0-.3h3.5c.1 0 .1.3 0 .3h-.3c-.8.1-.8.3-.8 1.6v4.5c0 .8 0 1.2.3 1.4.1.1.4.3 1.5.3 1.2 0 1.4-.1 1.7-.2.3-.2.6-.6.9-1.3.1-.1.3 0 .3.1s-.4 1.5-.6 1.8H116.8c-.1 0-.1-.2 0-.3h.4c.8-.1.8-.3.8-1.6l-.1-4.7zM125.4 19.2c0-1.4 0-1.6-.8-1.7h-.3c-.1-.1-.1-.3 0-.3h3.4c.1 0 .1.3 0 .3h-.3c-.8.1-.8.3-.8 1.7v4.6c0 1.4 0 1.6.8 1.6h.3c.1.1.1.3 0 .3h-3.4c-.1 0-.1-.2 0-.3h.3c.8-.1.8-.3.8-1.6v-4.6zM130.5 18.1c1-.7 2.2-1.1 3.7-1.1.7 0 1.8.1 2.4.3.2 0 .3.1.4.1 0 .3.1 1.1.2 1.9-.1.1-.3.1-.4 0-.2-.9-.8-1.9-2.8-1.9-2.1 0-3.8 1.3-3.8 3.9 0 2.7 1.8 4.2 4 4.2 1.7 0 2.5-1.1 2.8-1.9.1-.1.3 0 .4.1-.1.7-.4 1.5-.7 1.8-.2 0-.3.1-.5.1-.3.1-1.3.3-2.1.3-1.2 0-2.4-.2-3.4-.9-1.1-.7-1.9-1.9-1.9-3.6 0-1.3.7-2.5 1.7-3.3zM142.2 23.8c0 1.4.1 1.6.8 1.6h.5c.1.1.1.3 0 .3h-3.6c-.1 0-.1-.2 0-.3h.4c.8-.1.8-.3.8-1.6v-.7c0-.7 0-.9-.4-1.6l-1.6-3c-.5-.9-.7-.9-1.1-1l-.4-.1c-.1-.1-.1-.3 0-.3h3c.1 0 .1.2 0 .3h-.2c-.5.1-.6.1-.6.2s.4.9.4 1c.5 1 1 2 1.5 2.9.4-.7.9-1.4 1.3-2.2.4-.7.9-1.6.9-1.7 0-.1-.2-.2-.6-.2h-.2c-.1-.1-.1-.3 0-.3h2.6c.1.1.1.2 0 .3l-.4.1c-.7.1-1.1.9-1.8 2.1l-.9 1.4c-.6 1-.6 1.1-.6 2.1l.2.7M0 25.9h26.3V0H0v25.9z"/><path class="st1" d="M13.2 24.3h11.3V1.8H13.2v22.5z"/><path class="st1" d="M14.3 24.3H1.9V1.8h11.3v21.1l1.1 1.4z"/><path class="st0" d="M19.5 11.5v.3c2.7.3 2.9 1.4 2.9 3.9v2.1c0 2.4.4 6.4-3.8 6.4-5.3 0-4.7-5.1-4.7-5.4v-4c0-2.2.2-2.6 2.8-2.9v-.3H9.9v.3c2.3.3 2.3.9 2.4 2.9v4.4c0 1.6-.6 6 5.4 6 4.3 0 5.4-2.6 5.4-5.1l.1-4.3c.1-2.6.2-3.7 2-3.9v-.3l-5.7-.1"/><path class="st0" d="M11.6 17v-.4c-3.6-.5-3.2-1.3-1.2-6.3l2.8-6.8 3.8 9.3c.6 1.5 1.7 3.5-1.6 3.8v.4h7.5v-.4c-2.1-.2-2.7-1.8-3.4-3.5L14.2 0h-.3L9.3 11c-1.5 3.5-2.2 5.4-4.4 5.6v.4h6.7M71.2 21.6c-.1.3-.1.3.3.3H73c.4 0 .4 0 .3-.4l-.7-1.9c-.1-.3-.2-.6-.3-.8 0 .1-.2.3-.3.7l-.8 2.1zm2.4 1.1c-.1-.3-.1-.3-.5-.3h-1.9c-.3 0-.4 0-.5.3l-.4 1.2c-.2.5-.3.9-.3 1 0 .1.1.2.4.2h.4c.1.1.1.2 0 .3h-2.5c-.1 0-.1-.2 0-.3h.4c.3 0 .6-.2.7-.6.2-.5.6-1.3 1.1-2.7l1.3-3.2c.2-.4.2-.7.2-.8.3-.1.5-.3.6-.5.1 0 .2 0 .2.1.2.5.4 1.1.5 1.6l1.7 4.8c.4 1 .5 1.2 1.1 1.3h.3c.1.1.1.2 0 .3h-2.9c-.1 0-.1-.2 0-.3h.4c.3 0 .4-.1.4-.2s-.1-.3-.2-.6l-.5-1.6zM84.6 23.4v2.1c0 .1-.1.1-.2.1-.2-.2-.5-.6-1.6-1.8l-2.9-3.1c-.3-.4-1.2-1.3-1.4-1.6 0 .1-.1.4-.1.8v2.6c0 .6 0 2.1.2 2.5.1.1.3.2.6.2h.4c.1.1.1.2 0 .3h-2.8c-.1-.1-.1-.2 0-.3h.3c.3 0 .5-.1.5-.2.2-.4.2-1.9.2-2.5V19c0-.3 0-.6-.3-.9-.2-.2-.5-.2-.8-.3h-.2c-.1-.1-.1-.2 0-.3h2c.2.6 1.7 2.2 2.1 2.6l1.2 1.3c.8.9 1.5 1.6 2 2.2v-3c0-.6 0-2.1-.2-2.5.1-.1-.1-.1-.6-.2h-.2c-.1-.1-.1-.3 0-.3h2.8c.1.1.1.2 0 .3h-.2c-.4.1-.6.2-.7.2-.2.4-.2 1.9-.2 2.5v2.8zM88.6 23.4c0 .6 0 1 .2 1.3.3.4.7.5 1.5.5 2.4 0 3.5-1.5 3.5-3.7 0-1.3-.7-3.5-3.9-3.5-.7 0-1.1.1-1.2.2-.1.1-.1.4-.1.9v4.3zm-1-4.2c0-.8-.1-1.1-.6-1.2h-.3c-.1-.1-.1-.2 0-.3 1.1-.1 2.1-.1 3.1-.1s1.9.1 2.7.4c1.7.6 2.5 1.9 2.5 3.5 0 1.5-.8 2.8-2.2 3.5-.8.4-1.8.6-2.8.6-.8 0-1.6-.1-2-.1h-1.6c-.1 0-.1-.2 0-.3h.3c.7-.1.7-.2.7-1.5l.2-4.5z"/></svg>