<svg viewBox="0 0 66 66" fill="none" xmlns="http://www.w3.org/2000/svg"><rect x="8" width="50" height="50" rx="25" fill="#FF4F3C"/><path d="M18 35.16V15h29v20.16H18zM32.5 15v20.58M21.838 20.46h7.25M35.912 20.46h7.25M21.838 25.08h7.25M35.912 25.08h7.25M21.838 30.12h7.25M35.912 30.12h7.25" stroke="#fff" stroke-width="2"/><path d="M3.809 63h.988v-2.477H6.203L7.533 63h1.124l-1.45-2.65c.802-.297 1.201-.965 1.201-1.844 0-1.205-.748-2.051-2.266-2.051H3.81V63zm.988-3.327V57.3h1.24c.974 0 1.377.464 1.377 1.205 0 .739-.403 1.167-1.365 1.167H4.797zM10.51 63h4.142v-.85h-3.155v-2.004H14.4v-.847h-2.902v-1.994h3.117v-.85H10.51V63zm6.876 0l.6-1.732h2.557L21.141 63h1.048l-2.355-6.545h-1.141L16.337 63h1.049zm.888-2.563l.965-2.793h.051l.966 2.793h-1.982zM26.154 63c1.994 0 3.148-1.237 3.148-3.282 0-2.036-1.154-3.264-3.081-3.264h-2.187V63h2.12zm-1.132-.863v-4.82h1.138c1.432 0 2.17.857 2.17 2.4 0 1.55-.738 2.42-2.23 2.42h-1.078zm9.69-5.682V63h.939v-4.74h.06l1.931 4.73h.78l1.93-4.727h.061V63h.94v-6.545h-1.199l-2.084 5.088h-.076l-2.084-5.088H34.71zm14.662 3.272c0-2.093-1.253-3.362-2.947-3.362-1.7 0-2.95 1.269-2.95 3.362 0 2.09 1.25 3.363 2.95 3.363 1.694 0 2.947-1.27 2.947-3.363zm-.978 0c0 1.595-.843 2.461-1.968 2.461-1.129 0-1.97-.866-1.97-2.46 0-1.596.841-2.462 1.97-2.462 1.125 0 1.968.867 1.968 2.461zM51.506 63h.987v-2.477H53.9L55.23 63h1.125l-1.451-2.65c.802-.297 1.202-.965 1.202-1.844 0-1.205-.748-2.051-2.266-2.051h-2.334V63zm.987-3.327V57.3h1.24c.975 0 1.378.464 1.378 1.205 0 .739-.403 1.167-1.365 1.167h-1.253zM58.206 63h4.142v-.85h-3.154v-2.004h2.902v-.847h-2.902v-1.994h3.116v-.85h-4.104V63z" fill="#FF4F3C"/></svg>