<svg viewBox="0 0 30 30" fill="none" xmlns="http://www.w3.org/2000/svg"><path d="M23.534 9.743c0 .204.014.409.014.62C23.548 16.692 18.6 24 9.552 24A14.169 14.169 0 012 21.85c.39.05.781.071 1.179.064a10.05 10.05 0 006.09-2.044c-2.097-.063-3.934-1.402-4.578-3.347.304.056.622.084.933.077a4.95 4.95 0 001.287-.155c-2.293-.465-3.935-2.431-3.942-4.708v-.049c.68.367 1.447.57 2.22.592-2.162-1.416-2.827-4.228-1.51-6.413 2.495 3.002 6.176 4.827 10.14 5.018a5.049 5.049 0 01-.116-1.093c0-2.643 2.2-4.792 4.912-4.792 1.36 0 2.662.55 3.595 1.515 1.1-.211 2.155-.606 3.117-1.163a4.796 4.796 0 01-2.162 2.65c.976-.12 1.93-.373 2.835-.754a9.744 9.744 0 01-2.466 2.495z" fill="#fff"/></svg>